<svg xmlns="http://www.w3.org/2000/svg" width="22.205" height="22.205" viewBox="0 0 22.205 22.205">
  <path id="whatsapp-line-1" d="M91.165,103.646l.8.47a8.879,8.879,0,1,0-3.212-3.212l.469.8-.725,2.666,2.665-.727Zm-5.828,3.893,1.5-5.516a11.1,11.1,0,1,1,4.012,4.011Zm7.091-16.312a3.762,3.762,0,0,1,.447,0c.06,0,.12.011.18.018a.56.56,0,0,1,.436.276q.5,1.126.964,2.265a.674.674,0,0,1-.1.6,4.861,4.861,0,0,1-.292.413c-.125.161-.4.456-.4.456a.356.356,0,0,0-.068.294.982.982,0,0,0,.113.228l.065.105a7.034,7.034,0,0,0,1.132,1.408c.133.129.263.261.4.384a6.672,6.672,0,0,0,1.743,1.11l.006,0c.094.041.142.063.28.122a1.6,1.6,0,0,0,.212.073.389.389,0,0,0,.407-.144,12.973,12.973,0,0,1,.884-1.037v0a.535.535,0,0,1,.42-.141.574.574,0,0,1,.2.044c.59.27,1.554.691,1.554.691l.646.29a.374.374,0,0,1,.211.294,2.144,2.144,0,0,1-.014.414,3.092,3.092,0,0,1-.209.814,1.282,1.282,0,0,1-.233.335,2.639,2.639,0,0,1-.366.32q-.068.051-.139.1-.207.131-.425.244a2.209,2.209,0,0,1-.925.255,5.724,5.724,0,0,1-.617.016c-.009,0-.631-.1-.631-.1A10.49,10.49,0,0,1,94.048,99.1c-.251-.221-.483-.459-.721-.7a10.558,10.558,0,0,1-2.187-3.044,3.853,3.853,0,0,1-.368-1.57,3.03,3.03,0,0,1,.626-1.865,2.626,2.626,0,0,1,.29-.339,1.413,1.413,0,0,1,.326-.253,1.067,1.067,0,0,1,.412-.111Z" transform="translate(-85.333 -85.333)" fill="#8c7d77"/>
</svg>
