<?xml version="1.0" standalone="no"?>
<!DOCTYPE svg PUBLIC "-//W3C//DTD SVG 1.1//EN" "http://www.w3.org/Graphics/SVG/1.1/DTD/svg11.dtd" >
<svg xmlns="http://www.w3.org/2000/svg">
<metadata></metadata>
<defs>
<font id="psl_sirintr_extraregular" horiz-adv-x="0" >
<font-face units-per-em="2048" ascent="1638" descent="-410" />
<missing-glyph horiz-adv-x="512" />
<glyph unicode="&#xd;" horiz-adv-x="512" />
<glyph unicode=" "  horiz-adv-x="512" />
<glyph unicode="&#x09;" horiz-adv-x="512" />
<glyph unicode="&#xa0;" horiz-adv-x="512" />
<glyph unicode="!" horiz-adv-x="559" d="M381 969l-16 -682h-166l-17 682h199zM395 96q0 -43 -33.5 -73.5t-80.5 -30.5q-48 0 -80.5 29.5t-32.5 74.5q0 43 34 75t79 32q47 0 80.5 -32t33.5 -75z" />
<glyph unicode="&#x22;" horiz-adv-x="702" d="M602 1012l-27 -377h-143l-26 377h196zM301 1012l-27 -377h-141l-27 377h195z" />
<glyph unicode="#" horiz-adv-x="1014" d="M934 569h-213l-43 -172h182v-139h-217l-63 -258h-144l64 258h-103l-65 -258h-144l66 258h-176v139h211l43 172h-182v142h219l63 258h143l-65 -258h104l64 258h143l-63 -258h176v-142zM580 569h-105l-43 -172h105z" />
<glyph unicode="$" horiz-adv-x="885" d="M836 274q0 -114 -95 -194q-86 -72 -217 -90v-150h-116v144q-211 10 -347 82v208q175 -131 381 -131q84 0 140 33q63 37 63 103q0 57 -67 86q-33 12 -146 34q-180 35 -250 76q-114 70 -114 217q0 123 104 205q96 74 236 86v147h116v-147q146 -12 273 -74v-200 q-129 112 -340 112q-197 0 -197 -121q0 -57 62 -88q34 -18 122 -32q193 -33 271 -80q121 -72 121 -226z" />
<glyph unicode="%" horiz-adv-x="1444" d="M1360 289q0 -131 -57 -213q-66 -94 -193 -94q-133 0 -203 92q-61 82 -61 211q0 121 61 202q70 93 189 93q131 0 200 -91q64 -77 64 -200zM1063 971l-512 -971h-170l512 971h170zM596 696q0 -131 -57 -213q-66 -96 -193 -96q-133 0 -203 94q-61 80 -61 211q0 119 61 203 q70 92 189 92q131 0 200 -90q64 -78 64 -201zM1190 287q0 151 -92 151q-82 0 -82 -151q0 -168 86 -168q88 0 88 168zM426 694q0 152 -92 152q-82 0 -82 -152q0 -168 86 -168q88 0 88 168z" />
<glyph unicode="&#x26;" horiz-adv-x="1026" d="M1069 0h-248l-102 106q-49 -55 -133 -94q-90 -37 -180 -37q-148 0 -243 81t-95 210q0 164 186 269q-117 88 -117 210q0 109 90 179q82 65 199 65q111 0 190.5 -63.5t79.5 -163.5q0 -158 -164 -242l150 -145q20 69 23 149h186q-8 -159 -72 -278zM514 752q0 41 -25.5 70.5 t-64.5 29.5q-43 0 -72.5 -30.5t-29.5 -71.5q0 -66 100 -132q92 48 92 134zM604 221l-227 215q-113 -86 -113 -174q0 -31 19 -55q51 -70 133 -70q114 0 188 84z" />
<glyph unicode="'" horiz-adv-x="401" d="M299 1012l-27 -377h-145l-27 377h199z" />
<glyph unicode="(" horiz-adv-x="573" d="M526 -264h-190q-135 153 -189.5 299.5t-54.5 359.5q0 193 57.5 332t190.5 285h184q-256 -252 -256 -619q0 -416 258 -657z" />
<glyph unicode=")" horiz-adv-x="573" d="M481 395q0 -213 -54 -359.5t-189 -299.5h-191q258 241 258 657q0 367 -256 619h184q134 -146 191 -285t57 -332z" />
<glyph unicode="*" horiz-adv-x="780" d="M690 588l-80 -133l-157 110l16 -188h-152l13 190l-160 -110l-74 133l178 86l-180 90l76 125l158 -107l-13 191h152l-14 -189l155 111l78 -127l-178 -94z" />
<glyph unicode="+" horiz-adv-x="778" d="M717 295h-262v-262h-133v262h-261v133h261v260h133v-260h262v-133z" />
<glyph unicode="," horiz-adv-x="365" d="M307 76q0 -60 -39 -117q-45 -74 -133 -117l-80 43q84 52 121 109q-43 0 -73.5 29.5t-30.5 74.5q0 43 32.5 77t77.5 34q58 0 91.5 -37t33.5 -96z" />
<glyph unicode="-" horiz-adv-x="573" d="M479 344h-385v148h385v-148z" />
<glyph unicode="." horiz-adv-x="365" d="M293 94q0 -45 -33 -75.5t-78 -30.5t-76.5 30.5t-31.5 75.5t31.5 77t76.5 32t78 -32t33 -77z" />
<glyph unicode="/" horiz-adv-x="635" d="M592 1012l-442 -1207h-166l438 1207h170z" />
<glyph unicode="0" horiz-adv-x="778" d="M739 498q0 -219 -69 -353q-88 -168 -277 -168q-352 0 -352 521q0 202 74 331q90 158 272 158q188 0 279 -158q73 -127 73 -331zM555 487q0 340 -168 340q-158 0 -158 -331q0 -166 21 -238q37 -121 141 -121q105 0 141 119q23 74 23 231z" />
<glyph unicode="1" horiz-adv-x="778" d="M500 0h-181v725q-104 -31 -239 -18v137q106 0 153 14q86 27 86 113h181v-971z" />
<glyph unicode="2" horiz-adv-x="778" d="M737 0h-684v172l287 266q92 86 117 117q61 74 61 145q0 123 -158 123q-172 0 -286 -82v179q139 69 305 69q153 0 240.5 -76.5t87.5 -205.5q0 -125 -103 -250q-37 -43 -160 -154l-155 -139h448v-164z" />
<glyph unicode="3" horiz-adv-x="778" d="M731 287q0 -135 -99.5 -222.5t-258.5 -87.5q-172 0 -310 70v180q138 -84 299 -84q82 0 130.5 42t48.5 108q0 90 -68 123q-57 26 -199 26v158q248 0 248 133q0 90 -143 90q-162 0 -291 -82v181q129 67 287 67q133 0 231 -65q107 -74 107 -189q0 -143 -131 -205 q149 -79 149 -243z" />
<glyph unicode="4" horiz-adv-x="778" d="M762 256h-137v-256h-181v256h-440v180l463 535h158v-559h137v-156zM444 412v288l-247 -288h247z" />
<glyph unicode="5" horiz-adv-x="778" d="M737 322q0 -152 -103.5 -249.5t-264.5 -97.5q-193 0 -312 62v180q150 -80 299 -80q93 0 147 50.5t54 129.5q0 158 -219 158q-123 0 -250 -45v539h612v-166h-432v-180q54 6 103 6q161 0 256 -68q110 -80 110 -239z" />
<glyph unicode="6" horiz-adv-x="778" d="M750 338q10 -150 -85.5 -253t-246.5 -105q-379 -5 -379 499q0 238 122 374t343 136q74 0 158 -28v-177q-78 41 -173 41q-102 0 -170.5 -64.5t-87.5 -160.5q97 39 195 39q133 0 223 -82t101 -219zM571 332q-4 63 -49 108t-108 45q-92 0 -187 -41q-8 -131 35 -215 q47 -92 141 -92q78 0 126.5 52.5t41.5 142.5z" />
<glyph unicode="7" horiz-adv-x="778" d="M743 969l-2 -172l-428 -797h-198l438 803h-502v166h692z" />
<glyph unicode="8" horiz-adv-x="778" d="M750 279q0 -132 -107.5 -215.5t-249.5 -83.5q-162 0 -260 81.5t-98 223.5q0 149 135 233q-119 78 -113 221q6 115 109 187q96 65 227 65q133 0 230 -69q102 -76 102 -195q0 -143 -119 -215q144 -76 144 -233zM539 723q0 55 -43 87t-103 34q-61 2 -106 -28t-45 -83 q0 -69 88 -117q55 -30 125 -45q84 84 84 152zM559 276q0 82 -100 136q-64 32 -140 45q-100 -78 -100 -174q0 -70 50 -113t124 -43q70 0 118 42t48 107z" />
<glyph unicode="9" horiz-adv-x="778" d="M741 485q0 -237 -121.5 -372.5t-343.5 -135.5q-73 0 -157 27v176q78 -41 172 -41q102 0 174 68q65 61 84 158q-96 -39 -195 -39q-133 0 -223 81.5t-100 219.5q-11 149 84.5 253.5t246.5 106.5q379 4 379 -502zM553 520q8 131 -35 215q-47 92 -141 92q-78 0 -123 -51 q-51 -53 -45 -143q4 -64 49 -109t109 -45q92 0 186 41z" />
<glyph unicode=":" horiz-adv-x="365" d="M293 559q0 -45 -33 -76.5t-78 -31.5t-76.5 31.5t-31.5 76.5t31.5 77t76.5 32t78 -32t33 -77zM293 94q0 -45 -33 -75.5t-78 -30.5t-76.5 30.5t-31.5 75.5t31.5 77t76.5 32t78 -32t33 -77z" />
<glyph unicode=";" horiz-adv-x="365" d="M293 559q0 -45 -33 -76.5t-78 -31.5t-76.5 31.5t-31.5 76.5t31.5 77t76.5 32t78 -32t33 -77zM307 76q0 -60 -39 -117q-45 -74 -133 -117l-80 43q84 52 121 109q-43 0 -73.5 29.5t-30.5 74.5q0 43 32.5 77t77.5 34q58 0 91.5 -37t33.5 -96z" />
<glyph unicode="&#x3c;" horiz-adv-x="850" d="M768 49l-692 326v98l692 324v-150l-473 -223l473 -223v-152z" />
<glyph unicode="=" horiz-adv-x="778" d="M717 438h-656v133h656v-133zM717 152h-656v133h656v-133z" />
<glyph unicode="&#x3e;" horiz-adv-x="850" d="M776 375l-692 -326v152l471 223l-471 223v150l692 -324v-98z" />
<glyph unicode="?" horiz-adv-x="729" d="M657 721q0 -107 -106 -211q-66 -66 -150 -113v-110h-172v194q240 107 240 242q0 47 -41 74.5t-100 27.5q-138 0 -256 -57v172q125 49 262 49q141 0 232 -74.5t91 -193.5zM430 96q0 -43 -34 -73.5t-81 -30.5t-79.5 29.5t-32.5 74.5q0 43 33.5 76t78.5 33t80 -33t35 -76z " />
<glyph unicode="@" horiz-adv-x="1264" d="M1176 424q0 -152 -105 -328h-299l-14 51q-70 -57 -164 -57q-115 0 -185.5 88t-70.5 225q0 138 78 234q82 104 207 104q77 0 129 -26v14h137v-526h102q62 108 62 225q0 199 -113 317.5t-293 118.5q-182 0 -306 -132t-124 -322q0 -185 125 -310t313 -125q144 0 224 37v-133 q-99 -24 -217 -24q-248 0 -411 158.5t-163 394.5q0 241 162 410t395 169q260 0 404 -174q127 -154 127 -389zM748 281v301q-74 30 -117 30q-70 0 -109 -65q-37 -58 -37 -141q0 -72 29 -123q33 -60 92 -60q68 0 142 58z" />
<glyph unicode="A" horiz-adv-x="885" d="M901 0h-194l-91 254h-354l-90 -254h-186l362 969h189zM557 416l-117 311l-118 -311h235z" />
<glyph unicode="B" horiz-adv-x="887" d="M858 301q0 -143 -112.5 -222t-325.5 -79h-318v969h293q383 0 383 -230q0 -121 -90 -186q170 -76 170 -252zM592 707q-2 100 -172 100h-133v-205h131q176 0 174 105zM672 297q0 94 -84 125q-51 18 -164 18h-135v-280h174q84 0 141 33q68 36 68 104z" />
<glyph unicode="C" horiz-adv-x="918" d="M874 78q-151 -94 -344 -94q-208 0 -344.5 138t-136.5 367q0 211 136.5 353.5t336.5 142.5q183 0 352 -94v-215q-90 86 -163.5 117.5t-173.5 31.5q-129 0 -213 -90t-84 -241q0 -160 86 -256.5t221 -96.5q172 0 327 154v-217z" />
<glyph unicode="D" horiz-adv-x="995" d="M940 489q0 -260 -172 -385q-147 -104 -399 -104h-267v969h242q256 0 412 -107q184 -125 184 -373zM756 487q0 320 -410 320h-59v-645h92q377 0 377 325z" />
<glyph unicode="E" horiz-adv-x="819" d="M770 0h-668v969h668v-166h-483v-187h483v-165h-483v-285h483v-166z" />
<glyph unicode="F" horiz-adv-x="754" d="M752 803h-465v-195h399v-164h-399v-444h-185v969h650v-166z" />
<glyph unicode="G" horiz-adv-x="1001" d="M934 78q-174 -98 -383 -98q-217 0 -356 131q-148 141 -148 372q0 240 154 377q143 125 366 125q193 0 363 -94v-221q-164 155 -369 155q-141 0 -232 -92t-91 -250q0 -139 88 -240.5t221 -101.5q125 0 201 33v176h-246v164h432v-436z" />
<glyph unicode="H" horiz-adv-x="971" d="M868 0h-184v449h-397v-449h-185v969h185v-355h397v355h184v-969z" />
<glyph unicode="I" horiz-adv-x="553" d="M489 0h-426v150h121v667h-121v152h426v-152h-120v-667h120v-150z" />
<glyph unicode="J" horiz-adv-x="596" d="M502 299q0 -309 -326 -309q-74 0 -168 14v176q105 -28 166 -28q143 0 143 149v510h-196v158h381v-670z" />
<glyph unicode="K" horiz-adv-x="897" d="M938 0h-238l-354 389l-59 -61v-328h-185v969h185v-424l403 424h234l-445 -459z" />
<glyph unicode="L" horiz-adv-x="758" d="M745 0h-643v969h185v-803h458v-166z" />
<glyph unicode="M" horiz-adv-x="1085" d="M983 0h-184v676l-203 -426h-115l-202 426v-676h-177v969h220l223 -467l217 467h221v-969z" />
<glyph unicode="N" horiz-adv-x="967" d="M866 0h-192l-395 725v-725h-177v969h232l356 -654v654h176v-969z" />
<glyph unicode="O" horiz-adv-x="1016" d="M975 479q0 -203 -127 -348q-133 -151 -334 -151q-205 0 -342 147q-131 143 -131 348q0 213 121 356q127 156 340 156q217 0 350 -156q123 -143 123 -352zM782 477q0 139 -73 240q-80 108 -205 108q-123 0 -199 -112q-72 -101 -72 -236q0 -137 72 -235q80 -107 205 -107 q121 0 201 107q71 100 71 235z" />
<glyph unicode="P" horiz-adv-x="799" d="M774 653q-2 -135 -115.5 -224t-263.5 -89h-108v-340h-185v969h252q197 0 309.5 -84t110.5 -232zM584 653q0 74 -60.5 114t-163.5 40h-73v-305h63q232 0 234 151z" />
<glyph unicode="Q" horiz-adv-x="1016" d="M983 -233q-94 -29 -176 -29q-244 0 -272 229h-21q-207 0 -342 150q-131 145 -131 352q0 215 121 360q127 158 340 158q219 0 350 -156q123 -143 123 -358q0 -147 -69.5 -272t-188.5 -187q14 -98 121 -98q57 0 145 29v-178zM782 471q0 141 -73 244q-80 108 -205 108 q-123 0 -199 -112q-72 -103 -72 -240q0 -139 72 -238q80 -108 205 -108q121 0 201 108q71 101 71 238z" />
<glyph unicode="R" horiz-adv-x="899" d="M952 0h-235l-299 362h-131v-362h-185v969h279q188 0 299 -76t111 -217q0 -90 -54.5 -161t-134.5 -105zM590 668q0 65 -55.5 102t-135.5 37h-112v-287h90q213 0 213 148z" />
<glyph unicode="S" horiz-adv-x="885" d="M836 274q0 -131 -123 -215q-115 -75 -269 -75q-229 0 -383 82v208q175 -131 381 -131q84 0 140 33q63 37 63 103q0 57 -67 86q-33 12 -146 34q-180 35 -250 76q-114 70 -114 217q0 133 125 217q112 76 266 76q180 0 338 -76v-200q-129 112 -340 112q-197 0 -197 -121 q0 -57 62 -88q34 -18 122 -32q193 -33 271 -80q121 -72 121 -226z" />
<glyph unicode="T" horiz-adv-x="864" d="M852 803h-330v-803h-184v803h-328v166h842v-166z" />
<glyph unicode="U" horiz-adv-x="954" d="M862 389q0 -176 -82 -285q-98 -124 -286 -124q-400 0 -400 407v582h182v-578q0 -123 39 -180q50 -70 177 -70q186 0 186 254v574h184v-580z" />
<glyph unicode="V" horiz-adv-x="885" d="M901 969l-354 -969h-209l-352 969h194l266 -740l265 740h190z" />
<glyph unicode="W" horiz-adv-x="1200" d="M1208 969l-256 -969h-186l-168 639l-166 -639h-182l-258 969h188l168 -641l166 641h174l168 -647l166 647h186z" />
<glyph unicode="X" horiz-adv-x="887" d="M893 0h-219l-232 348l-237 -348h-207l338 483l-334 486h217l230 -344l233 344h211l-338 -480z" />
<glyph unicode="Y" horiz-adv-x="829" d="M856 969l-348 -551v-418h-184v406l-344 563h204l234 -379l233 379h205z" />
<glyph unicode="Z" horiz-adv-x="887" d="M836 0h-779v150l533 653h-512v166h745v-148l-536 -655h549v-166z" />
<glyph unicode="[" horiz-adv-x="573" d="M510 -252h-383v1264h383v-148h-213v-968h213v-148z" />
<glyph unicode="\" horiz-adv-x="594" d="M645 -195h-170l-465 1207h172z" />
<glyph unicode="]" horiz-adv-x="573" d="M446 -252h-380v148h213v968h-213v148h380v-1264z" />
<glyph unicode="^" horiz-adv-x="1055" d="M989 444h-196l-267 344l-266 -346h-194l407 527h111z" />
<glyph unicode="_" horiz-adv-x="778" d="M778 -233h-778v118h778v-118z" />
<glyph unicode="`" horiz-adv-x="825" d="M530 846h-157l-211 244h229z" />
<glyph unicode="a" horiz-adv-x="772" d="M690 0h-178v57q-78 -71 -199 -71q-123 0 -197.5 63.5t-74.5 179.5q0 220 305 256q53 7 164 13q-10 88 -156 88q-129 0 -250 -51v170q150 40 261 40q325 0 325 -276v-469zM512 205v147q-285 17 -285 -119q0 -94 109 -94q84 0 176 66z" />
<glyph unicode="b" horiz-adv-x="795" d="M752 391q0 -186 -91.5 -295.5t-248.5 -109.5q-101 0 -158 63l-21 -49h-151v1012h176v-305q72 53 162 53q139 0 235.5 -108.5t96.5 -260.5zM569 393q0 86 -48 142.5t-120 56.5q-88 0 -143 -49v-355q68 -49 152 -49q77 0 120 76q39 70 39 178z" />
<glyph unicode="c" horiz-adv-x="709" d="M668 51q-95 -67 -260 -67q-164 0 -269 110q-98 107 -98 262q0 162 104.5 275.5t272.5 113.5q137 0 248 -71v-189q-103 103 -224 103q-96 0 -154.5 -65.5t-58.5 -166.5q0 -92 58.5 -156.5t146.5 -64.5q127 0 234 101v-185z" />
<glyph unicode="d" horiz-adv-x="795" d="M711 0h-152l-20 49q-76 -63 -158 -63q-160 0 -250 109.5t-90 295.5q0 152 96 260.5t236 108.5q84 0 162 -53v305h176v-1012zM535 188v355q-56 49 -144 49q-72 0 -120 -56.5t-48 -142.5q0 -108 39 -178q43 -76 121 -76q84 0 152 49z" />
<glyph unicode="e" horiz-adv-x="774" d="M733 322h-510q19 -185 226 -185q143 0 270 92v-176q-119 -71 -281 -71q-176 0 -280 90q-117 102 -117 295q0 165 90 270q98 111 266 111q176 0 265 -130q73 -110 71 -296zM551 467q-35 129 -156 129q-131 0 -166 -129h322z" />
<glyph unicode="f" horiz-adv-x="487" d="M524 840q-67 28 -127 28q-123 0 -123 -102v-18h211v-156h-206v-592h-181v590h-71v158h73v16q0 117 88 192q84 70 201 70q72 0 135 -27v-159z" />
<glyph unicode="g" horiz-adv-x="795" d="M711 113q0 -389 -353 -389q-114 0 -241 43v180q114 -62 215 -62q170 0 188 154q-59 -53 -149 -53q-330 0 -330 374q0 164 96 274.5t236 110.5q104 0 170 -69l20 51h148v-614zM535 190v336q-52 52 -144 52q-74 0 -121 -62.5t-47 -153.5q0 -219 160 -219q78 0 152 47z" />
<glyph unicode="h" horiz-adv-x="803" d="M721 0h-178v457q0 135 -92 135q-107 0 -193 -66v-526h-176v1012h176v-320q96 68 201 68q121 0 191.5 -77t70.5 -220v-463z" />
<glyph unicode="i" horiz-adv-x="367" d="M281 797h-193v178h193v-178zM272 0h-178v741h178v-741z" />
<glyph unicode="j" horiz-adv-x="459" d="M365 795h-193v180h193v-180zM365 14q0 -143 -73 -215.5t-192 -72.5q-75 0 -157 28v174q86 -32 139 -32q104 0 104 135v549h-143v157h322v-723z" />
<glyph unicode="k" horiz-adv-x="766" d="M803 0h-236l-256 281l-51 -56v-225h-178v1012h178v-568l293 299h229l-350 -346z" />
<glyph unicode="l" horiz-adv-x="367" d="M272 0h-178v1012h178v-1012z" />
<glyph unicode="m" horiz-adv-x="1233" d="M1151 0h-180v420q0 162 -86 162q-94 0 -187 -66q9 -41 9 -82v-434h-177v410q0 174 -86 174q-106 0 -186 -66v-518h-176v727h176v-61q100 79 201 79q123 0 192 -92q105 95 260 95q103 0 171.5 -75t68.5 -184v-489z" />
<glyph unicode="n" horiz-adv-x="803" d="M719 0h-178v430q0 152 -92 152q-89 0 -191 -68v-514h-176v727h176v-65q104 83 211 83q115 0 182.5 -76.5t67.5 -205.5v-463z" />
<glyph unicode="o" horiz-adv-x="799" d="M756 369q0 -162 -98.5 -275.5t-258.5 -113.5q-163 0 -264 118q-94 113 -94 277q0 151 101.5 260.5t254.5 109.5q164 0 265 -112q94 -107 94 -264zM573 373q0 88 -43 151q-49 70 -131 70t-131 -70q-45 -61 -45 -149q0 -101 43 -166q47 -76 133 -76q84 0 133 76 q41 65 41 164z" />
<glyph unicode="p" horiz-adv-x="795" d="M752 360q0 -178 -90.5 -276t-249.5 -98q-80 0 -152 45v-297h-178v995h147l21 -53q69 69 170 69q139 0 235.5 -110.5t96.5 -274.5zM569 362q0 93 -47 154.5t-121 61.5q-92 0 -143 -52v-331q68 -50 152 -50q159 0 159 217z" />
<glyph unicode="q" horiz-adv-x="795" d="M711 -266h-179v297q-69 -45 -157 -45q-156 0 -245 99t-89 275q0 164 96 274.5t236 110.5q100 0 170 -69l20 53h148v-995zM535 195v331q-52 52 -144 52q-74 0 -121 -61.5t-47 -154.5q0 -217 160 -217q84 0 152 50z" />
<glyph unicode="r" horiz-adv-x="569" d="M569 530q-65 23 -127 23q-106 0 -180 -64v-489h-180v727h178v-68q102 64 223 64q43 0 86 -8v-185z" />
<glyph unicode="s" horiz-adv-x="684" d="M649 207q0 -107 -90 -166t-223 -59q-166 0 -285 69v166q121 -82 271 -82q57 0 101 20.5t44 57.5q0 41 -55 59q-25 9 -109 23q-252 41 -252 227q0 107 92 168q82 58 205 58q152 0 273 -66v-158q-121 66 -256 66q-134 0 -134 -66q0 -55 115 -75q152 -27 207 -60 q96 -55 96 -182z" />
<glyph unicode="t" horiz-adv-x="532" d="M514 4q-96 -14 -166 -14q-252 0 -252 246v348h-76v155h76v195h178v-195h240v-155h-240v-318q0 -119 95 -119q47 0 145 31v-174z" />
<glyph unicode="u" horiz-adv-x="803" d="M719 0h-176v63q-94 -81 -209 -81q-117 0 -184.5 75.5t-67.5 204.5v463h178v-430q0 -152 98 -152q105 0 185 68v514h176v-725z" />
<glyph unicode="v" horiz-adv-x="768" d="M766 727l-303 -727h-158l-303 727h193l192 -481l193 481h186z" />
<glyph unicode="w" horiz-adv-x="1022" d="M1016 727l-195 -727h-155l-154 434l-154 -434h-153l-199 727h187l106 -422l145 422h142l147 -422l101 422h182z" />
<glyph unicode="x" horiz-adv-x="768" d="M782 0h-223l-180 236l-180 -236h-211l291 362l-289 365h223l178 -231l178 231h213l-293 -358z" />
<glyph unicode="y" horiz-adv-x="768" d="M768 727l-430 -993h-191l144 313l-289 680h193l190 -457l195 457h188z" />
<glyph unicode="z" horiz-adv-x="692" d="M655 0h-618v121l371 454h-363v152h600v-119l-373 -456h383v-152z" />
<glyph unicode="{" horiz-adv-x="803" d="M727 -254h-106q-129 0 -207 64q-88 71 -88 208q0 160 -39 215q-49 68 -199 68v158q148 0 197 65q39 51 39 195q0 125 59 201q70 90 211 90h133v-144h-94q-88 0 -115 -47q-16 -28 -16 -117q0 -233 -146 -321q142 -78 142 -283q0 -108 20 -149q27 -55 103 -55h106v-148z " />
<glyph unicode="|" horiz-adv-x="594" d="M381 -252h-168v1264h168v-1264z" />
<glyph unicode="}" horiz-adv-x="803" d="M715 301q-152 0 -199 -68q-41 -57 -41 -215q0 -137 -86 -208q-78 -64 -207 -64h-106v148h106q76 0 103 55q18 41 18 149q0 205 143 283q-145 88 -145 321q0 89 -16 117q-27 47 -115 47h-94v144h133q268 0 268 -291q0 -141 39 -195q51 -65 199 -65v-158z" />
<glyph unicode="~" horiz-adv-x="1055" d="M961 602q-19 -342 -244 -342q-99 0 -168 51q-4 4 -92 99q-51 51 -107 51q-92 0 -88 -205h-168q29 348 246 348q90 0 162 -53q4 -4 102 -100q55 -54 107 -54q96 0 84 205h166z" />
<glyph unicode="&#xa4;" horiz-adv-x="840" d="M422 729q49 0 89 -18.5t69.5 -49t46 -72.5t16.5 -87q0 -101 -63 -164q-66 -68 -158 -68q-98 0 -162 68q-63 70 -63 164q0 88 65 160q64 67 160 67zM8 164l76 -76l145 148q82 -62 193 -62q53 0 105.5 18.5t82.5 43.5l150 -148l71 76l-145 145q59 78 59 193q0 110 -59 188 l145 150l-71 71l-150 -145q-32 27 -82.5 43t-105.5 16q-115 0 -193 -59l-145 145l-76 -71l148 -150q-62 -74 -62 -188q0 -111 62 -193z" />
<glyph unicode="&#xa9;" horiz-adv-x="1032" d="M1016 487q0 -206 -145.5 -351.5t-352.5 -145.5t-354.5 145.5t-147.5 351.5q0 207 147.5 352.5t354.5 145.5t352.5 -145.5t145.5 -352.5zM942 487q0 177 -124 300.5t-300 123.5q-178 0 -303 -123.5t-125 -300.5q0 -178 125 -302t303 -124q176 0 300 124t124 302zM762 248 q-94 -90 -232 -90q-135 0 -224 91t-89 222t90 221t225 90q121 0 216 -75v-99q-76 94 -218 94q-96 0 -162.5 -68.5t-66.5 -162.5t66.5 -162.5t160.5 -68.5q136 0 234 102v-94z" />
<glyph unicode="&#xab;" horiz-adv-x="659" d="M598 156l-96 -37l-158 246l158 245l96 -35l-94 -210zM446 84l-94 -41l-295 322l295 323l94 -41l-217 -282z" />
<glyph unicode="&#xac;" horiz-adv-x="778" d="M732 119v268h-686v-90h604v-178h82z" />
<glyph unicode="&#xad;" horiz-adv-x="778" d="M717 295h-656v133h656v-133z" />
<glyph unicode="&#xae;" horiz-adv-x="1032" d="M1016 487q0 -206 -145.5 -351.5t-352.5 -145.5t-354.5 145.5t-147.5 351.5q0 207 147.5 352.5t354.5 145.5t352.5 -145.5t145.5 -352.5zM942 487q0 177 -124 300.5t-300 123.5q-178 0 -303 -123.5t-125 -300.5q0 -178 125 -302t303 -124q176 0 300 124t124 302zM797 188 h-107l-184 256h-98v-256h-89v607h207q101 0 154 -33q65 -49 65 -141q0 -140 -147 -168zM657 621q0 57 -32.5 81.5t-106.5 24.5h-110v-213h122q66 0 96.5 30.5t30.5 76.5z" />
<glyph unicode="&#xb0;" horiz-adv-x="541" d="M266 915q-42 0 -78.5 -16.5t-63.5 -44t-42.5 -64.5t-15.5 -77q0 -43 16 -80t43.5 -64.5t63.5 -43t77 -15.5q43 0 80.5 16t65 43.5t43.5 64.5t16 79t-16 79t-43.5 64t-65 43t-80.5 16zM266 858q31 0 58 -11.5t47.5 -31t32.5 -46t12 -56.5q0 -59 -45 -105q-45 -43 -105 -43 q-30 0 -56.5 12t-46 32t-31 47t-11.5 57q0 31 11 57.5t30.5 46t46 30.5t57.5 11z" />
<glyph unicode="&#xb6;" horiz-adv-x="727" d="M629 1112v-1356h-62v1356h-145v-1356h-55v805q-168 0 -263 62q-104 73 -104 235q0 152 94 229q90 66 248 66h389v-41h-102z" />
<glyph unicode="&#xb7;" horiz-adv-x="338" d="M170 520q-33 0 -53 -20q-21 -24 -21 -51q0 -33 21 -54q11 -11 24.5 -15.5t28.5 -4.5q29 0 50.5 21.5t21.5 52.5q0 29 -20.5 50t-51.5 21z" />
<glyph unicode="&#xbb;" horiz-adv-x="659" d="M602 365l-295 -322l-94 41l217 281l-217 282l94 41zM315 365l-157 -246l-97 37l95 209l-95 210l97 35z" />
<glyph unicode="&#xd7;" horiz-adv-x="778" d="M711 133l-95 -94l-229 229l-227 -227l-94 94l227 227l-227 228l94 94l227 -227l229 227l95 -94l-230 -228z" />
<glyph unicode="&#xf7;" horiz-adv-x="778" d="M479 623q0 -39 -26.5 -66t-65.5 -27t-65.5 27t-26.5 66t26.5 65.5t65.5 26.5t65.5 -26.5t26.5 -65.5zM717 295h-656v133h656v-133zM479 100q0 -39 -26.5 -65.5t-65.5 -26.5t-65.5 26.5t-26.5 65.5t26.5 66t65.5 27t65.5 -27t26.5 -66z" />
<glyph unicode="&#xe00;" horiz-adv-x="205" />
<glyph unicode="&#xe01;" horiz-adv-x="799" d="M737 0h-176v565q0 125 -162 125q-161 0 -161 -125v-565h-177v575q0 134 117 203q92 56 221 56q131 0 224 -56q114 -69 114 -203v-575z" />
<glyph unicode="&#xe02;" horiz-adv-x="698" d="M637 8q-105 -20 -197 -20q-190 0 -294.5 96t-104.5 270q0 217 172 326l-96 92l159 57l123 -139q-182 -102 -182 -303q0 -133 74 -201q65 -63 170 -59v692h176v-811z" />
<glyph unicode="&#xe03;" horiz-adv-x="698" d="M637 8q-105 -20 -193 -20q-192 0 -297.5 94t-105.5 260q0 193 143 315l-141 72l98 100l88 -61l80 61l107 -102q-199 -133 -199 -334q0 -139 74 -209q63 -61 170 -57v692h176v-811z" />
<glyph unicode="&#xe04;" horiz-adv-x="819" d="M758 0h-176v565q0 66 -58 99q-45 26 -114 26q-68 0 -115 -26q-57 -35 -57 -99v-67h213v-152h-213v-346h-177v575q0 134 113 201q94 58 236 58q143 0 235 -58q113 -67 113 -201v-575z" />
<glyph unicode="&#xe05;" horiz-adv-x="819" d="M758 0h-176v586q0 71 -54 90l-118 -88l-119 88q-53 -19 -53 -90v-88h213v-152h-213v-346h-177v586q0 223 244 243l105 -79l104 79q244 -20 244 -243v-586z" />
<glyph unicode="&#xe06;" horiz-adv-x="819" d="M758 252q0 -133 -78 -203q-70 -59 -191 -59q-127 0 -231 94v-84h-176v481q0 105 149 193l-38 31l-80 -64l-131 113l124 75l70 -53l74 53l149 -116q-141 -115 -141 -221v-193q0 -59 63.5 -114.5t151.5 -55.5q109 0 109 119v571h176v-567z" />
<glyph unicode="&#xe07;" horiz-adv-x="731" d="M690 426q0 -436 -442 -436q-60 0 -125 8l-117 719l166 108l104 -680q105 0 171.5 71t66.5 210q0 131 -53 192q-60 68 -195 68v143q424 19 424 -403z" />
<glyph unicode="&#xe08;" horiz-adv-x="717" d="M676 424q0 -432 -453 -432q-69 0 -151 10v498l-31 92h207v-447q252 0 252 273q0 127 -86 196.5t-232 69.5q-76 0 -159 -18v143q100 20 188 20q217 0 341 -109.5t124 -295.5z" />
<glyph unicode="&#xe09;" horiz-adv-x="805" d="M743 0h-176v84q-104 -94 -231 -94q-121 0 -191 59q-77 70 -77 203v184l-31 92h207v-278q0 -121 108 -121q88 0 151.5 55.5t63.5 114.5v252q0 139 -219 139q-166 0 -299 -100v153q115 91 309 91q385 0 385 -293v-541z" />
<glyph unicode="&#xe0a;" horiz-adv-x="719" d="M678 381q0 -188 -112.5 -288.5t-313.5 -100.5q-90 0 -191 18v717l-30 92h207v-690q108 -6 186 61.5t78 190.5q0 213 -244 285l162 153h244l-187 -127q84 -35 137 -108q64 -88 64 -203z" />
<glyph unicode="&#xe0b;" horiz-adv-x="760" d="M719 381q0 -188 -119 -288.5t-324 -100.5q-90 0 -194 18v592q0 35 39 66l-139 92l112 76l76 -60l76 60l110 -64q-98 -76 -98 -156v-487q113 -6 195 55q90 68 90 197q0 213 -244 285l162 153h244l-187 -127q84 -35 137 -108q64 -88 64 -203z" />
<glyph unicode="&#xe0c;" horiz-adv-x="1237" d="M1176 254q0 -264 -228 -264q-129 0 -211 86v-76h-176v569q0 64 -55 97q-45 28 -113 28q-123 0 -174 -73l90 -62q-71 -37 -71 -123v-305h86v-131h-263v432q0 74 72 105l-110 67q32 119 149 180q94 50 221 50q139 0 234 -60q110 -69 110 -203v-290q0 -58 45 -105t119 -47 q98 0 98 123v567h177v-565z" />
<glyph unicode="&#xe0d;" horiz-adv-x="1237" d="M1176 72q0 -142 -91 -217q-81 -70 -223 -70h-248l-67 137h284q154 0 154 123q-65 -53 -164 -53q-260 0 -260 244v333q0 64 -55 97q-45 28 -113 28q-123 0 -174 -73l90 -62q-71 -37 -71 -123v-305h86v-131h-263v432q0 74 72 105l-110 67q32 119 149 180q94 50 221 50 q139 0 234 -60q110 -69 110 -203v-333q0 -113 111 -113q57 0 100 35q51 41 51 108v551h177v-747z" />
<glyph unicode="&#xe0e;" horiz-adv-x="829" d="M768 -305h-176l-127 92l-127 -92h-199l-61 129h213l174 125l127 -92v712q0 64 -55 97q-45 28 -113 28q-123 0 -174 -73l90 -62q-72 -37 -72 -123v-436h-258v131h82v301q0 74 72 105l-111 67q33 119 150 180q94 50 221 50q139 0 233 -60q111 -69 111 -203v-876z" />
<glyph unicode="&#xe0f;" horiz-adv-x="829" d="M768 -305h-176l-72 86l-102 -107l-109 107l-78 -86h-178l-53 129h178l133 127l107 -105l102 105l72 -74v692q0 64 -55 97q-45 28 -113 28q-123 0 -174 -73l90 -62q-72 -37 -72 -123v-436h-258v131h82v301q0 74 72 105l-111 67q33 119 150 180q94 50 221 50q139 0 233 -60 q111 -69 111 -203v-876z" />
<glyph unicode="&#xe10;" horiz-adv-x="717" d="M676 424q0 -432 -453 -432q-69 0 -151 10v498l-31 92h207v-447q252 0 252 273q0 127 -86 196.5t-232 69.5q-76 0 -159 -18v143q100 20 190 20q115 0 205 -32l26 53h193l-84 -133q123 -107 123 -293zM662 -305h-177l-65 65l-86 -94l-92 94l-68 -65h-131l-70 129h158 l117 100l82 -84l86 84l69 -65v61l-20 53h197v-278z" />
<glyph unicode="&#xe11;" horiz-adv-x="860" d="M799 0h-176v590q0 92 -35 92q-37 0 -113 -129q-61 -107 -127 -279q-69 -178 -69 -241v-33h-177v481q0 117 127 191l-36 33l-80 -64l-131 113l124 75l70 -53l74 53l129 -108q-35 -27 -66 -76q-34 -59 -34 -102v-31q0 -31 -15 -164h6q29 172 92 281q119 202 254 202 q183 0 183 -233v-598z" />
<glyph unicode="&#xe12;" horiz-adv-x="1278" d="M1217 254q0 -264 -228 -264q-129 0 -211 86v-76h-176v637l-86 -78l-127 111q-72 -29 -122 -102.5t-50 -164.5q0 -118 66.5 -191t185.5 -73q35 0 72 6v-145q-49 -6 -97 -6q-198 0 -307 119q-96 110 -96 290q0 166 101.5 282t267.5 149l106 -91l94 76h168v-538 q0 -58 45 -105t119 -47q98 0 98 123v567h177v-565z" />
<glyph unicode="&#xe13;" horiz-adv-x="1237" d="M1176 0h-177v76q-81 -86 -211 -86q-227 0 -227 264v315q0 64 -55 97q-45 28 -113 28q-123 0 -174 -73l90 -62q-71 -37 -71 -123v-305h86v-131h-263v432q0 74 72 105l-110 67q32 119 149 180q94 50 221 50q139 0 234 -60q110 -69 110 -203v-319q0 -123 99 -123 q73 0 118 47t45 105v538h177v-819z" />
<glyph unicode="&#xe14;" horiz-adv-x="840" d="M778 0h-176v676l-133 4q-104 4 -178 -80t-74 -194q0 -123 65.5 -195t186.5 -72q35 0 72 6v-145q-49 -6 -95 -6q-198 0 -307 121q-98 110 -98 291q0 176 123 297.5t313 119.5l301 -4v-819z" />
<glyph unicode="&#xe15;" horiz-adv-x="840" d="M778 0h-176v637l-86 -78l-127 111q-72 -29 -122 -102.5t-50 -164.5q0 -118 66.5 -191t185.5 -73q35 0 72 6v-145q-49 -6 -97 -6q-198 0 -307 119q-96 110 -96 290q0 166 101.5 282t267.5 149l106 -91l94 76h168v-819z" />
<glyph unicode="&#xe16;" horiz-adv-x="799" d="M737 0h-176v569q0 64 -55 97q-45 28 -113 28q-123 0 -174 -73l90 -62q-71 -37 -71 -123v-305h86v-131h-263v432q0 74 72 105l-110 67q32 119 149 180q94 50 221 50q139 0 234 -60q110 -69 110 -203v-571z" />
<glyph unicode="&#xe17;" horiz-adv-x="799" d="M737 0h-176v571q0 119 -108 119q-88 0 -151.5 -55t-63.5 -115v-520h-177v819h177v-84q104 96 231 96q268 0 268 -264v-567z" />
<glyph unicode="&#xe18;" horiz-adv-x="770" d="M729 303q0 -313 -426 -313q-106 0 -242 18v410h177v-283q36 -4 73 -4q242 0 242 162q0 125 -236 149q-141 15 -208 54q-80 45 -80 137q0 86 93 143.5t228 57.5q236 0 334 -86v-154q-129 96 -328 96q-151 0 -151 -51q0 -25 86 -41q80 -12 162 -25q276 -51 276 -270z" />
<glyph unicode="&#xe19;" horiz-adv-x="799" d="M737 0h-176v84q-104 -94 -231 -94q-269 0 -269 262v567h177v-571q0 -119 108 -119q88 0 151.5 55.5t63.5 114.5v520h176v-819z" />
<glyph unicode="&#xe1a;" horiz-adv-x="799" d="M737 244q0 -133 -108 -203q-90 -53 -230 -53q-137 0 -227 53q-111 70 -111 203v575h177v-565q0 -125 161 -125q162 0 162 125v565h176v-575z" />
<glyph unicode="&#xe1b;" horiz-adv-x="799" d="M737 244q0 -133 -108 -203q-90 -53 -230 -53q-137 0 -227 53q-111 70 -111 203v575h177v-565q0 -125 161 -125q162 0 162 125v778h176v-788z" />
<glyph unicode="&#xe1c;" horiz-adv-x="1028" d="M1028 819l-184 -819h-148l-182 463l-182 -463h-148l-184 819h319v-123h-116l82 -426l229 564l229 -564l113 549h172z" />
<glyph unicode="&#xe1d;" horiz-adv-x="1028" d="M1073 1032l-229 -1032h-148l-182 463l-182 -463h-148l-184 819h319v-123h-116l82 -426l229 564l229 -564l158 762h172z" />
<glyph unicode="&#xe1e;" horiz-adv-x="1028" d="M1028 819l-184 -819h-148l-182 463l-182 -463h-148l-184 819h172l113 -549l229 564l229 -564l113 549h172z" />
<glyph unicode="&#xe1f;" horiz-adv-x="1028" d="M1071 1032l-227 -1032h-148l-182 463l-182 -463h-148l-184 819h172l113 -549l229 564l229 -564l156 762h172z" />
<glyph unicode="&#xe20;" horiz-adv-x="829" d="M768 0h-176v569q0 64 -55 97q-45 28 -113 28q-123 0 -174 -73l90 -62q-72 -37 -72 -123v-436h-258v131h82v301q0 74 72 105l-111 67q33 119 150 180q94 50 221 50q139 0 233 -60q111 -69 111 -203v-571z" />
<glyph unicode="&#xe21;" horiz-adv-x="799" d="M737 252q0 -262 -268 -262q-127 0 -231 94v-84h-177v819h177v-520q0 -59 63.5 -114.5t151.5 -55.5q108 0 108 119v571h176v-567z" />
<glyph unicode="&#xe22;" horiz-adv-x="788" d="M727 0l-356 -2q-340 -4 -340 254q0 80 49 139q41 47 98 66q-51 10 -90 53q-45 47 -45 106q0 103 82 160q76 53 201 53q41 0 82 -6v-141q-33 8 -66 8q-123 0 -123 -78q0 -94 160 -82l61 -127q-104 9 -168.5 -30t-64.5 -109q0 -133 205 -127l139 4v678h176v-819z" />
<glyph unicode="&#xe23;" horiz-adv-x="715" d="M684 268q0 -143 -102 -217q-90 -61 -236 -61q-186 0 -305 71v162q127 -92 285 -92q184 0 184 123q0 104 -160 125q-151 20 -219 55q-100 53 -100 172q0 103 90 165.5t221 62.5q197 0 307 -82v-156q-43 43 -127 70q-76 24 -147 24q-76 0 -122 -22.5t-46 -59.5 q0 -35 59 -53q29 -8 125 -23q293 -43 293 -264z" />
<glyph unicode="&#xe24;" horiz-adv-x="799" d="M737 -244h-176v813q0 64 -55 97q-45 28 -113 28q-123 0 -174 -73l90 -62q-71 -37 -71 -123v-305h86v-131h-263v432q0 74 72 105l-110 67q32 119 149 180q94 50 221 50q139 0 234 -60q110 -69 110 -203v-815z" />
<glyph unicode="&#xe25;" horiz-adv-x="805" d="M743 0h-176v457q-39 4 -80 4q-116 0 -190 -37q-90 -47 -90 -139q0 -70 53 -108t139 -38q29 0 60 4v-147q-51 -8 -99 -8q-149 0 -239 76.5t-90 220.5q0 151 131 239q121 80 311 80q39 0 80 -4q-4 39 -54 64.5t-130 25.5q-172 0 -312 -94v156q133 82 340 82q146 0 238 -58 q108 -67 108 -196v-580z" />
<glyph unicode="&#xe26;" horiz-adv-x="829" d="M768 -244h-176v813q0 64 -55 97q-45 28 -113 28q-123 0 -174 -73l90 -62q-72 -37 -72 -123v-436h-258v131h82v301q0 74 72 105l-111 67q33 119 150 180q94 50 221 50q139 0 233 -60q111 -69 111 -203v-815z" />
<glyph unicode="&#xe27;" horiz-adv-x="680" d="M639 410q0 -420 -371 -420q-137 0 -248 57v160q101 -66 220 -66q223 0 223 269q0 268 -223 268q-119 0 -220 -66v160q111 59 248 59q371 0 371 -421z" />
<glyph unicode="&#xe28;" horiz-adv-x="819" d="M758 0h-176v565q0 66 -58 99q-45 26 -114 26q-68 0 -115 -26q-57 -35 -57 -99v-67h213v-152h-213v-346h-177v575q0 134 113 201q94 58 236 58q59 0 102 -9l25 56h190l-70 -111q101 -70 101 -195v-575z" />
<glyph unicode="&#xe29;" horiz-adv-x="819" d="M836 526l-60 -133h-39v-149q0 -133 -108 -203q-90 -53 -230 -53q-137 0 -227 53q-111 70 -111 203v575h177v-565q0 -125 161 -125q162 0 162 125v139h-192v164l106 -31h86v293h176v-293h99z" />
<glyph unicode="&#xe2a;" horiz-adv-x="805" d="M743 0h-176v457q-39 4 -80 4q-116 0 -190 -37q-90 -47 -90 -139q0 -70 53 -108t139 -38q29 0 60 4v-147q-51 -8 -99 -8q-149 0 -239 76.5t-90 220.5q0 151 131 239q121 80 311 80q39 0 80 -4q-4 39 -54 64.5t-130 25.5q-172 0 -312 -94v156q133 82 340 82q54 0 115 -11 l25 58h190l-76 -115q92 -68 92 -186v-580z" />
<glyph unicode="&#xe2b;" horiz-adv-x="799" d="M758 819l-162 -145q141 -60 141 -193v-481h-176v459q0 86 -80 112q-30 -24 -243 -221v-350h-177v819h177v-258l299 258h221z" />
<glyph unicode="&#xe2c;" horiz-adv-x="1028" d="M1098 1051l-15 -62q-34 -145 -170 -145q84 -35 84 -135q0 -21 -4 -41l-149 -668h-148l-182 463l-182 -463h-148l-184 819h172l113 -549l229 564l229 -564l82 400q4 16 4 30q0 119 -131 119h-77l36 125h43q101 0 142 8q65 15 76 62l8 37h172z" />
<glyph unicode="&#xe2d;" horiz-adv-x="856" d="M815 410q0 -211 -115 -324q-104 -98 -274 -98q-168 0 -272 98q-117 113 -117 324q0 73 12 125h311v-136h-147q2 -131 60.5 -200.5t152.5 -69.5q98 0 155.5 72.5t57.5 208.5q0 135 -58.5 207.5t-154.5 72.5q-127 0 -174 -104h-191q41 125 146 190q94 58 219 58 q170 0 274 -101q115 -112 115 -323z" />
<glyph unicode="&#xe2e;" horiz-adv-x="856" d="M815 410q0 -211 -115 -324q-104 -98 -274 -98q-168 0 -272 98q-117 113 -117 324q0 73 12 125h311v-136h-147q2 -131 60.5 -200.5t152.5 -69.5q98 0 155.5 72.5t57.5 208.5q0 135 -58.5 207.5t-154.5 72.5q-127 0 -174 -104h-191q41 125 146 190q94 58 219 58q51 0 86 -9 l18 45h189l-64 -102q160 -104 160 -358z" />
<glyph unicode="&#xe2f;" horiz-adv-x="743" d="M682 0h-174v580q-88 -113 -250 -113q-94 0 -158 45q-69 49 -69 137q0 76 59.5 125t157.5 60l98 -97q-141 -2 -141 -80q0 -51 71 -51q80 -2 151 59.5t85 153.5h170v-819z" />
<glyph unicode="&#xe30;" horiz-adv-x="373" d="M352 680l-61 -143h-250v190h176v-47h135zM352 246l-61 -144h-250v191h176v-47h135z" />
<glyph unicode="&#xe31;" d="M170 1032l-61 -110h-564v190h179v-80h446z" />
<glyph unicode="&#xe32;" horiz-adv-x="580" d="M518 0h-176v578q0 112 -154 112q-98 0 -178 -43v146q78 41 199 41q309 0 309 -263v-571z" />
<glyph unicode="&#xe33;" horiz-adv-x="580" d="M-12 1028q0 -49 -39 -82t-99 -33q-59 0 -98 33t-39 82t39 82t98 33q60 0 99 -33t39 -82zM-96 1028q0 45 -54 45q-53 0 -53 -45t53 -45q54 0 54 45zM518 0h-176v578q0 112 -154 112q-98 0 -178 -43v146q78 41 199 41q309 0 309 -263v-571z" />
<glyph unicode="&#xe34;" d="M-59 922h-666l61 110h605v-110z" />
<glyph unicode="&#xe35;" d="M-59 922h-666l61 110h428v105h177v-215z" />
<glyph unicode="&#xe36;" d="M-12 1032q0 -49 -39 -79.5t-99 -30.5h-575l61 110h377q0 45 39 78t98 33q62 0 100 -32t38 -79zM-98 1032q0 45 -52 45q-49 0 -49 -45t49 -45q52 0 52 45z" />
<glyph unicode="&#xe37;" d="M-59 922h-666l61 110h252v105h115v-105h61v105h177v-215z" />
<glyph unicode="&#xe38;" d="M-59 -336h-177v133h-102l41 123h238v-256z" />
<glyph unicode="&#xe39;" d="M-59 -211q0 -145 -213 -145t-213 145v8h-82l41 123h196v-117q0 -41 47 -41t47 41v117h177v-131z" />
<glyph unicode="&#xe3a;" d="M-33 -195q0 -47 -34.5 -80.5t-79.5 -33.5q-48 0 -81.5 33.5t-33.5 80.5q0 45 33.5 80t81.5 35q45 0 79.5 -35t34.5 -80z" />
<glyph unicode="&#xe3f;" horiz-adv-x="887" d="M858 301q0 -266 -350 -297v-164h-117v160h-289v969h289v161h117v-167q270 -27 270 -224q0 -121 -90 -186q170 -76 170 -252zM592 707q-2 100 -172 100h-133v-205h131q176 0 174 105zM672 297q0 94 -84 125q-51 18 -164 18h-135v-280h174q84 0 141 33q68 36 68 104z" />
<glyph unicode="&#xe40;" horiz-adv-x="381" d="M279 0h-177v819h177v-819z" />
<glyph unicode="&#xe41;" horiz-adv-x="692" d="M588 0h-176v819h176v-819zM279 0h-177v819h177v-819z" />
<glyph unicode="&#xe42;" horiz-adv-x="422" d="M494 1110h-228q-37 0 -41 -23q74 -34 74 -133v-954h-176v979q0 59 -94 102q0 68 44 118t128 50h293v-139z" />
<glyph unicode="&#xe43;" horiz-adv-x="422" d="M395 1079q-96 -32 -96 -121v-958h-176v961q0 98 96 139q-14 57 -90 57q-41 0 -67.5 -24.5t-22.5 -57.5h-150q-12 80 48 137q65 64 198 64q260 0 260 -197z" />
<glyph unicode="&#xe44;" horiz-adv-x="422" d="M356 1083q-57 -34 -57 -102v-981h-176v965q0 61 65 106q0 23 -43 23l-73 -56q-25 21 -56 37q-73 39 -170 53l95 97q92 -15 133 -51l69 45q72 10 138 -25q75 -39 75 -111z" />
<glyph unicode="&#xe45;" horiz-adv-x="580" d="M518 -244h-176v822q0 112 -154 112q-98 0 -178 -43v146q78 41 199 41q309 0 309 -263v-815z" />
<glyph unicode="&#xe46;" horiz-adv-x="748" d="M686 -244h-176v875l-90 -78l-137 123q-29 -2 -51.5 -23.5t-22.5 -50.5q0 -78 113 -78q22 0 45 6l-101 -141q-110 2 -172.5 58.5t-62.5 144.5q0 100 74.5 168.5t216.5 68.5l96 -92l96 82h172v-1063z" />
<glyph unicode="&#xe47;" d="M-49 1231l-68 -111h-344q-104 0 -104 -55q0 -31 12 -39l170 64l227 -80v-115l-225 84l-209 -74q-112 31 -112 156q0 67 51 117q59 53 157 53h445z" />
<glyph unicode="&#xe48;" d="M-59 1198h-177v174h177v-174z" />
<glyph unicode="&#xe49;" d="M66 1296l-56 -98h-348v41q0 47 -47 47h-45l55 103h105q92 0 92 -74v-19h244z" />
<glyph unicode="&#xe4a;" d="M135 1298l-55 -100h-168v86q0 49 -45 49h-6l-68 -49l-67 49q-48 0 -48 -43v-10h74v-82h-176v94q0 60 41 95.5t104 35.5h13l61 -43l58 43h16q139 0 143 -125h123z" />
<glyph unicode="&#xe4b;" d="M10 1276h-78v-78h-159v78h-80v67h80v78h159v-78h78v-67z" />
<glyph unicode="&#xe4c;" d="M45 1280l-53 -98h-53q-62 0 -62 -54v-14h-162v49q0 54 40 85.5t102 31.5h188z" />
<glyph unicode="&#xe4d;" d="M-12 1028q0 -49 -39 -82t-99 -33q-59 0 -98 33t-39 82t39 82t98 33q60 0 99 -33t39 -82zM-96 1028q0 45 -54 45q-53 0 -53 -45t53 -45q54 0 54 45z" />
<glyph unicode="&#xe4e;" d="M2 1430q-119 2 -208 -19.5t-89 -54.5q0 -31 59 -39q27 -2 62 0v-94q-111 6 -176 -15q-88 -28 -76 -69q4 -17 41 -17q66 0 123 39l53 -90q-115 -59 -207 -49q-131 14 -135 113q-2 57 49 102q45 39 109 51q-29 25 -29 68q0 39 38 81t95 64q94 37 291 35v-106z" />
<glyph unicode="&#xe4f;" horiz-adv-x="942" d="M891 410q0 -174 -123 -296t-297 -122t-297 122t-123 296t123 296.5t297 122.5t297 -122.5t123 -296.5zM829 410q0 147 -105.5 252.5t-252.5 105.5t-252.5 -105.5t-105.5 -252.5q0 -148 105.5 -253.5t252.5 -105.5t252.5 105.5t105.5 253.5zM727 410q0 -107 -74.5 -181.5 t-181.5 -74.5q-106 0 -181 74.5t-75 181.5q0 106 75 181t181 75q107 0 181.5 -75t74.5 -181z" />
<glyph unicode="&#xe50;" horiz-adv-x="776" d="M735 307q0 -133 -102.5 -225t-245.5 -92t-245.5 92t-102.5 225t102.5 226.5t245.5 93.5t245.5 -93.5t102.5 -226.5zM590 307q0 80 -60.5 138.5t-144.5 58.5t-144.5 -58.5t-60.5 -138.5t60.5 -138t144.5 -58t144.5 58t60.5 138z" />
<glyph unicode="&#xe51;" horiz-adv-x="823" d="M782 299q0 -158 -137 -268q-121 -97 -301 -123l-63 102q151 19 252.5 104t101.5 191q0 86 -67.5 142.5t-161.5 56.5q-89 0 -154.5 -53.5t-65.5 -128.5q0 -103 84 -132q-18 29 -18 66q0 57 42 98t99 41q60 0 99.5 -41t39.5 -98q0 -80 -66.5 -135t-162.5 -55 q-110 0 -187 71.5t-77 177.5q0 134 108.5 223t255.5 89q160 0 269.5 -91.5t109.5 -236.5zM442 256q0 55 -49 55q-53 0 -53 -55t53 -55q49 0 49 55z" />
<glyph unicode="&#xe52;" horiz-adv-x="1202" d="M1143 0h-965q-24 301 -82 471q-59 178 -231 317l127 89q172 -166 241 -361q56 -154 82 -387h678v309q0 74 -75 74q-62 0 -78 -51v-281h-148v283q-24 49 -90 49q-86 0 -108 -72h10q57 0 98 -39t41 -94q0 -57 -41 -99t-98 -42q-58 0 -100 42t-42 99v109q0 96 69 158.5 t171 62.5q96 0 166 -59q63 59 152 59q92 0 155 -51q68 -58 68 -150v-436zM557 301q0 55 -53 55q-55 0 -55 -55q0 -57 55 -57q53 0 53 57z" />
<glyph unicode="&#xe53;" horiz-adv-x="948" d="M889 0h-148v430q0 70 -86 70q-63 0 -88 -41v-459h-147v459q-33 41 -103 41q-45 0 -77.5 -24.5t-32.5 -67.5v-111q6 2 14 2q68 0 115 -46t47 -110q0 -65 -47 -109t-115 -44q-67 0 -115.5 44t-48.5 109v277q0 94 75 152.5t181 58.5q111 0 183 -62q65 62 166 62 q96 0 161.5 -49.5t65.5 -137.5v-444zM281 141q0 62 -60 62q-57 0 -57 -62q0 -63 57 -63q60 0 60 63z" />
<glyph unicode="&#xe54;" horiz-adv-x="879" d="M887 102l-84 -106q-98 53 -170 53q-33 0 -112 -28.5t-146 -28.5q-135 0 -230 76q-104 88 -106 243q-2 148 97.5 238t252.5 90q39 0 121 -6q53 -4 98 2q56 8 88.5 73.5t34.5 151.5h148q2 -145 -67 -248.5t-185 -117.5q-47 -7 -113 0q-86 8 -125 8q-86 0 -145.5 -52.5 t-57.5 -138.5t64 -139q55 -47 133 -47q51 0 92 22q-80 60 -80 138q0 65 45 111t111 46q65 0 110.5 -43t45.5 -106q0 -64 -56 -111q8 -6 107 -22q86 -15 129 -58zM608 295q0 59 -55 59q-57 0 -57 -59t57 -59q55 0 55 59z" />
<glyph unicode="&#xe55;" horiz-adv-x="879" d="M887 102l-84 -106q-98 53 -170 53q-33 0 -112 -28.5t-146 -28.5q-135 0 -230 76q-102 88 -106 243q-2 119 66.5 202t183.5 105q-31 31 -31 82q0 64 55.5 106t128.5 42q74 0 128.5 -42t54.5 -106q0 -36 -17 -65q56 8 90 76q31 61 33 149h148q2 -145 -67 -248.5 t-185 -117.5q-47 -7 -113 0q-86 8 -125 8q-86 0 -145.5 -52.5t-57.5 -138.5t64 -139q55 -47 133 -47q51 0 92 22q-80 60 -80 142q0 65 45 109t111 44q65 0 110.5 -43t45.5 -106q0 -64 -56 -111q8 -6 107 -22q86 -15 129 -58zM506 686q0 57 -64 57q-65 0 -65 -57t65 -57 q64 0 64 57zM608 295q0 59 -55 59q-57 0 -57 -59t57 -59q55 0 55 59z" />
<glyph unicode="&#xe56;" horiz-adv-x="811" d="M770 317q0 -143 -109.5 -236t-271.5 -93q-145 0 -235 80q-80 71 -80 165q0 64 44 107t109 43q64 0 107 -43t43 -104q0 -68 -49 -111q43 -6 59 -6q96 0 166 56t70 142q0 80 -65.5 133.5t-158.5 53.5q-157 0 -282 -119q-31 213 -244 371l117 86q145 -97 203 -258 q102 53 215 53q157 0 259.5 -89t102.5 -231zM283 233q0 60 -58 60q-55 0 -55 -60q0 -59 55 -59q58 0 58 59z" />
<glyph unicode="&#xe57;" horiz-adv-x="1171" d="M1145 860q8 -80 8 -160q0 -239 -78 -431.5t-217 -268.5h-117v430q0 70 -86 70q-63 0 -88 -41v-459h-147v459q-33 41 -103 41q-45 0 -77.5 -24.5t-32.5 -67.5v-111q6 2 14 2q68 0 115 -46t47 -110q0 -65 -47 -109t-115 -44q-67 0 -115.5 44t-48.5 109v277q0 94 75 152.5 t181 58.5q111 0 183 -62q65 62 166 62q96 0 161.5 -49.5t65.5 -137.5v-245q119 153 119 454q0 101 -17 207h154zM281 141q0 62 -60 62q-57 0 -57 -62q0 -63 57 -63q60 0 60 63z" />
<glyph unicode="&#xe58;" horiz-adv-x="899" d="M879 829q-15 -204 -146 -362q-141 39 -270 39q-125 0 -201 -52.5t-76 -136.5q0 -57 33 -103t76 -60l137 137l139 -146q17 9 33 17q-47 43 -47 104q0 56 44 99t106 43q61 0 105 -44.5t44 -101.5q0 -160 -303 -270l-115 121l-114 -123q-117 14 -197 100q-88 90 -88 223 q0 144 110.5 235t299.5 91q112 0 221 -16q47 92 61 219zM756 268q0 54 -51 54q-52 0 -52 -54q0 -53 52 -53q51 0 51 53z" />
<glyph unicode="&#xe59;" horiz-adv-x="1004" d="M1028 848q19 -242 -131 -402q-33 78 -127 66q-55 -8 -68 -53q105 -170 140 -451l-148 -18q-30 231 -88 352q-82 168 -229 168q-80 0 -135.5 -55.5t-55.5 -132.5q0 -82 43 -142q9 53 52 90t100 37q63 0 108.5 -43t45.5 -102q0 -78 -56.5 -124t-140.5 -46q-135 0 -219 102 q-80 96 -80 232q0 141 97 233t241 92q125 0 223 -76q51 64 123 76q80 15 141 -14q27 90 13 211h151zM438 160q0 59 -57 59q-55 0 -55 -59q0 -60 55 -60q57 0 57 60z" />
<glyph unicode="&#xe5a;" horiz-adv-x="958" d="M897 0h-133v819h133v-819zM682 0h-174v580q-88 -113 -250 -113q-94 0 -158 45q-69 49 -69 137q0 76 59.5 125t157.5 60l98 -97q-141 -2 -141 -80q0 -51 71 -51q80 -2 151 59.5t85 153.5h170v-819z" />
<glyph unicode="&#xe5b;" horiz-adv-x="1516" d="M1473 434q0 -35 -64 -43l-147 -18q-21 -56 -56 -56q-20 0 -55 60q-18 -84 -66 -84q-18 0 -34.5 26.5t-32.5 53.5q-19 -103 -74 -103q-22 0 -39 33q-14 41 -28 80q-37 -137 -101 -137q-43 0 -55 61q-4 27 -19 74q-34 -129 -106 -209q-111 -123 -246 -123 q-127 0 -208 101.5t-81 265.5q0 155 77 260.5t190 105.5q98 0 163.5 -76.5t65.5 -193.5q0 -92 -43 -151.5t-108 -59.5q-58 0 -96 44t-38 106q0 61 39 105t92 44q9 0 15 -2q-21 72 -88 72q-62 0 -104 -74t-42 -188q0 -115 49.5 -183.5t128.5 -68.5q93 0 163.5 101t92.5 265 q13 94 68 94q64 0 102 -135q5 27 5 54q2 61 51 61t96 -98q10 61 45 61q47 0 94 -88q19 57 51 57q31 0 70 -57q17 31 51 27l158 -19q64 -8 64 -45zM453 453q0 57 -50 57q-45 0 -45 -57q0 -58 45 -58q50 0 50 58z" />
<glyph unicode="&#x2013;" horiz-adv-x="778" d="M717 295h-656v133h656v-133z" />
<glyph unicode="&#x2014;" horiz-adv-x="1556" d="M1495 295h-1434v133h1434v-133z" />
<glyph unicode="&#x2018;" horiz-adv-x="424" d="M358 977q-92 -57 -133 -121q47 0 82 -34t35 -83q0 -47 -36 -84t-87 -37q-63 0 -100 40t-37 106q0 65 43 133q49 80 145 127z" />
<glyph unicode="&#x2019;" horiz-adv-x="424" d="M342 879q0 -66 -41 -134q-51 -79 -147 -127l-88 48q92 57 133 120q-47 0 -82 34t-35 83t37 85t86 36q63 0 100 -40t37 -105z" />
<glyph unicode="&#x201c;" horiz-adv-x="745" d="M680 977q-92 -57 -133 -121q47 0 82 -34t35 -83q0 -47 -36 -84t-87 -37q-64 0 -101 40t-37 106q0 65 43 133q50 80 146 127zM358 977q-92 -57 -133 -121q47 0 82 -34t35 -83q0 -47 -36 -84t-87 -37q-63 0 -100 40t-37 106q0 65 43 133q49 80 145 127z" />
<glyph unicode="&#x201d;" horiz-adv-x="745" d="M664 879q0 -66 -41 -134q-52 -79 -148 -127l-88 48q92 57 133 120q-47 0 -82 34t-35 83t37 85t86 36q64 0 101 -40t37 -105zM342 879q0 -66 -41 -134q-51 -79 -147 -127l-88 48q92 57 133 120q-47 0 -82 34t-35 83t37 85t86 36q63 0 100 -40t37 -105z" />
<glyph unicode="&#x2022;" horiz-adv-x="737" d="M676 410q0 -127 -90 -217.5t-217 -90.5t-217.5 90.5t-90.5 217.5t90.5 217t217.5 90t217 -90t90 -217z" />
<glyph unicode="&#x2026;" horiz-adv-x="1149" d="M1067 94q0 -45 -33 -75.5t-78 -30.5t-76.5 30.5t-31.5 75.5t31.5 77t76.5 32t78 -32t33 -77zM684 94q0 -45 -33 -75.5t-78 -30.5t-76.5 30.5t-31.5 75.5t31.5 77t76.5 32t78 -32t33 -77zM301 94q0 -45 -32.5 -75.5t-78.5 -30.5q-45 0 -76.5 30.5t-31.5 75.5t31.5 77 t76.5 32q46 0 78.5 -32t32.5 -77z" />
<glyph unicode="&#xe000;" horiz-adv-x="725" d="M0 725h725v-725h-725v725z" />
<glyph unicode="&#xf700;" horiz-adv-x="717" d="M676 424q0 -432 -453 -432q-69 0 -151 10v498l-31 92h207v-447q252 0 252 273q0 127 -86 196.5t-232 69.5q-76 0 -159 -18v143q100 20 190 20q115 0 205 -32l26 53h193l-84 -133q123 -107 123 -293z" />
<glyph unicode="&#xf701;" d="M-317 922h-605l62 110h543v-110z" />
<glyph unicode="&#xf702;" d="M-317 922h-605l62 110h366v105h177v-215z" />
<glyph unicode="&#xf703;" d="M-270 1032q0 -49 -39 -79.5t-99 -30.5h-514l62 110h315q0 45 39 78t98 33q62 0 100 -32t38 -79zM-356 1032q0 45 -52 45q-49 0 -49 -45t49 -45q52 0 52 45z" />
<glyph unicode="&#xf704;" d="M-317 922h-605l62 110h190v105h115v-105h61v105h177v-215z" />
<glyph unicode="&#xf705;" d="M-309 922h-176v215h176v-215z" />
<glyph unicode="&#xf706;" d="M-150 1032l-61 -110h-389v45q0 53 -53 53h-49l61 113h115q102 0 102 -82v-19h274z" />
<glyph unicode="&#xf707;" d="M-158 1032l-61 -110h-240v96q0 53 -49 53h-8l-74 -53l-76 53q-51 0 -51 -47v-12h82v-90h-196v104q0 68 45 106.5t116 38.5h13l69 -47l64 47h18q70 0 115 -36.5t47 -102.5h186z" />
<glyph unicode="&#xf708;" d="M-297 1020h-104v-98h-177v98h-104v76h104v98h177v-98h104v-76z" />
<glyph unicode="&#xf709;" d="M-252 1108l-61 -111h-60q-67 0 -67 -59v-16h-181v55q0 59 44.5 95t113.5 36h211z" />
<glyph unicode="&#xf70a;" d="M-59 922h-177v215h177v-215z" />
<glyph unicode="&#xf70b;" d="M78 1032l-62 -110h-387v45q0 53 -53 53h-49l61 113h115q102 0 102 -82v-19h273z" />
<glyph unicode="&#xf70c;" d="M-23 1032l-61 -110h-190v96q0 53 -50 53h-8l-74 -53l-75 53q-51 0 -51 -47v-12h81v-90h-196v104q0 68 45 106.5t117 38.5h12l70 -47l63 47h18q70 0 115 -36.5t47 -102.5h137z" />
<glyph unicode="&#xf70d;" d="M-59 1020h-105v-98h-176v98h-104v76h104v98h176v-98h105v-76z" />
<glyph unicode="&#xf70e;" d="M20 1108l-59 -111h-59q-68 0 -68 -59v-16h-180v55q0 59 44 95t114 36h208z" />
<glyph unicode="&#xf70f;" horiz-adv-x="1237" d="M1176 225q0 -237 -308 -237q-307 0 -307 237v344q0 64 -55 97q-45 28 -113 28q-123 0 -174 -73l90 -46q-71 -36 -71 -122v-322h86v-131h-263v449q0 73 72 104l-110 51q32 119 149 180q94 50 221 50q139 0 234 -60q110 -69 110 -203v-333q0 -109 131 -109t131 109v581h177 v-594z" />
<glyph unicode="&#xf710;" d="M59 1032l-59 -110h-635v190h178v-80h516z" />
<glyph unicode="&#xf711;" d="M-270 1028q0 -49 -39 -82t-99 -33q-59 0 -98 33t-39 82t39 82t98 33q60 0 99 -33t39 -82zM-354 1028q0 45 -54 45q-53 0 -53 -45t53 -45q54 0 54 45z" />
<glyph unicode="&#xf712;" d="M-188 1231l-68 -111h-344q-105 0 -105 -55q0 -31 13 -39l170 64l227 -80v-115l-225 84l-209 -74q-113 31 -113 156q0 67 51 117q60 53 158 53h445z" />
<glyph unicode="&#xf713;" d="M-317 1198h-177v174h177v-174z" />
<glyph unicode="&#xf714;" d="M-150 1296l-55 -98h-350v41q0 47 -47 47h-45l55 103h105q92 0 92 -74v-19h245z" />
<glyph unicode="&#xf715;" d="M-74 1298l-55 -100h-170v86q0 49 -45 49h-6l-68 -49l-67 49q-47 0 -47 -43v-10h73v-82h-176v94q0 60 41 95.5t105 35.5h12l61 -43l58 43h16q141 0 145 -125h123z" />
<glyph unicode="&#xf716;" d="M-246 1276h-80v-78h-159v78h-80v67h80v78h159v-78h80v-67z" />
<glyph unicode="&#xf717;" d="M-211 1280l-55 -98h-53q-62 0 -62 -54v-14h-162v49q0 54 40 85.5t102 31.5h190z" />
<glyph unicode="&#xf718;" d="M-59 -612h-177v133h-102l41 123h238v-256z" />
<glyph unicode="&#xf719;" d="M-59 -487q0 -146 -213 -146t-213 146v8h-82l41 123h196v-117q0 -41 47 -41t47 41v117h177v-131z" />
<glyph unicode="&#xf71a;" d="M-59 -471q0 -47 -35 -81t-80 -34q-47 0 -81 34t-34 81q0 45 34 80t81 35q45 0 80 -35t35 -80z" />
<glyph unicode="&#xf71b;" d="M0 -3v1211h-478v-1211h478z" />
<glyph unicode="&#xf71c;" horiz-adv-x="512" />
<glyph unicode="&#xf71d;" horiz-adv-x="512" d="M464 -191v191h-416v-191h34v72q17 11 36 17t40 6h187q53 0 86 -27v-68h33z" />
<glyph horiz-adv-x="1599" d="M100 0h1399v1599h-1399v-1599zM1401 100h-1200v1399h1200v-1399z" />
<glyph horiz-adv-x="512" />
</font>
</defs>
</svg>
