<?xml version="1.0" standalone="no"?>
<!DOCTYPE svg PUBLIC "-//W3C//DTD SVG 20010904//EN"
 "http://www.w3.org/TR/2001/REC-SVG-20010904/DTD/svg10.dtd">
<svg version="1.0" xmlns="http://www.w3.org/2000/svg"
 width="260.000000pt" height="260.000000pt" viewBox="0 0 260.000000 260.000000"
 preserveAspectRatio="xMidYMid meet">
<metadata>
Created by potrace 1.11, written by Peter Selinger 2001-2013
</metadata>
<g transform="translate(0.000000,260.000000) scale(0.100000,-0.100000)"
fill="#000000" stroke="none">
<path d="M200 1345 l0 -685 213 2 212 3 0 333 c0 182 3 332 6 332 3 0 11 -10
17 -22 6 -13 107 -162 224 -333 l213 -310 188 -3 187 -2 0 685 0 685 -191 -2
-190 -3 1 -339 c0 -187 -3 -336 -7 -332 -5 4 -109 157 -233 339 l-225 332
-208 3 -207 2 0 -685z"/>
<path d="M1578 2025 c-5 -5 -8 -75 -8 -157 l0 -148 73 -1 c168 -1 214 -21 224
-97 11 -85 -39 -118 -196 -128 l-101 -7 0 -141 0 -142 33 -12 c19 -7 43 -22
54 -35 11 -12 75 -123 143 -247 67 -124 127 -231 133 -237 7 -10 71 -13 258
-13 137 0 249 3 249 8 0 13 -219 422 -257 479 -20 31 -56 70 -80 87 l-43 30
44 21 c77 37 130 89 172 167 39 73 39 73 39 188 0 98 -4 122 -23 165 -46 101
-145 178 -255 201 -79 16 -448 31 -459 19z"/>
</g>
</svg>
