<svg xmlns="http://www.w3.org/2000/svg" width="26.342" height="22.47" viewBox="0 0 26.342 22.47">
  <g id="home_header-icon" transform="translate(-1929.244 -843.629)">
    <path id="Path_380" data-name="Path 380" d="M1968.431,907.112c-.02,0-1.005-.661-2.19-1.468l-7.9-5.389a.469.469,0,0,0-.5,0l-7.884,5.387c-1.183.808-2.168,1.47-2.188,1.47s-.036.989-.036,2.2v6.541a.341.341,0,0,0,.377.286h6.42a.341.341,0,0,0,.377-.286v-6.759a.707.707,0,0,1,.781-.594h4.812a.707.707,0,0,1,.781.594v6.759a.341.341,0,0,0,.377.286h6.441a.341.341,0,0,0,.377-.286V909.31C1968.468,908.1,1968.451,907.112,1968.431,907.112Z" transform="translate(-15.666 -50.938)" fill="none" stroke="#8c7d77" stroke-width="1.8"/>
    <path id="Path_381" data-name="Path 381" d="M1296.951,38.856l11.851-8.381,11.983,8.381" transform="translate(633.547 814.055)" fill="none" stroke="#8c7d77" stroke-linecap="round" stroke-linejoin="round" stroke-width="1.8"/>
  </g>
</svg>
