<svg id="instagram_icon2" xmlns="http://www.w3.org/2000/svg" width="31.594" height="31.619" viewBox="0 0 31.594 31.619">
  <path id="Path_189" data-name="Path 189" d="M22.3,6.517c-6.47,0-12.615-.576-14.962,5.448-.969,2.488-.829,5.718-.829,10.345,0,4.059-.13,7.875.829,10.343C9.684,38.679,15.879,38.1,22.3,38.1c6.2,0,12.585.645,14.96-5.449.971-2.513.829-5.7.829-10.343,0-6.169.34-10.152-2.652-13.142-3.029-3.029-7.126-2.65-13.141-2.65ZM20.89,9.363c13.5-.021,15.215-1.522,14.267,19.322-.337,7.372-5.95,6.563-12.85,6.563-12.581,0-12.943-.36-12.943-12.946,0-12.732,1-12.932,11.526-12.943Zm9.844,2.621a1.894,1.894,0,1,0,1.894,1.894A1.894,1.894,0,0,0,30.734,11.984ZM22.3,14.2a8.109,8.109,0,1,0,8.106,8.11A8.109,8.109,0,0,0,22.3,14.2Zm0,2.846c6.959,0,6.968,10.528,0,10.528S15.337,17.045,22.3,17.045Z" transform="translate(-6.507 -6.502)" fill="#f2e2df"/>
</svg>
