<svg xmlns="http://www.w3.org/2000/svg" width="22.394" height="22.412" viewBox="0 0 22.394 22.412">
  <g id="instagram" transform="translate(-5.541 -5.496)">
    <path id="Path_189" data-name="Path 189" d="M17.7,6.513c-4.586,0-8.941-.408-10.6,3.861-.687,1.763-.587,4.053-.587,7.332,0,2.877-.092,5.582.587,7.331,1.66,4.272,6.05,3.863,10.6,3.863,4.392,0,8.92.457,10.6-3.863.688-1.781.587-4.037.587-7.331,0-4.373.241-7.2-1.879-9.315C24.866,6.244,21.962,6.513,17.7,6.513Zm-1,2.017c9.567-.015,10.784-1.079,10.112,13.7-.239,5.225-4.217,4.652-9.108,4.652-8.917,0-9.174-.255-9.174-9.176,0-9.025.707-9.166,8.17-9.174Zm6.977,1.858a1.343,1.343,0,1,0,1.343,1.343A1.343,1.343,0,0,0,23.679,10.388ZM17.7,11.958a5.748,5.748,0,1,0,5.746,5.748A5.748,5.748,0,0,0,17.7,11.958Zm0,2.017c4.932,0,4.939,7.462,0,7.462S12.766,13.975,17.7,13.975Z" transform="translate(-0.966 -1.006)" fill="#8c7d77"/>
  </g>
</svg>
