<svg xmlns="http://www.w3.org/2000/svg" width="22.78" height="21.73" viewBox="0 0 22.78 21.73">
  <g id="line" transform="translate(-280.61 -3108.135)">
    <g id="line-2" data-name="line" transform="translate(219.586 3038.089)">
      <g id="Group_7" data-name="Group 7" transform="translate(61.024 70.046)">
        <path id="Subtraction_6" data-name="Subtraction 6" d="M10.816,21.73a.624.624,0,0,1-.617-.7l.237-2.156a.625.625,0,0,0-.134-.462.61.61,0,0,0-.416-.227,12.433,12.433,0,0,1-7.036-3.01A8.181,8.181,0,0,1,0,9.133C0,4.1,5.109,0,11.388,0c6.1,0,11.1,3.826,11.374,8.71a8.716,8.716,0,0,1,.011.891,5.828,5.828,0,0,1-.09.7,7.717,7.717,0,0,1-.87,2.517c-.2.362-1.2,1.777-1.509,2.153a27.233,27.233,0,0,1-9.216,6.7A.615.615,0,0,1,10.816,21.73ZM16.047,6.549a.586.586,0,0,0-.584.587v4.435a.586.586,0,0,0,.584.587h2.329a.588.588,0,0,0,0-1.175H16.63V9.942h1.747a.588.588,0,0,0,0-1.175H16.63V7.724h1.747a.587.587,0,0,0,0-1.174ZM11.213,8.879l0,0c.241.316,2.359,3.085,2.393,3.116a.576.576,0,0,0,.395.161.608.608,0,0,0,.587-.613V7.137a.582.582,0,1,0-1.164,0V9.846c-.037-.051-2.33-3.065-2.362-3.1a.58.58,0,0,0-.435-.2h-.022a.6.6,0,0,0-.56.611v4.411a.583.583,0,1,0,1.165,0V8.879ZM8.464,6.549a.457.457,0,0,0-.455.459V11.7a.457.457,0,0,0,.455.459h.255a.457.457,0,0,0,.456-.459V7.008a.457.457,0,0,0-.456-.459Zm-3.921,0a.585.585,0,0,0-.582.587v4.435a.585.585,0,0,0,.582.587H6.873a.588.588,0,0,0,0-1.175H5.127V7.137A.586.586,0,0,0,4.543,6.549Z" fill="#8c7d77"/>
      </g>
    </g>
  </g>
</svg>
