<svg id="line_icon2" xmlns="http://www.w3.org/2000/svg" width="32.139" height="30.657" viewBox="0 0 32.139 30.657">
  <g id="line" transform="translate(0 0)">
    <g id="Group_7" data-name="Group 7" transform="translate(0 0)">
      <path id="Subtraction_6" data-name="Subtraction 6" d="M15.26,30.657a.881.881,0,0,1-.87-.981l.335-3.042a.882.882,0,0,0-.189-.652.86.86,0,0,0-.587-.321,17.542,17.542,0,0,1-9.926-4.247A11.542,11.542,0,0,1,0,12.885C0,5.78,7.208,0,16.066,0,24.672,0,31.72,5.4,32.113,12.288a12.3,12.3,0,0,1,.015,1.258,8.221,8.221,0,0,1-.127.981,10.887,10.887,0,0,1-1.228,3.551c-.281.511-1.691,2.508-2.128,3.038-2.847,3.459-7.223,6.64-13,9.452A.868.868,0,0,1,15.26,30.657ZM22.64,9.24a.827.827,0,0,0-.824.828v6.258a.827.827,0,0,0,.824.828h3.286a.829.829,0,0,0,0-1.658H23.462V14.026h2.465a.829.829,0,0,0,0-1.658H23.462V10.9h2.465a.828.828,0,0,0,0-1.656ZM15.82,12.526l0,0c.341.445,3.329,4.352,3.376,4.4a.813.813,0,0,0,.557.227.858.858,0,0,0,.828-.865V10.068a.821.821,0,1,0-1.643,0v3.822c-.052-.072-3.287-4.324-3.332-4.374A.819.819,0,0,0,15,9.24h-.031a.851.851,0,0,0-.789.863v6.223a.822.822,0,1,0,1.644,0v-3.8ZM11.941,9.24a.645.645,0,0,0-.641.647v6.62a.645.645,0,0,0,.641.647h.36a.645.645,0,0,0,.643-.647V9.887A.645.645,0,0,0,12.3,9.24Zm-5.531,0a.826.826,0,0,0-.821.828v6.258a.826.826,0,0,0,.821.828H9.7a.829.829,0,0,0,0-1.658H7.233V10.068A.827.827,0,0,0,6.41,9.24Z" fill="#f2e2df"/>
    </g>
  </g>
</svg>
