<svg xmlns="http://www.w3.org/2000/svg" width="20.167" height="27.016" viewBox="0 0 20.167 27.016">
  <g id="location_icon" transform="translate(-136.75 -287.75)">
    <path id="Path_17" data-name="Path 17" d="M146.834,314.424l-.373-.348c-.386-.361-9.46-8.917-9.46-16.242a9.834,9.834,0,1,1,19.667,0c0,7.325-9.074,15.882-9.46,16.242Zm0-25.331a8.751,8.751,0,0,0-8.741,8.741c0,6.045,7.027,13.382,8.741,15.081,1.714-1.7,8.741-9.035,8.741-15.081A8.751,8.751,0,0,0,146.834,289.093Z" fill="#8c7d77" stroke="#8c7d77" stroke-width="0.5"/>
    <path id="Path_18" data-name="Path 18" d="M150.69,306.88a5.19,5.19,0,1,1,5.19-5.19A5.2,5.2,0,0,1,150.69,306.88Zm0-9.287a4.1,4.1,0,1,0,4.1,4.1A4.1,4.1,0,0,0,150.69,297.593Z" transform="translate(-3.856 -3.856)" fill="#8c7d77" stroke="#8c7d77" stroke-width="0.5"/>
  </g>
</svg>
