<svg xmlns="http://www.w3.org/2000/svg" width="89.025" height="80" viewBox="0 0 89.025 80">
  <g id="Group_2" data-name="Group 2" transform="translate(-25.366 -19.542)">
    <path id="Path_3" data-name="Path 3" d="M74.161,19.61H59.9V45.164L41.743,19.61H25.366v54.9H42.7V49.654L60.512,74.511H74.161Z" transform="translate(0 -0.036)" fill="#8c7d77"/>
    <path id="Path_4" data-name="Path 4" d="M167.432,60.5a57.9,57.9,0,0,0-5.939-8.433q-.462-.5-.974-.985a15.415,15.415,0,0,0,5.378-3.818A16.061,16.061,0,0,0,169.852,36.2a17.181,17.181,0,0,0-2.568-9.286,14.056,14.056,0,0,0-7.079-5.868c-2.7-1.012-6.739-1.5-12.339-1.5h-5.814V32.565h2.585c5.666,0,7.039.118,7.284.154a3.438,3.438,0,0,1,2.2,1.174,4.062,4.062,0,0,1,.671,2.551,4.781,4.781,0,0,1-.547,2.486,2.732,2.732,0,0,1-1.44,1.174c-.238.09-1.776.54-8.6.54h-2.152V54.114c.631.026.9.068,1.238.1a3.773,3.773,0,0,1,2.2,1.02c.863.765,2.059,2.569,4.884,6.884l7.767,12.353h17.956Z" transform="translate(-61.76)" fill="#8c7d77"/>
    <path id="Path_5" data-name="Path 5" d="M25.366,167.2V147.371h2.691L38.472,162.94V147.371h2.516V167.2H38.3L27.882,151.618V167.2Z" transform="translate(0 -67.658)" fill="#8c7d77"/>
    <path id="Path_6" data-name="Path 6" d="M63.295,167.2l7.615-19.829h2.827L81.852,167.2h-2.99l-2.313-6.005H68.259L66.082,167.2Zm5.722-8.142h6.722l-2.07-5.491q-.947-2.5-1.406-4.112a25.316,25.316,0,0,1-1.069,3.787Z" transform="translate(-20.075 -67.658)" fill="#8c7d77"/>
    <path id="Path_7" data-name="Path 7" d="M118.406,161.8a13.629,13.629,0,0,0-2.178-2.638,6.833,6.833,0,0,0-1.582-.987,6.913,6.913,0,0,0,4.22-1.84,4.987,4.987,0,0,0,1.366-3.557,5.635,5.635,0,0,0-.825-2.99,4.407,4.407,0,0,0-2.205-1.886,11.692,11.692,0,0,0-4.03-.535h-6.035v2.192h6.143a4.78,4.78,0,0,1,3.226.906,2.954,2.954,0,0,1,1.021,2.313A3.219,3.219,0,0,1,117,154.56a2.993,2.993,0,0,1-1.543,1.19,8.441,8.441,0,0,1-2.813.372h-5.508v2.272h2.911a7.872,7.872,0,0,1,1.461.1,3.949,3.949,0,0,1,1.2.527,5.979,5.979,0,0,1,1.332,1.325q.743.948,1.893,2.733l2.624,4.125h3.3Z" transform="translate(-43.28 -67.658)" fill="#8c7d77"/>
    <path id="Path_8" data-name="Path 8" d="M143.808,167.2V147.371h14.337v2.34H146.431v6.073H157.4v2.326H146.431v6.75H158.6v2.34Z" transform="translate(-62.689 -67.658)" fill="#8c7d77"/>
    <path id="Path_9" data-name="Path 9" d="M183.058,167.2V147.371H197.4v2.34H185.681v6.073h10.969v2.326H185.681v6.75h12.173v2.34Z" transform="translate(-83.464 -67.658)" fill="#8c7d77"/>
  </g>
</svg>
