<svg xmlns="http://www.w3.org/2000/svg" width="194.951" height="175.188" viewBox="0 0 194.951 175.188">
  <g id="Naree_logo2" transform="translate(-25.366 -19.542)">
    <path id="Path_3" data-name="Path 3" d="M132.22,19.61h-31.23V75.569L61.229,19.61H25.366V139.834H63.32V85.4l39.011,54.432H132.22Z" transform="translate(0 0.002)" fill="#fff"/>
    <path id="Path_4" data-name="Path 4" d="M197.63,109.24c-5.41-8.81-9.663-14.851-13.006-18.468q-1.013-1.1-2.133-2.157a33.757,33.757,0,0,0,11.778-8.362c5.746-6.429,8.661-14.582,8.661-24.231a37.623,37.623,0,0,0-5.624-20.335,30.78,30.78,0,0,0-15.5-12.851c-5.919-2.216-14.758-3.294-27.021-3.294H142.052V48.06h5.661c12.408,0,15.413.258,15.951.338a7.528,7.528,0,0,1,4.823,2.572,8.894,8.894,0,0,1,1.469,5.587,10.469,10.469,0,0,1-1.2,5.445,5.982,5.982,0,0,1-3.153,2.571c-.522.2-3.888,1.183-18.839,1.183h-4.713V95.249c1.381.057,1.981.149,2.712.228a8.261,8.261,0,0,1,4.811,2.234c1.889,1.675,4.51,5.626,10.694,15.074l17.008,27.052H216.6Z" transform="translate(3.593)" fill="#fff"/>
    <path id="Path_5" data-name="Path 5" d="M25.366,190.794V147.371H31.26l22.806,34.092V147.371h5.51v43.422H53.682L30.875,156.671v34.123Z" transform="translate(0 3.937)" fill="#fff"/>
    <path id="Path_6" data-name="Path 6" d="M63.295,190.793,79.97,147.371h6.191l17.772,43.422H97.386l-5.064-13.151H74.166L69.4,190.793Zm12.529-17.831H90.545l-4.532-12.025q-2.073-5.48-3.08-9.005a55.439,55.439,0,0,1-2.34,8.294Z" transform="translate(1.168 3.937)" fill="#fff"/>
    <path id="Path_7" data-name="Path 7" d="M131.815,178.975a29.845,29.845,0,0,0-4.77-5.777,14.963,14.963,0,0,0-3.464-2.162q6.248-.858,9.241-4.028a10.922,10.922,0,0,0,2.991-7.789,12.339,12.339,0,0,0-1.807-6.548,9.65,9.65,0,0,0-4.829-4.13,25.6,25.6,0,0,0-8.826-1.171H107.136v4.8h13.453q4.827,0,7.065,1.984a6.47,6.47,0,0,1,2.236,5.065,7.049,7.049,0,0,1-1.154,3.894,6.554,6.554,0,0,1-3.378,2.606,18.484,18.484,0,0,1-6.16.814H107.136v4.976h6.374a17.241,17.241,0,0,1,3.2.209,8.648,8.648,0,0,1,2.621,1.154,13.093,13.093,0,0,1,2.917,2.9q1.628,2.077,4.146,5.985l5.746,9.034h7.228Z" transform="translate(2.518 3.937)" fill="#fff"/>
    <path id="Path_8" data-name="Path 8" d="M143.808,190.794V147.371h31.4V152.5h-25.65v13.3h24.02v5.094h-24.02v14.78H176.21v5.125Z" transform="translate(3.648 3.937)" fill="#fff"/>
    <path id="Path_9" data-name="Path 9" d="M183.058,190.794V147.371h31.4V152.5H188.8v13.3h24.021v5.094H188.8v14.78h26.658v5.125Z" transform="translate(4.856 3.937)" fill="#fff"/>
  </g>
</svg>
