<svg xmlns="http://www.w3.org/2000/svg" width="30.37" height="22.74" viewBox="0 0 30.37 22.74">
  <g id="Register" transform="translate(-709.287 -49.745)">
    <path id="Union_1" data-name="Union 1" d="M-3220.6,40.191a3.158,3.158,0,0,1,.237-1.207h-8.536a3.163,3.163,0,0,1,.237,1.207,2.959,2.959,0,0,1-2.88,3.034,2.959,2.959,0,0,1-2.879-3.034,2.959,2.959,0,0,1,2.879-3.033c.058,0,.116,0,.174.005h13.135V35.87h-15.7L-3241,26.04h23.355V22.873l6.441-2.388.574,1.717-5.288,1.96V35.87h-.586v1.571a3.048,3.048,0,0,1,1.663,2.749,2.959,2.959,0,0,1-2.88,3.034A2.958,2.958,0,0,1-3220.6,40.191Zm1.727,0a1.185,1.185,0,0,0,1.152,1.213,1.184,1.184,0,0,0,1.152-1.213,1.194,1.194,0,0,0-1.032-1.207h-.24A1.194,1.194,0,0,0-3218.873,40.191Zm-13.82,0a1.184,1.184,0,0,0,1.151,1.213,1.184,1.184,0,0,0,1.152-1.213,1.194,1.194,0,0,0-1.031-1.207h-.214v0A1.192,1.192,0,0,0-3232.692,40.191Zm-.385-6.141h15.432V27.861h-19.881Z" transform="translate(3950.287 29.26)" fill="#8c7d77"/>
  </g>
</svg>
