<svg xmlns="http://www.w3.org/2000/svg" width="26.338" height="30.388" viewBox="0 0 26.338 30.388">
  <path id="tiktok-icon2" d="M71.017,22.5a6.915,6.915,0,0,1-.6-.348,8.411,8.411,0,0,1-1.536-1.305,7.246,7.246,0,0,1-1.731-3.572h.006A4.4,4.4,0,0,1,67.088,16H61.869V36.181c0,.271,0,.539-.011.8,0,.033,0,.063-.005.1a.217.217,0,0,1,0,.045v.011a4.431,4.431,0,0,1-2.23,3.517,4.355,4.355,0,0,1-2.159.57,4.432,4.432,0,0,1,0-8.863,4.362,4.362,0,0,1,1.355.215l.006-5.314a9.7,9.7,0,0,0-7.47,2.185,10.242,10.242,0,0,0-2.235,2.756,9.549,9.549,0,0,0-1.152,4.383,10.345,10.345,0,0,0,.56,3.465v.013a10.2,10.2,0,0,0,1.417,2.584A10.606,10.606,0,0,0,52.2,44.783V44.77l.013.013a9.765,9.765,0,0,0,5.328,1.6,9.432,9.432,0,0,0,3.954-.874A9.923,9.923,0,0,0,64.709,43.1a10.032,10.032,0,0,0,1.75-2.908,10.892,10.892,0,0,0,.63-3.325V26.16c.063.038.907.6.907.6a12.071,12.071,0,0,0,3.11,1.286,17.911,17.911,0,0,0,3.192.437V23.3A6.768,6.768,0,0,1,71.017,22.5Z" transform="translate(-47.959 -16)" fill="#f2e2df"/>
</svg>
