<svg xmlns="http://www.w3.org/2000/svg" width="20.51" height="25.071" viewBox="0 0 20.51 25.071">
  <g id="user_add_icons" transform="translate(-701.422 -46)">
    <path id="Ellipse_2" data-name="Ellipse 2" d="M6.479,1.5a4.984,4.984,0,1,0,4.984,4.984A4.989,4.989,0,0,0,6.479,1.5m0-1.5A6.479,6.479,0,1,1,0,6.479,6.479,6.479,0,0,1,6.479,0Z" transform="translate(702.995 46)" fill="#8c7d77"/>
    <path id="Path_376" data-name="Path 376" d="M-3171.9,31.573H-3188l.028-.774a26.659,26.659,0,0,1,1.075-6.233c1.328-4.3,3.65-6.565,6.714-6.565.114,0,.225,0,.329.009a6.141,6.141,0,0,1,3.426,1.235,6.008,6.008,0,0,0-1.256.955,4.669,4.669,0,0,0-2.247-.7c-.08,0-.162-.006-.251-.006-2.375,0-4.154,1.855-5.286,5.512a25.434,25.434,0,0,0-.956,5.071h10.95a5.964,5.964,0,0,0,2.005.344,6,6,0,0,0,1.513-.193c.022.319.03.521.031.575l.021.767Z" transform="translate(3889.422 39.498)" fill="#8c7d77"/>
    <path id="Ellipse_3_-_Outline" data-name="Ellipse 3 - Outline" d="M5.98,1.5A4.485,4.485,0,1,0,10.465,5.98,4.49,4.49,0,0,0,5.98,1.5m0-1.5A5.98,5.98,0,1,1,0,5.98,5.98,5.98,0,0,1,5.98,0Z" transform="translate(709.972 57.96)" fill="#8c7d77"/>
    <path id="Line_4" data-name="Line 4" d="M5.451.745H0V-.75H5.451Z" transform="translate(713.227 63.943)" fill="#8c7d77"/>
    <path id="Line_5" data-name="Line 5" d="M.745,5.224H-.75V0h1.5Z" transform="translate(715.954 61.329)" fill="#8c7d77"/>
  </g>
</svg>
