<svg id="Whatsapp_icons2" xmlns="http://www.w3.org/2000/svg" width="31.328" height="31.328" viewBox="0 0 31.328 31.328">
  <path id="whatsapp-line-1" d="M93.561,111.169l1.134.663a12.527,12.527,0,1,0-4.532-4.532l.661,1.134L89.8,112.2l3.759-1.026Zm-8.222,5.492,2.118-7.782a15.657,15.657,0,1,1,5.661,5.659Zm10-23.013a5.313,5.313,0,0,1,.631-.006c.085.006.169.016.254.025a.79.79,0,0,1,.616.39q.7,1.588,1.36,3.2a.951.951,0,0,1-.146.841,6.855,6.855,0,0,1-.412.583c-.177.227-.558.644-.558.644a.5.5,0,0,0-.1.415,1.384,1.384,0,0,0,.16.321l.092.149a9.923,9.923,0,0,0,1.6,1.986c.188.182.371.368.569.542a9.414,9.414,0,0,0,2.459,1.566l.008,0c.133.058.2.089.395.172a2.25,2.25,0,0,0,.3.1.548.548,0,0,0,.575-.2,18.307,18.307,0,0,1,1.247-1.463v0a.755.755,0,0,1,.592-.2.81.81,0,0,1,.277.063c.832.381,2.193.974,2.193.974l.912.409a.528.528,0,0,1,.3.415,3.026,3.026,0,0,1-.02.584,4.362,4.362,0,0,1-.294,1.148,1.809,1.809,0,0,1-.329.473,3.724,3.724,0,0,1-.517.451q-.1.073-.2.141-.292.185-.6.345a3.117,3.117,0,0,1-1.3.36,8.073,8.073,0,0,1-.871.022c-.012,0-.89-.136-.89-.136a14.8,14.8,0,0,1-6.015-3.2c-.354-.312-.681-.647-1.017-.981a14.9,14.9,0,0,1-3.086-4.3,5.435,5.435,0,0,1-.518-2.215,4.275,4.275,0,0,1,.883-2.632,3.7,3.7,0,0,1,.409-.478,1.994,1.994,0,0,1,.461-.357,1.505,1.505,0,0,1,.581-.157Z" transform="translate(-85.333 -85.333)" fill="#f2e2df"/>
</svg>
