<?xml version="1.0" standalone="no"?>
<!DOCTYPE svg PUBLIC "-//W3C//DTD SVG 1.1//EN" "http://www.w3.org/Graphics/SVG/1.1/DTD/svg11.dtd" >
<svg xmlns="http://www.w3.org/2000/svg">
<metadata></metadata>
<defs>
<font id="db_sathorn_xregular" horiz-adv-x="0" >
<font-face units-per-em="2048" ascent="1638" descent="-410" />
<missing-glyph horiz-adv-x="512" />
<glyph unicode="&#x2b;&#x2d;" horiz-adv-x="1181" d="M164 0v111h856v-111h-856zM166 629v102h375v354h102v-354h375v-102h-375v-355h-102v355h-375z" />
<glyph unicode="&#x2e;&#x2e;&#x2e;" horiz-adv-x="1042" d="M104 0v139h146v-139h-146zM449 0v139h145v-139h-145zM793 0v139h145v-139h-145z" />
<glyph unicode="&#x3c;&#x3d;" horiz-adv-x="1060" d="M137 371v131l807 -316v-120zM137 616v140l807 305v-123l-670 -248l670 -258v-121z" />
<glyph unicode="&#x3e;&#x3d;" horiz-adv-x="1060" d="M131 66v120l807 314v-129zM131 311v121l670 258l-670 248v123l807 -305v-140z" />
<glyph unicode="&#xe4f;&#x22;" horiz-adv-x="1024" d="M102 426q0 84 33 159t88 130t130 88t159 33q86 0 161 -33t130 -88t88 -130t33 -159q0 -86 -33 -161t-88 -130t-130 -88t-161 -33q-84 0 -159 33t-130 88t-88 130t-33 161zM180 426q0 -69 26 -130q27 -63 70 -106q42 -42 106 -71q60 -27 130 -27t130 27q64 29 106 71 t71 106q27 60 27 130t-27 130q-29 64 -71 106t-106 71q-60 27 -130 27t-130 -27q-64 -29 -106 -71q-43 -43 -70 -106q-26 -61 -26 -130zM279 426q0 49 18 91t50 74t74 50t91 18t91 -18t74 -50t50 -74t18 -91t-18 -91t-50 -74t-74 -50t-91 -18t-91 18t-74 50t-50 74t-18 91z M342 426q0 -72 49 -121t121 -49t121 49t49 121t-49 121t-121 49t-121 -49t-49 -121zM348 1243h121l-29 -336h-69zM555 1243h121l-29 -336h-69z" />
<glyph unicode="&#xe0e;&#xe3a;" horiz-adv-x="907" d="M35 0v82h90v414q0 69 11 106q13 43 54 86q-1 0 -4.5 1.5t-5.5 2.5t-5.5 2.5t-4.5 1.5q-22 9 -49 9v55q24 21 61 37q35 16 92 34q50 16 107 27q53 10 108 10q62 0 116 -12q52 -11 96 -40q43 -28 67 -71q25 -45 25 -104v-717q0 -34 -12 -70q-13 -38 -36 -64 q-24 -27 -62 -45q-35 -17 -91 -17h-182l-86 86l-86 -86h-185v86h156l115 114l114 -114h107q25 0 44 4q22 5 39 19q16 13 27 47q11 33 11 85v643q0 76 -46 125t-147 49q-49 0 -87 -14q-43 -16 -69 -38q-29 -24 -45 -55t-16 -69v-610h-221zM645 -457q0 35 22 57q21 21 56 21 t56 -21q22 -22 22 -57q0 -34 -22 -56t-56 -22t-56 22t-22 56z" />
<glyph unicode="&#xe0f;&#xe3a;" horiz-adv-x="907" d="M35 0v82h90v414q0 69 11 106q13 43 54 86q-1 0 -4.5 1.5t-5.5 2.5t-5.5 2.5t-4.5 1.5q-22 9 -49 9v55q24 21 61 37q35 16 92 34q50 16 107 27q53 10 108 10q62 0 116 -12q52 -11 96 -40q43 -28 67 -71q25 -45 25 -104v-717q0 -31 -13 -70q-12 -36 -37 -64 q-24 -27 -63 -45q-37 -17 -90 -17h-53l-86 86l-86 -86h-58l-86 86l-86 -86h-82v86h53l115 114l115 -114l115 114l114 -114q47 0 74 28t27 107v663q0 76 -46 125t-147 49q-49 0 -87 -14q-43 -16 -69 -38q-29 -24 -45 -55t-16 -69v-610h-221zM645 -457q0 35 22 57q21 21 56 21 t56 -21q22 -22 22 -57q0 -34 -22 -56t-56 -22t-56 22t-22 56z" />
<glyph unicode="&#xe0e;&#xe38;" horiz-adv-x="907" d="M35 0v82h90v414q0 69 11 106q13 43 54 86q-1 0 -4.5 1.5t-5.5 2.5t-5.5 2.5t-4.5 1.5q-22 9 -49 9v55q24 21 61 37q35 16 92 34q50 16 107 27q53 10 108 10q62 0 116 -12q52 -11 96 -40q43 -28 67 -71q25 -45 25 -104v-717q0 -34 -12 -70q-13 -38 -36 -64 q-24 -27 -62 -45q-35 -17 -91 -17h-182l-86 86l-86 -86h-185v86h156l115 114l114 -114h107q25 0 44 4q22 5 39 19q16 13 27 47q11 33 11 85v643q0 76 -46 125t-147 49q-49 0 -87 -14q-43 -16 -69 -38q-29 -24 -45 -55t-16 -69v-610h-221zM584 -461l26 84h109q35 0 54 -23 q20 -25 20 -63v-164h-113v123q0 43 -41 43h-55z" />
<glyph unicode="&#xe0f;&#xe38;" horiz-adv-x="907" d="M35 0v82h90v414q0 69 11 106q13 43 54 86q-1 0 -4.5 1.5t-5.5 2.5t-5.5 2.5t-4.5 1.5q-22 9 -49 9v55q24 21 61 37q35 16 92 34q50 16 107 27q53 10 108 10q62 0 116 -12q52 -11 96 -40q43 -28 67 -71q25 -45 25 -104v-717q0 -31 -13 -70q-12 -36 -37 -64 q-24 -27 -63 -45q-37 -17 -90 -17h-53l-86 86l-86 -86h-58l-86 86l-86 -86h-82v86h53l115 114l115 -114l115 114l114 -114q47 0 74 28t27 107v663q0 76 -46 125t-147 49q-49 0 -87 -14q-43 -16 -69 -38q-29 -24 -45 -55t-16 -69v-610h-221zM584 -461l26 84h109q35 0 54 -23 q20 -25 20 -63v-164h-113v123q0 43 -41 43h-55z" />
<glyph unicode="&#xe0e;&#xe39;" horiz-adv-x="907" d="M35 0v82h90v414q0 69 11 106q13 43 54 86q-1 0 -4.5 1.5t-5.5 2.5t-5.5 2.5t-4.5 1.5q-22 9 -49 9v55q24 21 61 37q35 16 92 34q50 16 107 27q53 10 108 10q62 0 116 -12q52 -11 96 -40q43 -28 67 -71q25 -45 25 -104v-717q0 -34 -12 -70q-13 -38 -36 -64 q-24 -27 -62 -45q-35 -17 -91 -17h-182l-86 86l-86 -86h-185v86h156l115 114l114 -114h107q25 0 44 4q22 5 39 19q16 13 27 47q11 33 11 85v643q0 76 -46 125t-147 49q-49 0 -87 -14q-43 -16 -69 -38q-29 -24 -45 -55t-16 -69v-610h-221zM317 -455l35 80h99q36 0 50 -23 q15 -24 15 -63v-57q0 -23 20 -38t56 -15q76 0 76 65v131h123v-133q0 -81 -49 -109q-50 -28 -152 -28q-98 0 -138 33t-40 67v43q0 47 -41 47h-54z" />
<glyph unicode="&#xe0f;&#xe39;" horiz-adv-x="907" d="M35 0v82h90v414q0 69 11 106q13 43 54 86q-1 0 -4.5 1.5t-5.5 2.5t-5.5 2.5t-4.5 1.5q-22 9 -49 9v55q24 21 61 37q35 16 92 34q50 16 107 27q53 10 108 10q62 0 116 -12q52 -11 96 -40q43 -28 67 -71q25 -45 25 -104v-717q0 -31 -13 -70q-12 -36 -37 -64 q-24 -27 -63 -45q-37 -17 -90 -17h-53l-86 86l-86 -86h-58l-86 86l-86 -86h-82v86h53l115 114l115 -114l115 114l114 -114q47 0 74 28t27 107v663q0 76 -46 125t-147 49q-49 0 -87 -14q-43 -16 -69 -38q-29 -24 -45 -55t-16 -69v-610h-221zM317 -455l35 80h99q36 0 50 -23 q15 -24 15 -63v-57q0 -23 20 -38t56 -15q76 0 76 65v131h123v-133q0 -81 -49 -109q-50 -28 -152 -28q-98 0 -138 33t-40 67v43q0 47 -41 47h-54z" />
<glyph unicode="&#xd;" horiz-adv-x="579" />
<glyph unicode=" "  horiz-adv-x="512" />
<glyph unicode="&#x09;" horiz-adv-x="512" />
<glyph unicode="&#xa0;" horiz-adv-x="512" />
<glyph unicode="!" horiz-adv-x="491" d="M156 1081h186l-61 -809h-68zM166 0v168h164v-168h-164z" />
<glyph unicode="&#x22;" horiz-adv-x="667" d="M113 750l90 434h145l-151 -434h-84zM348 750l92 434h146l-152 -434h-86z" />
<glyph unicode="#" horiz-adv-x="1024" d="M90 326l19 100h163l47 250h-163l18 100h164l59 305h103l-60 -305h230l57 305h104l-57 -305h160l-21 -100h-159l-47 -250h159l-20 -100h-160l-61 -326h-101l60 326h-230l-61 -326h-103l64 326h-164zM375 426h229l47 250h-229z" />
<glyph unicode="$" horiz-adv-x="1107" d="M90 315l129 29q28 -110 104 -178q75 -68 185 -84v467q-1 0 -39 9.5t-62 16.5q-62 17 -118 51q-59 36 -98 92t-39 152q0 82 28 139t78 98q48 40 114 61q67 22 136 26v106h117v-108q123 -16 215 -83q92 -66 131 -202l-131 -35q-17 82 -73 141q-57 60 -142 81v-424 q68 -12 139 -35q70 -23 123 -62t87 -97t34 -140q0 -66 -25 -128q-24 -60 -73 -109q-50 -50 -119 -79q-72 -30 -166 -36v-138h-117v138q-159 12 -265 89q-107 78 -153 242zM289 891q0 -49 18 -82q16 -30 49 -53q28 -20 71 -34q41 -14 81 -24v404q-104 -7 -162 -64 q-57 -56 -57 -147zM625 80q122 15 179 81q56 65 56 154t-65 135t-170 70v-440z" />
<glyph unicode="%" horiz-adv-x="1400" d="M104 897q0 57 15 114t43 100q29 44 75 71q45 26 111 26q68 0 113 -26q48 -28 78 -71q30 -44 45 -100q14 -53 14 -114q0 -59 -14 -111q-15 -56 -45 -99q-31 -45 -78 -72t-111 -27q-62 0 -109 27q-46 26 -77 72q-30 43 -45 99t-15 111zM219 897q0 -36 4 -72q5 -41 19 -76 q16 -38 40 -62q25 -25 68 -25q44 0 70 25q26 24 40 62q14 36 18 76q5 45 5 72q0 33 -5 78q-4 40 -20 76q-15 34 -42 58t-68 24q-40 0 -66 -24q-25 -24 -40 -58q-14 -33 -19 -76q-4 -36 -4 -78zM270 0l729 1182h134l-723 -1182h-140zM819 291q0 56 15 113q16 59 43 101 q29 44 74 70q47 27 112 27q67 0 113 -27q48 -28 77 -70q30 -43 45 -101q15 -57 15 -113q0 -55 -15 -111t-45 -99q-31 -46 -77 -72q-46 -27 -111 -27q-64 0 -110 27q-44 26 -76 72q-30 43 -45 99t-15 111zM934 291q0 -36 4 -72q5 -46 18 -77q15 -36 40 -61q26 -26 69 -26 q42 0 70 26q27 25 40 61t18 77q5 45 5 72q0 33 -5 78q-4 36 -21 75q-15 35 -42 59q-26 23 -67 23q-43 0 -67 -23t-40 -59q-13 -30 -18 -75q-4 -36 -4 -78z" />
<glyph unicode="&#x26;" horiz-adv-x="1380" d="M208 349q13 59 44 111q33 54 85 103q53 50 124 90l-107 142q-57 74 -53 157q0 46 18 90q17 40 54 76q34 32 84 52q51 20 108 20q60 0 111 -15q48 -14 89 -47q39 -31 59 -76q22 -49 22 -110q0 -103 -59 -173q-60 -71 -168 -132l296 -381q43 49 72 113q29 63 45 129 l119 -29q-27 -81 -73 -165q-42 -77 -97 -132q21 -27 48 -49q26 -22 42 -23q19 -3 61 -5q31 -1 85 14l-5 -105q-14 -2 -22 -3q-16 -2 -23 -3l-42 -3q-14 -1 -44 -1q-41 0 -87 20q-50 22 -95 80q-64 -52 -140 -80q-75 -28 -169 -28q-176 0 -266 72q-91 73 -115 180 q-12 57 -1 111zM344 240q8 -34 32 -64q26 -32 57 -54t75 -38q38 -14 82 -14q79 0 139 28q61 28 111 72l-324 412q-123 -77 -159 -160t-13 -182zM424 977q-10 -65 29 -115l110 -149q85 52 129 104q43 50 43 125q0 24 -6 53q-6 31 -24 54q-19 25 -52 40t-86 15q-65 0 -101 -39 t-42 -88z" />
<glyph unicode="'" horiz-adv-x="407" d="M100 748l90 436h136l-142 -436h-84z" />
<glyph unicode="(" horiz-adv-x="614" d="M121 551q0 109 25 210q26 103 69 195q44 94 100 171q54 75 121 139h82q-53 -65 -103 -155t-83 -180q-34 -92 -54 -190t-20 -184q0 -92 18 -191q17 -93 54 -196q34 -93 83 -183q50 -91 107 -155h-82q-68 62 -124 135q-56 74 -101 166q-44 92 -68 195q-24 105 -24 223z" />
<glyph unicode=")" horiz-adv-x="614" d="M98 -168q59 70 106 155q49 90 83 183q34 95 54 196q19 96 19 191q0 90 -19 184q-20 98 -54 190q-33 90 -83 180q-48 87 -104 155h82q67 -64 121 -139q56 -77 100 -171q43 -92 69 -195q26 -106 26 -210q0 -114 -25 -223q-24 -107 -67 -195q-43 -89 -102 -166 q-56 -73 -124 -135h-82z" />
<glyph unicode="*" horiz-adv-x="786" d="M104 928l39 116l224 -98l-27 238h123l-25 -238l217 98l39 -116l-233 -49l160 -177l-99 -71l-121 205l-120 -209l-99 71l162 181z" />
<glyph unicode="+" horiz-adv-x="1181" d="M166 424v102h375v355h102v-355h375v-102h-375v-354h-102v354h-375z" />
<glyph unicode="," horiz-adv-x="462" d="M117 -258l108 258h-80v178h181v-170l-146 -266h-63z" />
<glyph unicode="-" horiz-adv-x="790" d="M29 420v110h733v-110h-733z" />
<glyph unicode="." horiz-adv-x="462" d="M147 0v178h177v-178h-177z" />
<glyph unicode="/" horiz-adv-x="659" d="M131 -43l281 1225h116l-280 -1225h-117z" />
<glyph unicode="0" horiz-adv-x="962" d="M76 543q0 96 20 190q21 98 69 178q48 79 125 132t187 53q117 0 197 -53t129 -132t70 -178q22 -104 22 -190q0 -97 -23 -198q-23 -102 -71 -179q-51 -81 -126 -130q-77 -50 -186 -50q-110 0 -189 52q-80 53 -129 133q-51 84 -73 180q-22 97 -22 192zM221 543 q0 -72 10 -149q10 -80 39 -151t81 -119q53 -48 138 -48q82 0 131 46t79 117q29 69 40 151q11 85 11 153q0 53 -10 141q-9 78 -38 152q-28 71 -81 121q-54 51 -142 51q-82 0 -132 -50q-53 -53 -78 -120q-28 -74 -38 -152q-10 -76 -10 -143z" />
<glyph unicode="1" horiz-adv-x="962" d="M209 741v121q91 40 158 87q66 47 133 132h98v-981h213v-100h-563v100h215v777q-67 -56 -120 -81q-68 -32 -134 -55z" />
<glyph unicode="2" horiz-adv-x="962" d="M119 780q39 148 133 233t242 85q80 0 150 -29q68 -28 117 -77q48 -48 75 -111q26 -61 26 -133q0 -70 -16 -122q-16 -53 -44 -101q-26 -45 -68 -87q-43 -43 -85 -78l-311 -258h516v-102h-707v84l398 332q79 64 125 141q47 79 47 191q0 48 -16 99q-15 47 -44 84 q-29 36 -70 57q-44 22 -93 22q-52 0 -96 -22q-40 -20 -71 -57q-29 -35 -49 -84q-21 -51 -28 -102z" />
<glyph unicode="3" horiz-adv-x="962" d="M98 246l125 41q21 -102 92 -158q72 -57 170 -57q124 0 185 62t61 155q0 55 -20 94q-23 44 -55 69q-36 28 -76 42q-42 14 -88 16h-144v104h150q96 4 147 58q49 52 49 145q0 85 -54 138q-55 53 -146 53q-81 0 -148 -49q-66 -48 -88 -142l-129 35q37 126 137 186t228 60 q72 0 133 -21q63 -22 107 -57q46 -38 72 -90q25 -51 25 -119q0 -100 -55 -165q-56 -66 -147 -81v-4q47 -5 89 -25t78 -58q34 -35 55 -85q21 -49 21 -110q0 -54 -21 -106q-20 -50 -69 -94q-46 -42 -120 -69q-71 -26 -181 -26q-135 0 -240 63t-143 195z" />
<glyph unicode="4" horiz-adv-x="962" d="M59 252v90l496 739h168v-725h182v-104h-182v-252h-131v252h-533zM201 356h391v613z" />
<glyph unicode="5" horiz-adv-x="962" d="M100 244l123 47q29 -105 96 -162t160 -57q139 0 204 83t65 210q0 133 -71 209q-71 75 -183 75q-174 0 -246 -176l-121 27l41 581h639l-14 -96h-517l-24 -367q31 63 99 93q69 30 147 30q87 0 155 -28q69 -29 119 -80q49 -50 76 -120q26 -66 26 -148q0 -86 -29 -153 q-31 -71 -82 -119q-55 -52 -125 -78q-72 -27 -159 -27q-125 0 -225 59q-103 61 -154 197z" />
<glyph unicode="6" horiz-adv-x="962" d="M82 516q0 112 23 213q24 103 75 185q53 84 133 132q83 50 201 50q135 0 224 -62q90 -63 130 -178l-116 -33q-56 187 -238 187q-96 0 -155 -49q-60 -49 -94 -124q-33 -71 -47 -161q-13 -82 -13 -160q28 98 108 161q78 62 209 62q84 0 150 -28q67 -28 114 -80 q48 -52 73 -122q26 -72 26 -153q0 -80 -30 -147q-30 -68 -82 -117q-53 -50 -122 -77t-149 -27q-114 0 -193 46q-82 48 -130 121q-51 77 -74 169q-23 91 -23 192zM242 342q0 -49 16 -94q17 -48 49 -87q34 -41 81 -65q48 -24 114 -24q61 0 107 23t82 62q31 34 51 88 q18 49 18 105q0 75 -21 132t-54 93q-36 39 -77 56q-44 18 -86 18q-73 0 -124 -26q-53 -27 -87 -70t-52 -98q-17 -52 -17 -113z" />
<glyph unicode="7" horiz-adv-x="962" d="M125 985l14 96h717v-82q-86 -97 -158 -215q-71 -116 -124 -249q-51 -127 -79 -268q-28 -143 -24 -267h-141q0 144 30 279q30 134 86 260q54 122 131 237q78 117 160 209h-612z" />
<glyph unicode="8" horiz-adv-x="962" d="M63 285q0 54 23 100q22 44 60 79q36 33 86 58q48 24 102 41q-40 15 -82 41q-38 23 -69 56q-30 32 -48 72t-18 87q0 73 35 126q33 51 88 85q52 33 119 48q70 16 133 16q74 0 144 -19q69 -19 115 -52q49 -35 75 -83q28 -51 28 -111q0 -101 -52 -163q-54 -65 -163 -103 q53 -16 100 -39q49 -24 83 -55q36 -33 57 -76q20 -41 20 -98q0 -84 -37 -142q-39 -60 -96 -96q-58 -36 -135 -53q-74 -16 -154 -16q-77 0 -149 19q-76 20 -132 56q-58 37 -96 93q-37 55 -37 129zM197 283q0 -58 27 -98q25 -37 69 -65q41 -26 91 -38t97 -12q43 0 93 12 q51 12 93 38q41 25 70 63t29 91q0 55 -29 95q-29 39 -72 66q-45 28 -96 46q-66 23 -94 31q-39 -7 -92 -26q-50 -18 -91 -46q-43 -29 -69 -67t-26 -90zM254 831q0 -49 21 -85q20 -34 55 -61q34 -26 72 -43q43 -19 77 -30q8 3 36 14t45 18q45 19 83 42q40 25 65 57t25 80 q0 101 -70 146t-169 45q-48 0 -92 -12q-46 -13 -76 -33q-33 -22 -53 -58q-19 -34 -19 -80z" />
<glyph unicode="9" horiz-adv-x="962" d="M84 731q0 81 30 148t82 116q54 51 121 77q72 28 150 28q113 0 192 -46q83 -49 131 -121q49 -74 73 -169q24 -94 24 -193q0 -108 -24 -213q-23 -103 -75 -186q-50 -81 -133 -131q-82 -49 -200 -49q-137 0 -225 61q-90 63 -130 178l117 33q29 -93 87 -139q59 -47 157 -47 q93 0 152 51q60 52 94 129q33 73 45 158q12 84 12 155q-27 -95 -109 -160q-79 -63 -209 -63q-83 0 -150 29q-68 29 -114 80q-46 50 -72 121q-26 70 -26 153zM209 737q0 -78 20 -132q20 -55 55 -93t78 -55q47 -19 93 -19q67 0 117 26q53 27 85 68q35 45 53 99q17 52 17 114 q0 47 -16 94q-17 48 -49 88q-33 40 -82 64q-52 25 -113 25q-60 0 -108 -24q-46 -23 -81 -61q-33 -36 -52 -88q-17 -47 -17 -106z" />
<glyph unicode=":" horiz-adv-x="462" d="M143 0v178h176v-178h-176zM143 672v178h176v-178h-176z" />
<glyph unicode=";" horiz-adv-x="462" d="M115 -258l108 258h-80v180h181v-172l-146 -266h-63zM143 674v176h176v-176h-176z" />
<glyph unicode="&#x3c;" horiz-adv-x="1060" d="M137 453v139l807 305v-123l-670 -248l670 -258v-121z" />
<glyph unicode="=" horiz-adv-x="1165" d="M156 250v110h878v-110h-878zM156 590v110h878v-110h-878z" />
<glyph unicode="&#x3e;" horiz-adv-x="1060" d="M131 147v121l670 258l-670 248v123l807 -305v-139z" />
<glyph unicode="?" horiz-adv-x="1107" d="M195 778q23 155 117 237q95 83 249 83q68 0 134 -20t114 -58q49 -38 79 -96q30 -57 30 -131q0 -105 -62 -178q-62 -72 -184 -132q-55 -28 -70 -59q-16 -32 -16 -84v-84h-113v80q0 67 29 131t114 98q72 28 117 92q45 63 45 136q0 97 -54 159t-165 62q-57 0 -101 -21 q-47 -23 -76 -56q-30 -35 -49 -83q-17 -45 -22 -100zM461 0v137h135v-137h-135z" />
<glyph unicode="@" horiz-adv-x="1331" d="M70 535q0 125 41 246q41 122 121 212q82 93 202 149q119 56 279 56q126 0 231 -42q101 -40 180 -115q76 -71 117 -172q41 -100 41 -216q0 -93 -32 -177q-31 -80 -83 -145q-51 -63 -114 -99q-61 -35 -127 -35q-77 0 -108 35q-33 38 -40 79q-28 -51 -76 -83 q-46 -31 -122 -31q-63 0 -108 29t-73 83q-25 49 -30 128q-5 75 18 167q41 166 132 246q92 80 216 80q103 0 148 -82l20 72h135l-147 -517q-18 -67 -1 -94q18 -28 46 -28q41 0 83 29q43 29 81 80q34 45 60 118q24 68 24 143q0 105 -36 188t-99 141q-63 59 -151 89 q-90 31 -189 31q-115 0 -210 -42q-96 -43 -163 -117q-69 -77 -106 -177q-37 -101 -37 -221q0 -105 28 -189q29 -86 88 -148t149 -97t212 -35q95 0 164 13q74 14 127 34q54 21 94 45q33 20 65 47l62 -51q-202 -185 -514 -185q-124 0 -233 36q-108 35 -190 107t-128 175 q-47 106 -47 240zM502 477q-2 -56 7 -97q9 -44 32 -73q22 -28 59 -28q65 0 106 38t58 105l15 55q11 35 24 83q16 58 24 85q16 54 19 66q8 30 2 56t-22 49t-39 34q-24 12 -50 12q-45 0 -79 -23q-36 -24 -63 -63q-28 -40 -47 -89q-21 -52 -32 -105q-13 -53 -14 -105z" />
<glyph unicode="A" horiz-adv-x="1062" d="M35 0l420 1180h168l409 -1180h-147l-123 344h-477l-119 -344h-131zM328 457h395l-197 565z" />
<glyph unicode="B" horiz-adv-x="1028" d="M113 0v1180h479q84 0 150 -25q63 -24 104 -65q40 -40 60 -93q20 -52 20 -104q0 -103 -56 -173q-55 -69 -153 -91v-4q110 -22 177 -103t67 -196q0 -161 -103 -244q-101 -82 -280 -82h-465zM260 125h309q111 0 177 54q67 55 67 153q0 40 -12 80t-42 73q-31 34 -77 55 t-117 21h-305v-436zM260 674h301q116 5 166 63q51 60 51 140q0 92 -61 137t-156 45h-301v-385z" />
<glyph unicode="C" horiz-adv-x="1046" d="M43 592q0 114 31 229q30 112 93 194q64 84 159 133q97 50 227 50q97 0 178 -32q79 -31 139 -87q110 -104 131 -258l-145 -26q-7 52 -33 111q-25 56 -64 95q-42 42 -93 67q-54 26 -119 26q-100 0 -168 -51q-66 -50 -105 -124q-39 -75 -54 -164t-15 -165q0 -88 18 -178 q18 -89 59 -162q40 -72 103 -118q62 -46 156 -46q66 0 123 26t96 68q41 44 66 100q27 61 34 117l141 -28q-12 -88 -49 -157q-39 -74 -96 -122q-62 -53 -139 -79q-79 -27 -180 -27q-129 0 -224 54q-92 53 -153 141q-59 85 -88 196q-29 110 -29 217z" />
<glyph unicode="D" horiz-adv-x="1048" d="M92 0v1180h414q121 0 214 -46q95 -47 161 -126q65 -78 100 -187q35 -108 35 -227q0 -115 -32 -223t-93 -190t-151 -132q-88 -49 -203 -49h-445zM240 121h282q85 5 148 45t105 105q42 64 63 149q20 80 20 174q0 92 -21 175q-21 82 -65 146q-46 66 -108 103q-65 38 -152 43 h-272v-940z" />
<glyph unicode="E" horiz-adv-x="862" d="M94 0v1180h748v-127h-598v-375h469v-119h-469v-432h606v-127h-756z" />
<glyph unicode="F" horiz-adv-x="849" d="M100 0v1180h738v-127h-590v-375h473v-119h-473v-559h-148z" />
<glyph unicode="G" horiz-adv-x="1079" d="M39 578q0 118 30 231q31 116 92 199q64 86 158 138q95 52 232 52q178 0 290 -86q110 -85 148 -254l-151 -35q-10 54 -35 105q-22 45 -63 86q-37 37 -87 58q-52 22 -106 22q-100 0 -167 -50q-68 -51 -107 -123q-38 -71 -57 -165q-17 -85 -17 -170q0 -101 22 -189 q22 -89 66 -160q44 -72 103 -113q60 -42 136 -42t133 24t98 68q39 42 60 101t21 124v72h-295v125h446v-596h-92l-39 137q-55 -82 -140 -118q-83 -35 -183 -35q-125 0 -217 49q-93 49 -155 131q-64 83 -93 189q-31 112 -31 225z" />
<glyph unicode="H" horiz-adv-x="1007" d="M100 0v1180h148v-490h518v490h147v-1180h-147v561h-518v-561h-148z" />
<glyph unicode="I" horiz-adv-x="360" d="M104 0v1180h148v-1180h-148z" />
<glyph unicode="J" horiz-adv-x="608" d="M-23 6v121q57 -11 76 -14q44 -7 76 -7q104 0 166 47q61 46 61 150v877h148v-842q0 -161 -86 -258q-86 -96 -283 -96q-80 0 -158 22z" />
<glyph unicode="K" horiz-adv-x="1030" d="M100 0v1180h148v-678l532 678h160l-317 -412l370 -768h-164l-311 651l-270 -336v-315h-148z" />
<glyph unicode="L" horiz-adv-x="831" d="M100 0v1180h148v-1049h567v-131h-715z" />
<glyph unicode="M" horiz-adv-x="1335" d="M100 0v1180h246l334 -955l307 955h240v-1180h-148v1032h-6l-350 -1032h-96l-373 1036h-6v-1036h-148z" />
<glyph unicode="N" horiz-adv-x="1044" d="M100 0v1180h168l516 -910v910h148v-1180h-150l-534 948v-948h-148z" />
<glyph unicode="O" horiz-adv-x="1110" d="M47 582q0 114 31 229q30 110 94 197q62 84 159 138q94 52 222 52q130 0 225 -52q97 -53 159 -139q63 -87 93 -198q29 -109 29 -220v-7q-1 -113 -35 -223q-32 -106 -96 -191q-63 -84 -157 -134t-216 -50q-128 0 -222 49q-98 51 -159 131q-64 84 -95 190q-32 110 -32 228z M203 580q0 -78 19 -163q20 -87 63 -162t109 -124q65 -49 161 -49q93 0 158 49t107 124t63 162q20 83 20 165q0 97 -20 184q-22 95 -64 165q-44 73 -109 119t-157 46q-98 0 -165 -52q-66 -51 -108 -128t-60 -166q-17 -85 -17 -170z" />
<glyph unicode="P" horiz-adv-x="997" d="M100 0v1180h480q115 -1 191 -41q75 -39 117 -96t58 -120q17 -66 17 -118q0 -70 -25 -139q-23 -63 -72 -115q-47 -50 -114 -80q-71 -32 -152 -33h-352v-438h-148zM248 559h336q51 1 92 23q42 22 69 53q30 35 46 77t16 93q0 52 -14 93q-16 46 -43 80q-28 36 -71 57 q-45 23 -97 24h-334v-500z" />
<glyph unicode="Q" horiz-adv-x="1110" d="M47 582q0 114 31 229q30 110 94 197q62 84 159 138q94 52 222 52q124 0 219 -50q94 -49 158 -133q63 -82 96 -191q33 -108 33 -220q0 -98 -25 -201q-23 -95 -71 -180q-44 -77 -120 -141q-72 -60 -167 -84q-2 -29 2 -52q5 -30 18 -44q23 -27 59 -35q38 -8 76 -8q45 0 86 6 q3 0 11 1.5t12 2.5l25 4v-111q-67 -16 -127 -16q-140 0 -210 53q-68 52 -73 185q-128 0 -222 49q-98 51 -159 131q-64 84 -95 190q-32 110 -32 228zM203 580q0 -78 19 -163q20 -87 63 -162t109 -124q65 -49 161 -49t161 52q67 53 107 129q42 79 61 167t19 166q0 90 -21 180 q-20 87 -66 161q-45 73 -109 115q-67 44 -154 44q-98 0 -165 -52q-66 -51 -108 -128t-60 -166q-17 -85 -17 -170z" />
<glyph unicode="R" horiz-adv-x="995" d="M100 0v1180h494q95 -1 168 -33q67 -29 112 -79q44 -48 63 -105q19 -56 19 -113q0 -106 -56 -190q-56 -85 -161 -119l230 -541h-154l-219 510h-348v-510h-148zM248 629h348q42 1 81 17q36 14 67 44q30 28 48 69q17 38 17 93q0 94 -59 146q-60 52 -140 57h-362v-426z" />
<glyph unicode="S" horiz-adv-x="995" d="M31 315l133 31q34 -121 124 -193q89 -71 224 -71q78 0 129 19t88 52q35 32 51 73q17 43 17 89q0 45 -18 77t-45 54q-26 22 -63 37q-33 14 -75 25l-268 67q-42 10 -87 35q-42 23 -78 64q-32 36 -54 90q-19 46 -19 105v12q1 81 36 141q34 60 89 98q58 41 127 58 q72 18 150 18q146 0 261 -68q113 -67 158 -221l-135 -37q-21 99 -96 164q-76 66 -193 66q-121 0 -188 -56q-66 -56 -66 -153q0 -44 16 -76q14 -28 40 -51q24 -21 58 -33q39 -14 71 -20q18 -6 45 -13q4 -1 88 -20q46 -14 127 -31q123 -29 198 -108q74 -78 74 -203 q0 -73 -28 -136q-29 -65 -84 -113q-56 -48 -139 -77q-81 -28 -189 -28q-184 0 -305 76t-174 257z" />
<glyph unicode="T" horiz-adv-x="882" d="M29 1061v119h823v-119h-338v-1061h-147v1061h-338z" />
<glyph unicode="U" horiz-adv-x="995" d="M88 371v809h148v-803q0 -85 23 -140q24 -58 63 -92q40 -35 88 -50q50 -15 100 -15q116 0 192 78q76 77 76 207v815h123v-824q-7 -167 -113 -270q-105 -102 -284 -102q-200 0 -304 94q-106 95 -112 293z" />
<glyph unicode="V" horiz-adv-x="1013" d="M14 1180h150l348 -983l348 983h135l-420 -1180h-141z" />
<glyph unicode="W" horiz-adv-x="1548" d="M20 1180h150l274 -969l293 969h131l279 -953l258 953h133l-326 -1180h-137l-282 924l-285 -924h-148z" />
<glyph unicode="X" horiz-adv-x="1089" d="M10 0l453 612l-406 568h172l324 -451l326 451h155l-403 -557l442 -623h-174l-356 504l-375 -504h-158z" />
<glyph unicode="Y" horiz-adv-x="1044" d="M16 1180h168l355 -584l354 584h141l-434 -723v-461h-147v461z" />
<glyph unicode="Z" horiz-adv-x="993" d="M47 0v123l703 930h-670v127h852v-95l-723 -958h743v-127h-905z" />
<glyph unicode="[" horiz-adv-x="442" d="M86 -121v1424h295v-89h-180v-1243h180v-92h-295z" />
<glyph unicode="\" horiz-adv-x="659" d="M90 1182h125l346 -1225h-125z" />
<glyph unicode="]" horiz-adv-x="442" d="M63 -29h181v1243h-181v89h295v-1424h-295v92z" />
<glyph unicode="^" horiz-adv-x="622" d="M14 743l246 418h125l223 -418h-104l-178 318l-209 -318h-103z" />
<glyph unicode="_" horiz-adv-x="1015" d="M0 -195h1016v-71h-1016v71z" />
<glyph unicode="`" horiz-adv-x="407" d="M59 1178h119l125 -480h-63z" />
<glyph unicode="a" horiz-adv-x="849" d="M31 240q0 79 43 141q44 64 114 96q54 26 119 34q59 7 129 7h191v45q0 111 -49 167q-49 57 -160 58h-8q-82 0 -146 -38q-70 -41 -88 -132l-121 21q12 67 49 111q37 45 89 72t110 39q55 11 119 11q178 0 253 -71q76 -72 81 -232v-391q0 -31 2 -93q2 -48 16 -87h-131 q-9 26 -10 49q-1 10 -2.5 27t-1.5 24q-2 20 -2 29v31q-45 -92 -120 -135q-74 -43 -179 -43q-62 0 -114 16q-56 17 -95 49q-41 34 -65 81q-23 46 -23 114zM172 233q0 -41 15 -71t41 -53q25 -22 60 -34q34 -12 68 -12q57 0 107 26q48 25 85 68q34 39 56 95q22 54 23 108v80 h-129q-48 -1 -109 -11q-55 -9 -105 -32q-49 -23 -80 -61q-32 -40 -32 -103z" />
<glyph unicode="b" horiz-adv-x="901" d="M104 0v1143h132v-410h6q29 48 92 94q62 46 147 47q175 0 264 -119q91 -121 91 -317q0 -86 -21 -168q-22 -85 -63 -145q-44 -63 -111 -102t-162 -39q-85 0 -154 45q-70 46 -108 116l-49 -145h-64zM236 358q0 -60 18 -109q17 -48 49 -89q31 -40 74 -61t92 -21q68 0 112 32 q43 31 69 83q26 53 35 115q9 65 9 130q0 78 -11 136q-12 64 -37 109q-26 47 -69 72t-108 25q-51 0 -94 -24q-44 -24 -74 -65t-48 -88q-17 -45 -17 -95v-150z" />
<glyph unicode="c" horiz-adv-x="839" d="M51 426q0 81 25 165q23 78 71 143q46 63 119 102q70 38 168 38q161 0 247 -79q87 -80 110 -215l-121 -17q-4 41 -23 82q-18 39 -49 70t-74 49q-44 18 -96 18q-68 0 -114 -34q-44 -33 -73 -89q-27 -53 -39 -114t-12 -117q0 -48 13 -116q11 -57 40 -117q27 -55 72 -93 q43 -36 111 -36q59 0 99 20q44 22 72 54q29 33 47 77q19 46 26 86l125 -12q-11 -62 -43 -122q-29 -55 -79 -97q-49 -41 -111 -65q-60 -23 -138 -23q-96 0 -166 38t-116 99q-45 59 -68 141q-23 81 -23 164z" />
<glyph unicode="d" horiz-adv-x="901" d="M55 438q0 91 23 172q24 83 65 139q43 57 109 92q63 33 151 33q93 0 155 -40t91 -101h6v410h131v-1143h-112v145q-38 -69 -106 -116q-66 -45 -152 -45q-97 0 -164 37t-112 102q-43 62 -64 145q-21 82 -21 170zM197 438v-24q0 -53 7 -104q9 -62 35 -115q26 -52 70 -84 q45 -33 113 -33q51 0 93 21q43 21 73 59q31 38 48 86t19 106v158q0 47 -18 95q-17 46 -50 88q-32 41 -75 65t-94 24q-67 0 -108 -25q-42 -25 -66 -72q-25 -48 -35 -109q-11 -63 -12 -136z" />
<glyph unicode="e" horiz-adv-x="870" d="M49 424q0 87 24 170t72 144q49 62 123 100q71 36 176 36q96 0 164 -31q70 -32 116 -87t70 -129q22 -68 27 -158v-47h-624v-26q0 -148 63 -237q69 -98 193 -98q43 0 85 17q37 15 69 44q30 27 49 61q20 36 26 71l137 -21q-11 -57 -44 -102q-36 -48 -83 -81 q-48 -33 -110 -53q-63 -20 -129 -20q-103 0 -181 35q-74 33 -125 97q-49 61 -73 142q-25 84 -25 173zM203 500h473v15q0 48 -11 90q-14 54 -43 93q-32 43 -74 66q-43 24 -104 24q-54 0 -98 -25q-43 -25 -78 -67q-31 -38 -50 -93q-15 -43 -15 -91v-12z" />
<glyph unicode="f" horiz-adv-x="577" d="M37 745v105h151v19q0 56 10 106q12 60 40 103q30 46 77 70q50 26 123 26h3q3 -1 8 -1.5t11 -0.5q13 -1 44 -1q20 -2 30 -2h33v-106q-46 6 -104 6q-56 0 -84 -19t-42 -51q-12 -28 -14 -70q-1 -27 -1 -79h198v-105h-198v-745h-134v745h-151z" />
<glyph unicode="g" horiz-adv-x="911" d="M47 -61q0 69 42 128q40 56 106 78q-51 15 -77 53t-26 76q0 102 123 142q-48 23 -80 68q-33 46 -33 116q0 68 28 121q26 49 73 85q44 33 104 50q58 16 125 16q98 0 174 -36q16 89 64 118q47 29 135 29h43l4 -109h-41q-53 -2 -90 -18q-36 -16 -47 -78q39 -24 63 -73 q22 -45 22 -96q0 -9 -1 -17q-4 -65 -33 -109q-27 -42 -72 -71q-42 -28 -93 -43q-49 -15 -97 -21q-13 -1 -26 -1q-27 0 -56 5q-43 8 -68 8q-32 0 -61 -20q-31 -22 -31 -59q0 -39 22 -58t50 -26q52 -13 100 -14q34 -1 115 -1h64q36 0 71 -3q39 -3 68 -10q33 -8 55 -22 q39 -23 72 -68q34 -46 34 -124q0 -81 -41 -131q-40 -48 -104 -76q-63 -27 -137 -36t-141 -9q-81 0 -150 13q-70 13 -128 42q-53 27 -90 73q-34 43 -34 108zM178 -49q0 -41 24 -73q25 -33 61 -53q41 -23 87 -34q50 -12 99 -12q55 0 109 12q53 12 95 35q42 24 67 54 q25 31 25 71q0 63 -47 101t-106 42q-28 -1 -57 -1t-58 1q-15 0 -49.5 1.5t-54.5 2.5q-42 1 -101 11q-52 -28 -73 -72t-21 -86zM240 602q0 -87 53 -131q52 -43 139 -43q38 0 73 9q30 8 60 31q27 21 42 55q16 37 16 81q0 100 -57 144q-56 43 -134 43q-85 0 -138 -43 q-54 -44 -54 -146z" />
<glyph unicode="h" horiz-adv-x="860" d="M106 0v1143h132v-432h6q37 71 107 116q67 43 166 43h9q62 0 107 -23q49 -25 79 -64q31 -39 49 -93q17 -50 17 -115v-575h-131v575q0 88 -43 138q-43 51 -121 51q-58 0 -104 -26q-47 -26 -76 -66q-31 -41 -47 -95t-18 -110v-467h-132z" />
<glyph unicode="i" horiz-adv-x="348" d="M106 993v150h136v-150h-136zM109 0v850h131v-850h-131z" />
<glyph unicode="j" horiz-adv-x="348" d="M-115 -184q54 -13 95 -13q44 0 73 15q56 29 56 133v899h131v-897q0 -73 -20 -124q-21 -53 -53 -81q-36 -31 -78 -43q-43 -12 -93 -12q-28 0 -56 5q-17 3 -55 13v105zM106 993v150h136v-150h-136z" />
<glyph unicode="k" horiz-adv-x="843" d="M102 0v1143h131v-737l435 444h147l-287 -303l316 -547h-135l-263 465l-213 -219v-246h-131z" />
<glyph unicode="l" horiz-adv-x="348" d="M109 0v1143h131v-1143h-131z" />
<glyph unicode="m" horiz-adv-x="1406" d="M104 0v850h119v-176h4q16 41 43 74t66 61q38 28 80 42q43 15 86 15q116 0 176 -51q59 -50 70 -137q12 42 43 78t70 59q43 26 86 38q45 13 89 13q124 0 191 -57q66 -56 71 -186v-623h-131v610q0 178 -159 178q-43 0 -83 -20q-44 -22 -77 -58t-58 -94q-25 -57 -26 -122 v-494h-131v623q0 86 -37 126q-36 39 -111 39q-51 0 -94 -26q-45 -27 -79 -70q-32 -40 -54 -100q-20 -56 -22 -119v-473h-132z" />
<glyph unicode="n" horiz-adv-x="866" d="M98 0v850h123v-176h4q38 87 114 139q77 53 175 53q132 0 193 -64q60 -63 65 -177v-625h-131v618q0 74 -36 122t-116 48q-55 0 -101 -28q-45 -28 -81 -76q-34 -46 -55 -106q-22 -62 -23 -121v-457h-131z" />
<glyph unicode="o" horiz-adv-x="864" d="M47 434q0 85 25 168q25 81 73 140q51 61 122 97q70 35 169 35q95 0 165 -37q71 -38 118 -100q47 -63 71 -141q23 -76 23 -164t-26 -171q-26 -82 -74 -142q-50 -62 -121 -99q-69 -36 -166 -36q-98 0 -167 35q-72 37 -118 98t-70 143t-24 174zM193 434q0 -175 59 -271 q60 -97 176 -97q64 0 110 27q45 26 73 77t41 117q14 70 14 147q0 166 -60 261q-61 96 -176 96q-117 0 -177 -98q-60 -97 -60 -259z" />
<glyph unicode="p" horiz-adv-x="901" d="M100 -283v1133h119v-160h4q33 86 101 133t165 47q90 0 155 -37q66 -38 112 -100q45 -61 66 -141q22 -83 22 -162q0 -90 -26 -174q-25 -81 -72 -143q-48 -64 -111 -98q-64 -35 -148 -35q-93 0 -151 38q-59 39 -105 113v-414h-131zM231 330q0 -40 19 -89q17 -44 49 -84 q31 -39 72 -63t86 -24q59 0 102 29q46 31 76 80q31 52 46 116q15 66 15 137q0 62 -13 121q-13 60 -41 111q-26 47 -74 80q-47 32 -109 32q-45 0 -81 -20q-39 -22 -68 -55t-50 -74q-22 -42 -29 -80v-217z" />
<glyph unicode="q" horiz-adv-x="901" d="M51 430q0 90 24 171q25 84 69 141q49 63 115 96q63 32 149 32h10q184 -1 256 -165h4l61 145h58v-1133h-131v414q-43 -72 -103 -112q-58 -39 -145 -39q-85 0 -153 31q-69 31 -115 91q-48 62 -73 143q-26 84 -26 185zM201 424q0 -160 63 -259t176 -99q46 0 86 24 q42 25 72 64q32 41 49 86q19 49 19 90v217q-7 37 -29 81q-23 46 -50 77q-30 35 -68 56q-37 21 -81 21q-64 0 -111 -30q-46 -30 -74 -82q-28 -53 -40 -115q-12 -63 -12 -131z" />
<glyph unicode="r" horiz-adv-x="573" d="M109 0v850h116v-186h4q9 29 34 73q19 34 52 67q27 27 72 47q38 17 92 17h21q5 0 21 -2q4 -1 11.5 -2.5t10.5 -1.5v-123q-19 0 -29 2q-13 0 -20 1t-15 1q-59 0 -104 -27q-44 -26 -75 -73q-30 -46 -45 -101q-15 -57 -15 -114v-428h-131z" />
<glyph unicode="s" horiz-adv-x="798" d="M49 184l137 29q16 -79 80 -117q62 -37 142 -37q24 0 65 9q37 8 64 25q31 19 47 44q18 27 18 64q0 35 -19 72q-20 39 -75 55l-207 55q-45 11 -92 32q-43 19 -75 50q-31 29 -51 73q-20 43 -20 97q0 59 27 104q27 44 71 75q41 28 101 44q53 14 117 14q129 0 212 -48 q84 -49 114 -134l-125 -22q-11 22 -25 43q-15 23 -36 39q-17 13 -53 27q-29 11 -81 11q-87 0 -137 -37q-51 -37 -51 -96q0 -33 12 -55q12 -23 33 -38q18 -13 46 -26q29 -14 52 -20q10 -2 21.5 -5t25 -6t20.5 -5q24 -6 60 -19q59 -19 100 -34q56 -20 72 -31q55 -39 78 -84 q24 -46 24 -123q0 -63 -28 -106q-29 -43 -75 -72t-108 -42q-64 -14 -124 -14q-61 0 -122 11q-62 11 -106 34q-46 24 -81 65q-33 39 -48 99z" />
<glyph unicode="t" horiz-adv-x="579" d="M6 745v105h156l20 221h105v-221h211v-105h-211v-516q0 -141 125 -141h18q9 0 39 2h25q8 0 30 2v-94l-127 -6q-11 -1 -21 -1q-97 0 -154 52q-61 56 -66 186v516h-150z" />
<glyph unicode="u" horiz-adv-x="868" d="M100 260v590h131v-598q0 -79 43 -129q44 -51 123 -51q57 0 100 24q42 23 74 66q31 42 49 94q17 51 19 111v483h131v-850h-119v156h-4q-33 -80 -103 -126t-159 -46q-69 0 -122 21q-49 20 -88 60q-35 37 -54 88q-20 54 -21 107z" />
<glyph unicode="v" horiz-adv-x="788" d="M8 850h144l249 -694l258 694h121l-319 -850h-129z" />
<glyph unicode="w" horiz-adv-x="1183" d="M12 850h125l205 -645l221 645h96l205 -645l199 645h106l-249 -850h-109l-201 637l-221 -637h-108z" />
<glyph unicode="x" horiz-adv-x="788" d="M12 0l305 442l-278 408h154l202 -297l207 297h131l-272 -391l313 -459h-156l-235 346l-242 -346h-129z" />
<glyph unicode="y" horiz-adv-x="788" d="M16 850h138l260 -662l231 662h125l-336 -930q-40 -116 -104 -168q-62 -50 -164 -55q-65 0 -107 14v107q47 -13 86 -13q47 0 83 19q34 18 58 48t39 68q17 42 27 74z" />
<glyph unicode="z" horiz-adv-x="774" d="M47 0v102l490 643h-469v105h643v-74l-514 -674h524v-102h-674z" />
<glyph unicode="{" horiz-adv-x="489" d="M76 582v20q43 7 78 65q34 56 34 154l-2 299q0 108 43 148q44 41 97 41h100v-86l-70 -2q-40 -1 -54 -27q-13 -23 -13 -72v-170v-63q0 -39 1 -55t1 -40v-16q0 -57 -10 -91q-10 -35 -25 -56t-27 -30q-13 -10 -18 -11l18 -12q11 -7 27 -28q15 -19 25 -53q10 -33 10 -89 q-2 -62 -2 -91v-79v-172q1 -48 14 -76q12 -27 53 -29l70 -2v-86h-100q-28 0 -52 9q-23 9 -44 31q-19 20 -31 58q-13 41 -13 90l2 299q0 99 -34 155t-78 67z" />
<glyph unicode="|" horiz-adv-x="358" d="M113 -244v1667h133v-1667h-133z" />
<glyph unicode="}" horiz-adv-x="489" d="M63 -41l70 2q41 2 53 29q14 31 15 76q0 19 -1 54t-1 118v170q0 56 10 89q11 36 24 53q16 21 27 28l19 12q-7 2 -19 11t-27 30q-13 18 -24 56q-10 34 -10 91v174v81q0 27 2 89q0 47 -14 72q-14 26 -54 27l-70 2v86h101q24 0 51 -10q25 -9 44 -30q20 -22 32 -59 q12 -38 12 -90l-2 -299q0 -96 35 -154t78 -65v-20q-44 -11 -78 -67q-35 -58 -35 -155l2 -299q0 -53 -12 -90q-11 -36 -32 -58t-44 -31q-24 -9 -51 -9h-101v86z" />
<glyph unicode="~" horiz-adv-x="1155" d="M135 465v102l283 109l305 -162l297 111v-103l-297 -108l-305 164z" />
<glyph unicode="&#xa2;" horiz-adv-x="839" d="M119 588q0 65 16 125q17 64 50 111q35 50 84 84q47 33 116 44v140h82v-138q114 -11 177 -74q64 -64 81 -165l-100 -15q-6 63 -46 113q-41 52 -112 64v-580q70 15 108 72q38 58 50 118l102 -10q-16 -98 -85 -167q-68 -68 -175 -83v-137h-82v137q-69 8 -118 42 q-52 36 -83 83q-32 48 -49 110q-16 58 -16 126zM231 590q0 -27 9 -83q7 -44 26 -88q18 -41 47 -75q29 -33 72 -45v575q-43 -10 -73 -40q-27 -27 -47 -72q-17 -39 -25 -87q-9 -56 -9 -85z" />
<glyph unicode="&#xa3;" horiz-adv-x="1011" d="M98 0v127h68q46 40 74 81q30 44 44 81q16 41 20 70q5 35 5 53q0 32 -12 68q-11 34 -23 59h-176v94h119q-29 59 -51 112q-25 59 -25 123q0 48 19 110q18 58 65 108t126 84q78 34 200 34q93 0 160 -30q64 -28 110 -81q42 -48 64 -114q20 -60 20 -127v-18h-135v8 q0 112 -65 181q-66 71 -173 71q-70 0 -118 -25q-49 -25 -76 -58q-30 -36 -41 -71q-12 -38 -12 -63q0 -54 23 -109q26 -61 67 -135h278v-94h-233q7 -28 12 -56q4 -24 4 -61q0 -66 -39 -147q-38 -80 -125 -148h594v-127h-768z" />
<glyph unicode="&#xa5;" horiz-adv-x="1044" d="M16 1180h168l355 -584l354 584h141l-286 -478h251v-112h-319l-80 -133h399v-113h-399v-348h-147v348h-408v113h408l-80 133h-328v112h260z" />
<glyph unicode="&#xa9;" horiz-adv-x="1333" d="M53 592q0 125 48 236q48 112 131 196q82 84 194 132q111 48 238 48t238 -48q113 -49 195 -131t131 -195q48 -111 48 -236q0 -128 -48 -240t-131 -195q-82 -82 -195 -131q-111 -48 -238 -48t-238 48t-194 131t-131 194t-48 239zM154 594q0 -110 40 -202q42 -97 108 -163 q68 -68 162 -109q92 -40 200 -40q107 0 199 40q96 42 163 109q69 69 110 163q40 92 40 202v-2q0 108 -40 201t-110 163q-69 69 -163 110q-92 40 -199 40q-108 0 -200 -40t-162 -110q-66 -66 -108 -162q-40 -92 -40 -200zM383 590q0 64 18 124q18 59 55 107q37 47 90 77 q54 30 126 30q116 0 183 -62t83 -159l-90 -13q-8 65 -54 114q-47 50 -128 50q-50 0 -84 -27q-37 -29 -56 -66t-29 -87q-10 -52 -10 -86t10 -86q9 -47 30 -89q21 -43 56 -70q36 -28 83 -28q40 0 74 16q33 16 54 41q20 24 34 57t20 65l94 -9q-18 -97 -92 -164 q-75 -67 -186 -67q-71 0 -124 29q-54 29 -87 74q-35 47 -53 107q-17 57 -17 122z" />
<glyph unicode="&#xab;" horiz-adv-x="913" d="M84 502v121l375 243v-80l-283 -223l283 -239v-86zM432 502v121l375 243v-80l-283 -223l283 -239v-86z" />
<glyph unicode="&#xad;" horiz-adv-x="790" d="M29 420v110h733v-110h-733z" />
<glyph unicode="&#xae;" horiz-adv-x="1017" d="M111 659q0 84 31 156q32 74 85 127q51 52 126 85q73 32 157 32q82 0 155 -32t126 -85q52 -51 85 -127q31 -72 31 -156q0 -83 -31 -154q-32 -73 -85 -126t-126 -85t-155 -32q-84 0 -157 32t-126 85t-85 126q-31 71 -31 154zM170 657q0 -69 27 -131t72 -107q46 -46 108 -73 q61 -27 131 -27q69 0 132 27t109 73q45 45 72 107t27 131t-27 131q-28 64 -72 108q-46 46 -109 73q-61 26 -132 26q-72 0 -131 -26q-62 -27 -108 -73q-44 -44 -72 -108q-27 -62 -27 -131zM360 465v412h152q73 -5 120 -34q48 -30 42 -106q-6 -69 -74 -96l74 -176h-84l-66 162 h-86v-162h-78zM438 690h84q28 0 51 12t23 46t-23 48q-22 13 -55 13h-80v-119z" />
<glyph unicode="&#xbb;" horiz-adv-x="913" d="M106 238v86l285 239l-285 223v80l375 -243v-121zM453 238v86l284 239l-284 223v80l374 -243v-121z" />
<glyph unicode="&#xbc;" horiz-adv-x="1259" d="M45 946v103q57 23 100 53q42 29 82 80h84v-572h127v-90h-370v90h129v404q-28 -21 -65 -37q-30 -13 -87 -31zM289 0l604 1180h133l-604 -1180h-133zM709 147v74l305 443h127v-422h108v-95h-108v-145h-113v145h-319zM840 242h188v282z" />
<glyph unicode="&#xbd;" horiz-adv-x="1259" d="M55 946v103q60 24 101 53q42 29 82 80h84v-572h127v-90h-371v90h129v404q-28 -21 -65 -37q-30 -13 -87 -31zM262 0l604 1180h133l-604 -1180h-133zM762 461q28 100 88 155q61 56 158 56q54 0 97 -18q46 -19 75 -48q30 -30 48 -70q17 -38 17 -83q0 -87 -39 -140 q-40 -54 -96 -98l-152 -123h281v-92h-457v74l244 196q46 38 72 79q26 40 26 104q0 57 -31 97t-85 40q-58 0 -89 -43q-34 -46 -45 -115z" />
<glyph unicode="&#xbe;" horiz-adv-x="1259" d="M18 690l109 35q15 -66 53 -98q39 -33 92 -33q66 0 99 33q32 32 32 78q0 53 -39 82q-40 30 -90 30h-102v94h107q52 0 77 28t25 75q0 42 -29 68t-76 26q-42 0 -78 -27t-51 -88l-110 29q29 95 94 132q67 38 145 38q93 0 156 -48q64 -49 64 -134q0 -48 -23 -86 q-22 -37 -61 -58q45 -18 76 -61q32 -44 32 -103q0 -36 -14 -68q-15 -34 -45 -61q-28 -25 -78 -43q-45 -16 -115 -16q-85 0 -153 41q-69 41 -97 135zM317 0l605 1180h133l-604 -1180h-134zM707 147v74l305 443h127v-422h108v-95h-108v-145h-113v145h-319zM838 242h188v282z " />
<glyph unicode="&#xd7;" horiz-adv-x="1058" d="M170 164l295 289l-289 288l92 93l289 -287l289 289q21 -23 38 -38q23 -20 36 -38l-293 -289l276 -281l-88 -88l-274 277l-295 -293q-19 15 -40 38q-24 26 -36 40z" />
<glyph unicode="&#xf7;" horiz-adv-x="1216" d="M154 414v125h909v-125h-909zM500 246q0 46 31 77t77 31t77 -31q32 -32 32 -77q0 -43 -32 -75t-77 -32t-77 32q-31 31 -31 75zM500 707q0 43 31 74q32 32 77 32t77 -32t32 -74q0 -45 -32 -77t-77 -32t-77 32q-31 31 -31 77z" />
<glyph unicode="&#xe01;" horiz-adv-x="888" d="M102 705v55q23 20 62 37q35 16 92 34q52 17 106 27q53 10 109 10q62 0 116 -12q52 -11 96 -40q43 -28 67 -71t24 -104v-641h-127v612q0 76 -46 125t-146 49q-49 0 -87 -14q-43 -16 -69 -38q-29 -24 -45 -55t-16 -69v-610h-132v496q0 66 12 106q13 43 54 86q-1 0 -4.5 1.5 t-5.5 2.5t-5.5 2.5t-4.5 1.5q-22 9 -50 9z" />
<glyph unicode="&#xe02;" horiz-adv-x="778" d="M72 221q0 73 35 138q36 67 75 122q41 57 76 111q35 53 35 108q0 60 -47 81q-48 22 -125 -23l-23 73q35 18 88 29q51 10 104 2q50 -8 86 -42t36 -103q0 -72 -32 -130q-33 -59 -69 -110q-32 -45 -68 -110q-32 -58 -32 -131q0 -56 15 -92q14 -34 40 -55q25 -21 52 -28 q29 -8 53 -8q26 0 58 8q26 7 53 30q24 21 39 57q16 38 16 90v612h127v-600q0 -122 -65 -198q-65 -75 -222 -75q-65 0 -122 15t-97 43q-42 30 -64 75t-22 111z" />
<glyph unicode="&#xe03;" horiz-adv-x="778" d="M63 782l15 82q3 -1 19.5 -7l27.5 -10q26 -9 55 -42q27 35 71 51q41 15 81 7q38 -7 66 -38t28 -84q0 -74 -34 -135q-39 -69 -74 -120q-34 -49 -73 -117q-34 -59 -34 -133q0 -58 15 -94q14 -34 40 -55q23 -19 52 -27q25 -7 53 -7q26 0 58 8q26 7 53 30q24 21 39 57 q16 38 16 90v612h127v-600q0 -122 -65 -198q-65 -75 -222 -75q-63 0 -122 14q-57 14 -97 43q-42 31 -64 75t-22 110q0 75 38 143q40 72 81 130q72 102 82 117q38 58 38 112q0 49 -43 50q-44 1 -90 -48q-18 18 -48 35q-31 18 -67 24z" />
<glyph unicode="&#xe04;" horiz-adv-x="874" d="M102 0v590q0 55 21 106q22 53 63 90q44 39 108 63q62 23 150 23q89 0 149 -23q61 -23 102 -63q41 -39 60 -90q19 -50 19 -106v-590h-127v600q0 98 -59 144q-61 47 -146 47q-86 0 -150 -47q-63 -46 -63 -144v-201q21 44 52 74t64 44q37 16 68 20q29 4 58 2v-115 q-47 6 -90 -12q-37 -15 -77 -50q-32 -28 -54 -67q-21 -37 -21 -68v-227h-127z" />
<glyph unicode="&#xe05;" horiz-adv-x="882" d="M96 0v584q0 100 56 180t165 102l115 -86l123 86q105 -23 159 -100q54 -78 54 -182v-584h-127v598q0 65 -32 114q-31 47 -64 62l-113 -74l-110 74q-37 -16 -67 -62q-32 -49 -32 -114v-199q21 46 51 74q31 29 65 44q37 16 68 20q29 4 58 2v-115q-47 6 -90 -12 q-37 -15 -77 -50q-32 -28 -54 -67q-21 -37 -21 -68v-227h-127z" />
<glyph unicode="&#xe06;" horiz-adv-x="874" d="M47 782l14 82q42 -15 48 -17q26 -9 55 -42q34 45 79 54q43 9 76 3q45 -11 68 -44q24 -35 23 -77q-5 -62 -31 -105q-30 -48 -82 -106q-29 -30 -42 -67q-13 -36 -13 -68v-61q0 -41 15 -86t44 -83q28 -37 70 -65q40 -26 94 -28q44 -4 78 14q30 16 53 49q21 30 30 71t9 79 v565h127v-608q0 -120 -69 -190t-191 -70q-33 0 -72 9q-43 10 -77 29q-35 20 -70 53q-34 33 -52 77v-150h-118v336q0 49 5 87q4 31 14 56q9 22 23 38q27 30 29 32q64 70 100 123q34 50 -1 84q-12 9 -27 10q-17 2 -35 -3t-36 -15q-17 -10 -25 -23q-14 14 -47 34q-27 16 -66 23 z" />
<glyph unicode="&#xe07;" horiz-adv-x="870" d="M66 754h127l184 -670h26q37 0 77 22t73 66q32 43 55 106t27 142q2 75 -5 131q-8 64 -30 113t-63 79q-42 31 -105 31q-13 0 -37 -2q-19 -2 -35 -12l-14 80q22 10 58 16q34 6 67 6q92 0 151 -38q58 -37 91 -99q32 -59 44 -140q11 -71 9 -159q-1 -83 -26 -161 q-25 -79 -62 -136q-39 -60 -91 -94q-53 -35 -114 -35h-199z" />
<glyph unicode="&#xe08;" horiz-adv-x="839" d="M14 692q22 46 64 83q38 34 88 55q52 22 103 32t110 10q108 0 182 -29q76 -30 119 -82q42 -51 53 -123t-10 -151l-125 -487h-199l-118 385q-11 29 -35 35t-41 0l43 121q66 6 97 -27q31 -32 46 -80l107 -346l98 420q16 68 6 120t-40 89q-29 37 -78 55q-51 19 -107 19 q-14 0 -56 -6q-32 -5 -65 -18q-33 -14 -61 -37q-32 -27 -48 -62z" />
<glyph unicode="&#xe09;" horiz-adv-x="880" d="M74 692q21 49 56 83q35 33 83 55t100 32q50 10 109 10q107 0 172 -26q67 -27 106 -69q40 -43 55 -92t15 -97v-588h-119v149q-18 -44 -51 -76q-34 -32 -71 -53q-35 -19 -76 -29q-39 -9 -72 -9q-124 0 -193 70q-69 71 -69 190v241h129v-198q0 -38 9 -79t30 -71 q23 -32 52 -49q32 -19 79 -14q54 2 94 28q42 28 70 65q27 36 43 83q14 42 14 86v246q0 28 -6 65t-29 69t-64 54q-43 23 -116 23q-21 0 -54 -5t-60 -17q-29 -13 -57 -38q-29 -26 -46 -63z" />
<glyph unicode="&#xe0a;" horiz-adv-x="778" d="M74 221q0 73 35 138q36 67 75 122q41 57 76 111q35 53 35 108q0 60 -47 81q-48 22 -125 -23l-23 73q35 18 88 29q51 10 104 2q50 -8 86 -42t36 -103q0 -72 -32 -130q-33 -59 -69 -110q-32 -45 -68 -110q-32 -58 -32 -131q0 -56 15 -92q14 -34 40 -55q25 -20 53 -28 q29 -8 52 -8q26 0 58 8q26 7 53 30q24 21 39 57q16 38 16 90v276q0 50 -24 80q-25 31 -42 37v6q25 17 49 50q20 29 37 70q16 39 23 79q8 43 8 82h133q0 -84 -42 -160q-41 -74 -112 -113q29 -11 47 -27q21 -19 34 -43q16 -29 16 -69v-256q0 -122 -65 -198q-65 -75 -222 -75 q-65 0 -122 15t-97 43q-42 30 -64 75t-22 111z" />
<glyph unicode="&#xe0b;" horiz-adv-x="778" d="M66 782l14 82q3 -1 19.5 -7l27.5 -10q26 -9 55 -42q27 35 71 51q41 15 81 7q38 -7 66 -38t28 -84q0 -74 -34 -135q-43 -77 -73 -120q-40 -57 -74 -117q-34 -59 -34 -133q0 -58 15 -94q14 -34 40 -55q23 -19 53 -27q25 -7 52 -7q26 0 58 8q26 7 53 30q24 21 39 57 q16 38 16 90v276q0 50 -24 80q-25 31 -42 37v6q25 17 49 50q20 29 37 70q16 39 23 79q8 43 8 82h133q0 -84 -42 -160q-41 -74 -112 -113q29 -11 47 -27q21 -19 34 -43q16 -29 16 -69v-256q0 -122 -65 -198q-65 -75 -222 -75q-63 0 -122 14q-57 14 -97 43q-42 31 -64 75 t-22 110q0 75 38 143q36 66 82 130q58 81 81 117q38 58 38 112q0 49 -43 50q-44 1 -90 -48q-18 18 -48 35q-32 18 -66 24z" />
<glyph unicode="&#xe0c;" horiz-adv-x="1306" d="M102 705v55q24 21 58 37q35 17 82 34q45 17 96 27q49 10 104 10q62 0 113 -12q50 -12 89 -40q38 -27 59 -71q22 -46 22 -104v-358q0 -31 15 -67q15 -35 41 -66q28 -33 62 -53q36 -21 77 -21q73 0 109 37q36 38 36 116v621h131v-649q0 -105 -61 -163t-174 -58 q-83 0 -150 43q-68 44 -92 100v-123h-121v612q0 76 -36 125t-136 49q-98 0 -143 -52t-45 -124v-532h98v-78h-230v496q0 66 12 106q13 43 54 86q-1 0 -4.5 1.5t-5.5 2.5t-5.5 2.5t-4.5 1.5q-22 9 -50 9z" />
<glyph unicode="&#xe0d;" horiz-adv-x="1306" d="M102 705v55q24 21 58 37q35 17 82 34q45 17 96 27q49 10 104 10q62 0 113 -12q50 -12 89 -40q38 -27 59 -71q22 -46 22 -104v-412q0 -79 36 -116t109 -37q42 0 77 19q36 20 62 50t41 67q15 36 15 71v567h131v-795q0 -141 -91 -229t-269 -88q-66 0 -135 18q-66 17 -107 47 l37 78q32 -27 88 -49q50 -20 115 -20q92 0 142 30t73 79q21 45 26 105q4 51 4 105q-11 -27 -38 -55t-59 -48q-38 -23 -74 -35q-39 -13 -79 -13q-113 0 -172 58t-59 163v411q0 76 -36 125t-136 49q-98 0 -143 -52t-45 -124v-532h98v-78h-230v496q0 66 12 106q13 43 54 86 q-1 0 -4.5 1.5t-5.5 2.5t-5.5 2.5t-4.5 1.5q-22 9 -50 9z" />
<glyph unicode="&#xe0e;" horiz-adv-x="907" d="M35 0v82h90v414q0 69 11 106q13 43 54 86q-1 0 -4.5 1.5t-5.5 2.5t-5.5 2.5t-4.5 1.5q-22 9 -49 9v55q24 21 61 37q35 16 92 34q50 16 107 27q53 10 108 10q62 0 116 -12q52 -11 96 -40q43 -28 67 -71q25 -45 25 -104v-717q0 -34 -12 -70q-13 -38 -36 -64 q-24 -27 -62 -45q-35 -17 -91 -17h-182l-86 86l-86 -86h-185v86h156l115 114l114 -114h107q25 0 44 4q22 5 39 19q16 13 27 47q11 33 11 85v643q0 76 -46 125t-147 49q-49 0 -87 -14q-43 -16 -69 -38q-29 -24 -45 -55t-16 -69v-610h-221z" />
<glyph unicode="&#xe0f;" horiz-adv-x="907" d="M35 0v82h90v414q0 69 11 106q13 43 54 86q-1 0 -4.5 1.5t-5.5 2.5t-5.5 2.5t-4.5 1.5q-22 9 -49 9v55q24 21 61 37q35 16 92 34q50 16 107 27q53 10 108 10q62 0 116 -12q52 -11 96 -40q43 -28 67 -71q25 -45 25 -104v-717q0 -31 -13 -70q-12 -36 -37 -64 q-24 -27 -63 -45q-37 -17 -90 -17h-53l-86 86l-86 -86h-58l-86 86l-86 -86h-82v86h53l115 114l115 -114l115 114l114 -114q47 0 74 28t27 107v663q0 76 -46 125t-147 49q-49 0 -87 -14q-43 -16 -69 -38q-29 -24 -45 -55t-16 -69v-610h-221z" />
<glyph unicode="&#xe10;" horiz-adv-x="870" d="M27 676q28 57 72 93q47 37 99 60q54 23 105 32q53 9 96 9q42 0 96 -9q55 -9 107 -36q37 22 45 59q8 38 12 64h119q-6 -38 -32 -86t-82 -80q64 -50 101 -132q36 -81 36 -230q0 -89 -31 -170q-29 -75 -76 -133q-45 -56 -95 -86q-51 -31 -89 -31h-158l-98 358q-10 37 -30 46 q-23 11 -48 12l35 110q44 0 70 -11q31 -13 47 -29q19 -19 28 -37q10 -21 15 -39l88 -324h8q14 0 48 18q32 17 67 58q33 39 58 101q26 64 26 153q0 111 -26 184q-25 71 -65 114q-38 41 -86 58q-45 16 -90 16q-82 0 -140 -29q-59 -30 -103 -108zM98 -195h125l115 115l115 -115 h55q47 0 75 17q27 17 27 82v53h125v-63q0 -50 -15 -85q-14 -33 -40 -54q-24 -19 -57 -27q-40 -9 -68 -9h-131l-86 86l-86 -86h-154v86z" />
<glyph unicode="&#xe11;" horiz-adv-x="903" d="M0 748l39 104q35 -16 74 -52q40 -37 57 -73h6l53 123h43v-137l4 -2q44 87 115 122q70 35 137 35q124 0 194 -60q71 -60 71 -179v-629h-131v629q0 20 -7 53q-6 29 -22 51q-17 23 -44 38t-71 15q-51 0 -93 -23q-43 -24 -78 -63q-32 -36 -54 -88q-21 -50 -21 -98v-514h-131 v594q-17 69 -59 106q-44 38 -82 48z" />
<glyph unicode="&#xe12;" horiz-adv-x="1372" d="M57 414q0 217 90 334q89 116 240 116q54 0 97 -25q45 -26 77 -85l119 94h111v-565q0 -31 15 -67q15 -35 41 -66q29 -35 61 -53q36 -21 77 -21q74 0 110 37q35 36 35 116v619h132v-647q0 -104 -62 -163q-61 -58 -174 -58q-82 0 -149 43q-70 45 -93 100v-123h-122v748 l-125 -93q-28 65 -59 96q-29 29 -93 29q-39 0 -73 -24q-33 -23 -58 -72q-24 -47 -38 -114q-13 -61 -11 -148q5 -155 51 -249t162 -105q18 -2 41 3q21 4 37 17l16 -74q-22 -14 -58 -22q-38 -8 -69 -8q-82 0 -140 35q-61 36 -103 97q-42 60 -63 137q-22 80 -22 161z" />
<glyph unicode="&#xe13;" horiz-adv-x="1306" d="M102 705v55q24 21 58 37q35 17 82 34q45 17 96 27q49 10 104 10q62 0 113 -12q50 -12 89 -40q38 -27 59 -71q22 -46 22 -104v-412q0 -79 36 -116t109 -37q41 0 77 21q34 20 62 53q26 31 41 66q15 36 15 67v567h129v-850h-123v123q-24 -56 -93 -100q-68 -43 -149 -43 q-113 0 -172 58t-59 163v411q0 76 -36 125t-136 49q-98 0 -143 -52t-45 -124v-532h98v-78h-230v496q0 66 12 106q13 43 54 86q-1 0 -4.5 1.5t-5.5 2.5t-5.5 2.5t-4.5 1.5q-22 9 -50 9z" />
<glyph unicode="&#xe14;" horiz-adv-x="911" d="M66 432q0 212 105 326t286 114q74 0 135 -16q64 -17 109 -53q46 -37 73 -94t27 -140v-569h-129v547q0 122 -58 183t-161 61q-43 0 -89 -19q-43 -18 -78 -59t-56 -108q-21 -66 -21 -165q0 -82 14 -144q16 -71 44 -117q31 -52 73 -79q43 -28 100 -28q21 0 38 4q21 5 30 10 l16 -72q-43 -26 -112 -26q-87 0 -151 40q-65 41 -108 103q-46 67 -66 142q-21 79 -21 159z" />
<glyph unicode="&#xe15;" horiz-adv-x="911" d="M45 418q0 128 34 212q34 85 85 136q53 53 109 73q59 21 106 21q67 0 113 -30q49 -31 71 -72l115 92h121v-850h-129v752l-129 -91q-31 69 -73 90t-87 21q-35 0 -66 -20q-33 -21 -60 -63q-27 -43 -45 -107q-17 -62 -17 -158q0 -76 13 -137q14 -67 40 -111q28 -49 67 -76 t99 -32q18 -2 41 3q20 4 36 15l17 -72q-43 -26 -127 -26q-83 0 -145 37t-104 98t-63 138q-22 80 -22 157z" />
<glyph unicode="&#xe16;" horiz-adv-x="888" d="M102 705v55q23 20 62 37q35 16 92 34q52 17 106 27q53 10 109 10q62 0 116 -12q52 -11 96 -40q43 -28 67 -71t24 -104v-641h-127v612q0 76 -46 125t-146 49q-49 0 -87 -14q-43 -16 -69 -38q-29 -24 -45 -55t-16 -69v-532h98v-78h-230v496q0 66 12 106q13 43 54 86 q-1 0 -4.5 1.5t-5.5 2.5t-5.5 2.5t-4.5 1.5q-22 9 -50 9z" />
<glyph unicode="&#xe17;" horiz-adv-x="874" d="M113 0v850h120v-148l5 -2q21 44 52 75t67 52q35 20 73 31q36 10 70 10q122 0 193 -60t71 -179v-629h-131v629q0 25 -6 53t-23 51t-44 38t-71 15q-51 0 -93 -23q-44 -24 -78 -63q-32 -36 -54 -88q-20 -47 -20 -98v-514h-131z" />
<glyph unicode="&#xe18;" horiz-adv-x="845" d="M94 686q0 74 57 123q56 49 142 47l450 -6l-18 -90l-418 4q-35 0 -63 -22q-27 -21 -27 -50q0 -33 22 -52q19 -16 58 -32l258 -98q102 -40 158 -100q57 -62 57 -177q0 -61 -26 -108t-70 -81q-42 -32 -107 -51q-61 -18 -133 -18q-88 0 -151 23q-64 23 -101 59q-38 36 -56 85 q-17 45 -17 98v225h124v-217q0 -32 13 -69q11 -31 38 -60q25 -26 63 -43q39 -17 89 -17q36 0 75 13q34 11 62 33q24 19 43 53q17 31 17 67q0 52 -25 96q-24 42 -102 72l-260 103q-74 29 -113 69q-39 41 -39 121z" />
<glyph unicode="&#xe19;" horiz-adv-x="874" d="M113 242v608h129v-565q0 -38 9 -79t30 -71q23 -32 52 -49q32 -19 79 -14q54 2 94 28t69 65q27 36 43 83q15 45 15 86v516h131v-850h-113l-6 150q-18 -46 -51 -77q-34 -32 -71 -53q-34 -19 -77 -29q-39 -9 -71 -9q-124 0 -193 70q-69 71 -69 190z" />
<glyph unicode="&#xe1a;" horiz-adv-x="874" d="M113 270v580h129v-592q0 -94 51 -146q51 -53 145 -53q81 0 139 53q56 52 56 146v592h131v-580q0 -63 -16 -114q-16 -52 -55 -94q-36 -39 -100 -62t-155 -23q-95 0 -159 23q-65 23 -101 62q-35 38 -51 94q-14 49 -14 114z" />
<glyph unicode="&#xe1b;" horiz-adv-x="890" d="M113 270v580h129v-592q0 -94 55 -146q56 -53 149 -53q82 0 143 53q60 52 60 146v961h131v-949q0 -64 -17 -114q-19 -56 -57 -94q-39 -39 -105 -62t-157 -23q-96 0 -162 23q-67 23 -103 62t-52 94q-14 49 -14 114z" />
<glyph unicode="&#xe1c;" horiz-adv-x="1003" d="M72 416q0 78 12 157q12 81 42 145t79 104t125 40q80 0 121 -24l-15 -78q-35 24 -71 20q-50 -5 -81 -37q-32 -34 -50 -83q-16 -44 -24 -115q-7 -62 -7 -133q0 -172 30 -262q30 -91 101 -91q31 0 53 16q21 15 33 38q11 21 16 49q4 24 4 49v352h121v-352q0 -20 5 -50 q4 -24 18 -50q13 -24 32 -38q22 -16 54 -16q33 0 52 15q21 16 29 32q9 19 11 37q2 24 2 29v680h131v-641q0 -39 -8 -82q-7 -39 -31 -74q-23 -34 -62 -54q-42 -22 -104 -22q-16 0 -49 7q-31 6 -56 22q-28 17 -50 42t-33 67q-11 -42 -33 -67q-23 -26 -49 -42t-53 -22 q-31 -7 -48 -7q-75 0 -125 31q-47 30 -75 88q-26 56 -37 138q-10 77 -10 182z" />
<glyph unicode="&#xe1d;" horiz-adv-x="1003" d="M72 416q0 78 12 157q12 81 42 145t79 104t125 40q80 0 121 -24l-15 -78q-35 24 -71 20q-50 -5 -81 -37q-32 -34 -50 -83q-16 -44 -24 -115q-7 -62 -7 -133q0 -172 30 -262q30 -91 101 -91q31 0 53 16q21 15 33 38q11 21 16 49q4 24 4 49v352h121v-352q0 -20 5 -50 q4 -24 18 -50q13 -24 32 -38q22 -16 54 -16q33 0 52 15q21 16 29 32q9 19 11 37q2 24 2 29v1049h131v-1010q0 -39 -8 -82q-7 -39 -31 -74q-23 -34 -62 -54q-42 -22 -104 -22q-16 0 -49 7q-31 6 -56 22q-28 17 -50 42t-33 67q-11 -42 -33 -67q-23 -26 -49 -42t-53 -22 q-31 -7 -48 -7q-75 0 -125 31q-47 30 -75 88q-26 56 -37 138q-10 77 -10 182z" />
<glyph unicode="&#xe1e;" horiz-adv-x="1003" d="M113 209v641h129v-678q0 -42 22 -77q22 -36 78 -36q26 0 46 15q19 15 31 34q11 18 16 42q5 25 5 38v662h121v-664q0 -16 6 -39q5 -20 19 -42q12 -19 32 -32q22 -14 50 -14q50 0 73 32t23 79v680h131v-641q0 -104 -47 -168t-148 -64q-23 0 -55 8q-35 9 -59 24 q-29 19 -52 44q-25 28 -32 64q-22 -77 -75 -108q-53 -32 -105 -32q-110 0 -160 64q-49 62 -49 168z" />
<glyph unicode="&#xe1f;" horiz-adv-x="1003" d="M113 209v641h129v-678q0 -42 22 -77q22 -36 78 -36q26 0 46 15q19 15 31 34q11 18 16 42q5 25 5 38v662h121v-664q0 -16 6 -39q5 -20 19 -42q12 -19 32 -32q22 -14 50 -14q50 0 73 32t23 79v1049h131v-1010q0 -104 -47 -168t-148 -64q-23 0 -55 8q-35 9 -59 24 q-29 19 -52 44q-25 28 -32 64q-22 -77 -75 -108q-53 -32 -105 -32q-110 0 -160 64q-49 62 -49 168z" />
<glyph unicode="&#xe20;" horiz-adv-x="907" d="M31 0v78h94v418q0 69 11 106q13 43 54 86q-1 0 -4.5 1.5t-5.5 2.5t-5.5 2.5t-4.5 1.5q-22 9 -49 9v55q24 21 61 37q35 16 92 34q50 16 107 27q53 10 108 10q62 0 116 -12q52 -11 96 -40q43 -28 67 -71q25 -45 25 -104v-641h-127v612q0 76 -46 125t-147 49q-49 0 -87 -14 q-43 -16 -69 -38q-29 -24 -45 -55t-16 -69v-610h-225z" />
<glyph unicode="&#xe21;" horiz-adv-x="874" d="M113 0v850h131v-516q0 -44 14 -86q16 -47 43 -83q28 -37 70 -65q40 -26 94 -28q44 -4 78 14q30 16 53 49q21 30 30 71t9 79v565h129v-608q0 -118 -70 -190q-69 -70 -192 -70q-33 0 -72 9q-43 10 -77 29q-35 20 -70 53q-34 33 -52 77l-6 -150h-112z" />
<glyph unicode="&#xe22;" horiz-adv-x="870" d="M92 242q0 78 47 142q46 62 142 73q-95 11 -140 68q-47 60 -43 130q1 76 38 123q37 48 88 67q50 19 112 14q58 -4 106 -32l-24 -77q-77 29 -127 2q-51 -27 -62 -97q-4 -32 9 -63q12 -28 36 -48q25 -20 59 -32q36 -13 70 -14v-74q-32 0 -62 -13q-31 -13 -57 -38 q-26 -24 -41 -58q-16 -35 -16 -71q0 -28 11 -61q11 -34 33 -60q25 -30 64 -47q43 -19 99 -19q88 0 141 56q54 57 54 153v584h131v-582q0 -134 -77 -213q-77 -78 -251 -78q-72 0 -135 17q-64 17 -108 50q-46 34 -71 83q-26 50 -26 115z" />
<glyph unicode="&#xe23;" horiz-adv-x="860" d="M63 221l125 23q16 -88 85 -136q70 -49 161 -49q39 0 80 11q43 12 70 29q32 21 49 49q18 30 18 69q0 49 -31 83q-30 33 -88 44l-186 35q-53 8 -96 25t-79 47q-33 27 -53 70t-20 100q0 58 26 105t71 77q47 31 103 47q57 16 126 16q124 0 212 -52q90 -54 114 -163l-115 -24 q-16 70 -69 114q-52 43 -144 43q-77 0 -132 -38q-54 -38 -54 -101q0 -77 38 -100q42 -26 97 -33l194 -33q118 -21 170 -88q53 -68 53 -147q0 -74 -30 -124t-81 -82q-48 -30 -115 -46q-64 -15 -130 -15q-59 0 -121 14q-61 14 -109 43q-50 30 -87 76t-52 111z" />
<glyph unicode="&#xe24;" horiz-adv-x="888" d="M102 705v55q23 20 62 37q35 16 92 34q52 17 106 27q53 10 109 10q62 0 116 -12q52 -11 96 -40q43 -28 67 -71t24 -104v-907h-127v878q0 76 -46 125t-146 49q-49 0 -87 -14q-43 -16 -69 -38q-29 -24 -45 -55t-16 -69v-532h98v-78h-230v496q0 66 12 106q13 43 54 86 q-1 0 -4.5 1.5t-5.5 2.5t-5.5 2.5t-4.5 1.5q-22 9 -50 9z" />
<glyph unicode="&#xe25;" horiz-adv-x="890" d="M76 223q0 71 28 121q28 51 76 86q44 33 109 55q63 22 125 29q63 8 125 6q60 -1 110 -12v129q0 47 -19 76q-20 31 -50 49q-28 17 -69 25q-40 8 -75 8q-87 0 -144 -42q-55 -41 -77 -104l-127 19q21 57 58 97q34 37 88 63q47 23 108 34q54 10 115 10q84 0 143 -20 q63 -21 101 -54q41 -35 60 -80t19 -95v-625h-131v442q-79 10 -162 5q-77 -4 -138 -29q-59 -23 -97 -71q-37 -46 -37 -118q0 -52 26 -89t65 -54q44 -20 88 -21q48 -2 95 15l19 -62q-66 -29 -143 -31q-75 -1 -141 26q-62 26 -106 81q-42 53 -42 131z" />
<glyph unicode="&#xe26;" horiz-adv-x="907" d="M31 0v78h94v418q0 69 11 106q13 43 54 86q-1 0 -4.5 1.5t-5.5 2.5t-5.5 2.5t-4.5 1.5q-22 9 -49 9v55q24 21 61 37q35 16 92 34q50 16 107 27q53 10 108 10q62 0 116 -12q52 -11 96 -40q43 -28 67 -71q25 -45 25 -104v-907h-127v878q0 76 -46 125t-147 49q-49 0 -87 -14 q-43 -16 -69 -38q-29 -24 -45 -55t-16 -69v-610h-225z" />
<glyph unicode="&#xe27;" horiz-adv-x="872" d="M41 283l125 12q7 -42 24 -86q15 -39 46 -77q27 -32 70 -54q42 -21 104 -21q68 0 114 38q45 37 72 93q25 52 38 119q11 58 11 115q0 56 -11 114q-12 64 -38 117q-26 54 -72 92q-44 37 -114 37q-66 0 -107 -20q-46 -22 -71 -54q-29 -37 -43 -76q-16 -45 -23 -85l-125 12 q11 61 40 122q26 55 74 97t109 65q60 23 148 23q100 0 171 -38q70 -37 115 -100t66 -142q20 -76 20 -164q0 -84 -21 -164q-20 -76 -67 -142q-46 -64 -115 -101q-71 -38 -169 -38q-81 0 -144 24q-61 23 -109 65q-46 40 -76 96t-42 121z" />
<glyph unicode="&#xe28;" horiz-adv-x="874" d="M98 0v590q0 55 21 106q22 53 63 90q44 39 108 63q62 23 150 23q71 0 120 -14q55 -16 93 -41q27 51 78 75q50 23 96 28l17 -105q-35 2 -71 -7q-37 -9 -60 -44q28 -37 43 -82q14 -42 14 -92v-590h-127v600q0 98 -59 144q-61 47 -146 47q-86 0 -150 -47q-63 -46 -63 -144 v-201q21 46 51 74q31 29 65 44q37 16 68 20q29 4 58 2v-115q-47 6 -90 -12q-37 -15 -77 -50q-32 -28 -54 -67q-21 -37 -21 -68v-227h-127z" />
<glyph unicode="&#xe29;" horiz-adv-x="878" d="M113 270v580h129v-592q0 -94 51 -146q51 -53 145 -53q81 0 139 53q56 52 56 146v162l-94 -2q-61 -2 -103 15q-45 18 -67 44l69 80q29 -41 71 -50q40 -9 83 -7l41 2v348h131v-342l92 2v-82l-92 -2v-156q0 -63 -16 -114q-16 -52 -55 -94q-36 -39 -100 -62t-155 -23 q-95 0 -159 23q-65 23 -101 62q-35 38 -51 94q-14 49 -14 114z" />
<glyph unicode="&#xe2a;" horiz-adv-x="890" d="M76 223q0 71 28 121q28 51 76 86q44 33 109 55q63 22 125 29q63 8 125 6q60 -1 110 -12v129q0 47 -19 76q-20 31 -50 49q-28 17 -69 25q-40 8 -75 8q-87 0 -144 -42q-55 -41 -77 -104l-127 19q21 57 58 97q34 37 88 63q47 23 108 34q54 10 115 10q67 0 116 -13 q53 -14 91 -36q29 49 78 76q53 29 100 29l16 -107q-32 2 -71 -7q-38 -9 -62 -40q55 -65 55 -151v-625h-131v442q-79 10 -162 5q-77 -4 -138 -29q-59 -23 -97 -71q-37 -46 -37 -118q0 -52 26 -89t65 -54q44 -20 88 -21q48 -2 95 15l17 -55q-61 -44 -133 -47q-74 -3 -141 26 q-65 28 -111 86q-45 57 -45 135z" />
<glyph unicode="&#xe2b;" horiz-adv-x="874" d="M113 0v850h129v-363q23 43 55 75q26 26 62 50q26 17 63 34q40 18 59 26q62 28 110 67q49 40 54 111h156q-4 -19 -17 -48q-14 -32 -35 -58q-22 -27 -59 -58q-33 -27 -84 -49q76 -16 117 -68t41 -118v-451h-131v420q0 53 -40 99t-118 46q-48 0 -89 -29q-43 -31 -75 -73 q-33 -44 -51 -91q-18 -48 -18 -85v-287h-129z" />
<glyph unicode="&#xe2c;" horiz-adv-x="1003" d="M113 209v641h129v-678q0 -41 22 -75t78 -34q26 0 46 14q19 13 31 33q11 18 16 41t5 37v476h121v-478q0 -17 6 -38q5 -18 19 -39q13 -20 32 -32q22 -14 50 -14q50 0 73 30q23 31 23 77v438q0 38 -11 61q-12 25 -27 42q-14 15 -32 25q-21 11 -28 14v14q9 1 29 11 q16 8 33 25q16 16 26 38q10 21 10 53v43h131v-45q0 -54 -40 -88t-83 -49q42 -10 83 -53q40 -41 40 -101v-389q0 -104 -47 -168t-148 -64q-23 0 -55 8q-35 9 -59 24q-29 19 -52 44q-25 28 -32 64q-22 -77 -75 -108q-53 -32 -105 -32q-110 0 -160 64q-49 62 -49 168z" />
<glyph unicode="&#xe2d;" horiz-adv-x="921" d="M70 477h389v-90h-248q-4 -78 14 -141q18 -61 53 -104t79 -64q48 -23 98 -23q55 0 103 21q51 22 83 63q33 42 55 110q21 66 21 161q0 190 -75 284t-187 94q-88 0 -155 -50q-66 -50 -89 -142l-131 14q16 61 51 106q37 48 88 82q49 33 112 52q60 18 124 18q71 0 143 -24 q69 -23 128 -79q55 -52 92 -141q36 -87 36 -210q0 -213 -106 -326q-107 -115 -293 -115q-106 0 -180 40q-73 39 -122 110q-48 69 -69 161q-20 88 -14 193z" />
<glyph unicode="&#xe2e;" horiz-adv-x="921" d="M70 477h389v-90h-248q-4 -78 14 -141q18 -61 53 -104t79 -64q48 -23 98 -23q55 0 103 21q51 22 83 63q33 42 55 110q21 66 21 161q0 190 -75 284t-187 94q-88 0 -155 -50q-66 -50 -89 -142l-131 14q16 61 51 106q37 48 88 82q49 33 112 52q60 18 124 18q56 0 108 -14 q59 -16 103 -43q34 51 91 77q60 28 103 32l12 -105q-32 2 -71 -9q-45 -12 -72 -44q55 -52 90 -139t35 -209q0 -213 -106 -326q-107 -115 -293 -115q-106 0 -180 40q-73 39 -122 110q-48 69 -69 161q-20 88 -14 193z" />
<glyph unicode="&#xe2f;" horiz-adv-x="870" d="M78 614q-4 42 11 88q14 43 47 82q30 36 79 61q45 23 107 23q53 0 96 -13q44 -13 74 -32l-29 -71q-45 18 -88 17q-48 -2 -82 -18q-37 -18 -61 -52q-23 -33 -23 -83q0 -36 17 -61q18 -27 44 -47t60 -31q31 -10 63 -10q54 0 95 17q47 19 75 46q30 28 48 68q18 39 18 80v172 h131v-850h-131v500q-44 -53 -110 -92q-62 -37 -154 -37q-55 0 -100 17q-48 18 -88 49q-37 29 -66 77q-27 45 -33 100z" />
<glyph unicode="&#xe30;" horiz-adv-x="458" d="M39 197l104 71q17 -27 41 -51q26 -26 78 -24l135 6v-95l-196 -6q-52 -2 -98 31q-45 32 -64 68zM39 676l104 72q18 -29 41 -52q26 -26 78 -24l135 6v-94l-196 -6q-54 -2 -98 30q-45 32 -64 68z" />
<glyph unicode="&#xe31;" d="M-561 1137l104 71q18 -34 67 -54q47 -19 114 -19l276 2v-86l-358 -7q-16 0 -56 6q-26 4 -59 16q-30 13 -52 29q-24 18 -36 42z" />
<glyph unicode="&#xe32;" horiz-adv-x="583" d="M20 784q42 33 100 60q59 28 136 28q110 0 163 -52q54 -52 54 -113v-707h-131v676q0 63 -32 89t-95 26q-45 0 -87 -22q-31 -16 -58 -34z" />
<glyph unicode="&#xe33;" horiz-adv-x="583" d="M-350 1137q0 34 14 59q14 26 39 46q23 19 55 30q29 10 64 10q66 0 118 -40t52 -105q0 -66 -50 -108t-120 -42q-72 0 -122 42t-50 108zM-262 1137q0 -33 24 -53q23 -19 60 -19q35 0 58 19q24 20 24 53q0 30 -23 50q-22 19 -59 19t-60 -19q-24 -19 -24 -50zM20 784 q42 33 100 60q59 28 136 28q110 0 163 -52q54 -52 54 -113v-707h-131v676q0 63 -32 89t-95 26q-45 0 -87 -22q-31 -16 -58 -34z" />
<glyph unicode="&#xe34;" d="M-770 1047l39 90h618v-90h-657z" />
<glyph unicode="&#xe35;" d="M-768 1047l39 90h487v120h131v-210h-657z" />
<glyph unicode="&#xe36;" d="M-768 1047l39 90h356q-15 65 35 106t129 41q70 0 108 -38t38 -91q0 -108 -144 -108h-561zM-291 1157q0 -28 22 -42q20 -13 50 -13q31 0 50 13t19 42q0 57 -69 57q-29 0 -50 -15q-22 -16 -22 -42z" />
<glyph unicode="&#xe37;" d="M-766 1047l39 90h383v131h45q16 0 23 -10t8 -21l6 -66q1 -15 9 -27q7 -11 30 -11q21 0 26 11q8 16 9 27l6 66q1 11 8 21t22 10h41v-221h-655z" />
<glyph unicode="&#xe38;" d="M-319 -195l26 84h109q35 0 54 -23t19 -63v-163h-112v122q0 43 -41 43h-55z" />
<glyph unicode="&#xe39;" d="M-584 -188l35 79h98q37 0 51 -23q15 -24 15 -63v-57q0 -23 19 -38q20 -15 57 -15q76 0 76 65v131h122v-133q0 -82 -48 -109q-50 -28 -152 -28q-99 0 -139 33q-39 32 -39 67v43q0 48 -41 48h-54z" />
<glyph unicode="&#xe3a;" d="M-254 -190q0 34 22 56q21 21 56 21t56 -21q22 -22 22 -56q0 -35 -22 -57q-21 -21 -56 -21t-56 21q-22 22 -22 57z" />
<glyph unicode="&#xe3e;" />
<glyph unicode="&#xe3f;" horiz-adv-x="1107" d="M113 0v1182h313v110h82v-110h47q84 -5 148 -22q70 -19 115 -53q48 -36 75 -93t27 -140q0 -129 -77 -195q-76 -66 -200 -81q61 -6 120 -24q62 -19 102 -51q47 -37 72 -89q28 -58 28 -137q0 -77 -32 -133q-31 -54 -83 -91q-51 -36 -116 -54q-63 -17 -130 -19h-96v-145h-82 v145h-313zM254 100h172v443h-172v-443zM254 649h172v428h-172v-428zM508 100q137 -5 218 45q81 49 81 172q0 130 -82 179t-217 45v-441zM508 649q141 -5 201 51q59 55 59 175q0 111 -69 160t-191 42v-428z" />
<glyph unicode="&#xe40;" horiz-adv-x="372" d="M121 0v850h129v-850h-129z" />
<glyph unicode="&#xe41;" horiz-adv-x="692" d="M121 0v850h129v-850h-129zM440 0v850h129v-850h-129z" />
<glyph unicode="&#xe42;" horiz-adv-x="372" d="M70 1119q6 25 24 46t47 32q26 11 64 11h211l22 -84h-172q-37 0 -59 -16q-23 -17 4 -70q18 -33 29 -56q12 -26 12 -73v-909h-129v907q0 35 -4 52q-6 24 -11 35q-8 16 -17 31q-10 16 -17 38q-10 29 -4 56z" />
<glyph unicode="&#xe43;" horiz-adv-x="372" d="M-127 1124q38 35 94 64q51 26 135 26q85 0 141 -33q58 -34 58 -100q0 -22 -8 -38q-2 -5 -8.5 -15.5t-9.5 -16.5q-9 -17 -16 -41q-7 -22 -7 -65v-905h-129v918q0 35 16 64q18 33 23 50q16 55 -22 79t-99 24q-35 0 -69 -18q-33 -17 -56 -40z" />
<glyph unicode="&#xe44;" horiz-adv-x="372" d="M-63 1124l22 84h211q37 0 63 -11q32 -14 48 -32q18 -21 24 -46q6 -27 -4 -56q-7 -22 -17 -38q-9 -15 -17 -31q-5 -11 -11 -35q-4 -17 -4 -52v-907h-129v909q0 47 12 73q11 23 29 56q27 53 4 70q-22 16 -59 16h-172z" />
<glyph unicode="&#xe45;" horiz-adv-x="583" d="M20 784q42 33 100 60q59 28 136 28q110 0 163 -52q54 -52 54 -113v-971h-131v940q0 63 -32 89t-95 26q-47 0 -91 -23q-47 -24 -69 -45z" />
<glyph unicode="&#xe46;" horiz-adv-x="970" d="M231 613q-4 55 19 106q22 49 67 83q44 33 107 38l117 -90l121 90q36 -4 75 -23q37 -18 66 -48t45 -69q16 -38 16 -84v-880h-127v878q0 63 -29 89q-31 28 -53 28l-114 -80l-113 82q-26 2 -46 -10q-22 -12 -35 -36q-13 -23 -13 -55q0 -34 20 -67l-84 -55q-35 47 -39 103z " />
<glyph unicode="&#xe47;" d="M-709 1182q0 64 40 113q42 51 106 51h446v-70h-379q-37 0 -64 -24q-28 -25 -28 -70q0 -53 19 -70q17 -15 34 -20l129 71l89 -49q36 -22 69 -14q21 5 34 18q14 15 19 43l86 -35q2 -46 -30 -79q-33 -35 -86 -35q-21 0 -45 4q-29 5 -49 18l-89 53l-88 -53q-11 -6 -27 -13 q-17 -7 -34 -7q-71 0 -111 51q-41 52 -41 117z" />
<glyph unicode="&#xe48;" d="M-236 1370v225h125v-225h-125z" />
<glyph unicode="&#xe49;" d="M-414 1493l29 82q42 10 79 1q35 -9 55 -33t21 -58q1 -33 -24 -76q33 0 71 7q37 7 82 23q42 15 81 39t67 58l8 -109q-82 -53 -198 -75q-113 -21 -242 -9v19q17 13 26 33t7 40q-1 18 -17 35t-45 23z" />
<glyph unicode="&#xe4a;" d="M-424 1456q0 42 27 69t69 31q30 2 46 -5q20 -8 30 -17q22 -27 23 -29q6 16 20 27q11 11 31 18q21 7 49 6q23 0 42 -12t31 -33q12 -20 13 -47q2 -29 -12 -55q45 17 60 42t15 91l76 -31q-11 -93 -78 -133q-68 -40 -159 -24q26 27 26 65q0 19 -13 35q-14 18 -40 19 q-21 0 -38 -10q-16 -10 -23 -23q-6 13 -24 25q-16 12 -38 8q-28 -4 -36 -23q-7 -17 -7 -31q0 -19 5 -36q3 -9 14 -25h-68q-9 7 -25 29t-16 69z" />
<glyph unicode="&#xe4b;" d="M-342 1448v76h111v104h116v-104h113v-76h-113v-102h-116v102h-111z" />
<glyph unicode="&#xe4c;" d="M-238 1229q0 40 8 80q7 37 31 65t74 45q51 17 133 17v-56q-45 0 -67 -14q-25 -16 -38 -36q-14 -22 -17 -48q-3 -24 -1 -53h-123z" />
<glyph unicode="&#xe4d;" d="M-350 1137q0 34 14 59q14 26 39 46q23 19 55 30q29 10 64 10q66 0 118 -40t52 -105q0 -66 -50 -108t-120 -42q-72 0 -122 42t-50 108zM-262 1137q0 -33 24 -53q23 -19 60 -19q35 0 58 19q24 20 24 53q0 30 -23 50q-22 19 -59 19t-60 -19q-24 -19 -24 -50z" />
<glyph unicode="&#xe4e;" d="M-336 1038q0 102 47 158t105 74q7 33 20 59q17 33 38 56q25 26 56 42q34 17 78 17v-105q-66 0 -85 -46q-19 -45 -19 -113q-66 0 -101 -38q-34 -37 -34 -104h-105z" />
<glyph unicode="&#xe4f;" horiz-adv-x="1024" d="M102 426q0 84 33 159t88 130t130 88t159 33q86 0 161 -33t130 -88t88 -130t33 -159q0 -86 -33 -161t-88 -130t-130 -88t-161 -33q-84 0 -159 33t-130 88t-88 130t-33 161zM180 426q0 -69 26 -130q27 -63 70 -106q42 -42 106 -71q60 -27 130 -27t130 27q64 29 106 71 t71 106q27 60 27 130t-27 130q-29 64 -71 106t-106 71q-60 27 -130 27t-130 -27q-64 -29 -106 -71q-43 -43 -70 -106q-26 -61 -26 -130zM279 426q0 49 18 91t50 74t74 50t91 18t91 -18t74 -50t50 -74t18 -91t-18 -91t-50 -74t-74 -50t-91 -18t-91 18t-74 50t-50 74t-18 91z M342 426q0 -72 49 -121t121 -49t121 49t49 121t-49 121t-121 49t-121 -49t-49 -121z" />
<glyph unicode="&#xe50;" horiz-adv-x="1187" d="M78 430q0 102 37 183q39 86 104 141q68 58 164 89q94 31 217 31q107 0 200 -30q92 -30 162 -89q67 -57 107 -143q39 -84 39 -190q0 -99 -38 -180t-106 -137q-69 -57 -165 -87t-213 -30q-114 0 -204 29q-94 30 -161 87t-105 140q-38 84 -38 186zM231 430q0 -81 27 -147 q27 -65 75 -112t112 -72q63 -25 143 -25q84 0 150 23q69 24 117 69q49 46 75 107t26 143q0 180 -99 277q-100 98 -261 98q-87 0 -159 -28q-66 -26 -114 -77q-47 -50 -69 -115q-23 -67 -23 -141z" />
<glyph unicode="&#xe51;" horiz-adv-x="1187" d="M100 541q0 73 35 135q34 61 98 105q66 46 151 69q87 24 189 24q127 0 219 -32q94 -33 160 -93t101 -146q34 -84 34 -187q0 -91 -36 -166q-37 -78 -106 -136q-67 -57 -166 -92q-96 -34 -218 -34q-92 0 -181 17q-96 18 -167 67l31 98q39 -34 81 -54q41 -19 83 -30 q38 -10 80 -13q41 -3 73 -3q88 0 156 28q69 28 118 76q46 45 73 111q26 64 26 131q0 187 -98 279q-99 93 -265 93q-73 0 -129 -19q-58 -20 -99 -52t-64 -78t-23 -96q0 -92 46 -135t110 -43q32 0 62 9t48 27q20 19 24 48q5 30 -9 65h69q16 -33 12 -76q-5 -45 -29 -81 q-25 -37 -74 -63t-118 -26q-44 0 -101 13q-49 11 -95 43q-42 29 -72 84q-29 53 -29 133z" />
<glyph unicode="&#xe52;" horiz-adv-x="1214" d="M14 879l52 147q97 -38 132 -169q34 -127 29 -347q-6 -216 61 -321q66 -103 185 -103h295q219 0 219 344q0 164 -20 253q-21 92 -93 97q-28 0 -51 -22q-25 -23 -44 -60q-19 -36 -31 -85q-14 -55 -15 -99h-78q-1 51 -14 103q-12 51 -33 88t-49 58q-29 21 -61 17 q-36 -5 -61 -59q-25 -53 -23 -148q0 -54 8 -107q8 -51 25 -87q18 -37 42 -58q25 -22 58 -22q22 0 49 18q26 18 37 45l53 -49q-10 -34 -49 -67t-100 -33q-53 0 -98 31q-43 30 -74 82q-33 55 -48 117q-16 64 -16 139q0 130 52 209t147 79q50 0 83 -16t56 -42t35 -56 q11 -28 18 -60h4q6 29 20 60q14 32 37 56q25 26 59 42q35 16 87 16q51 0 94 -22t72 -73q28 -49 45 -133q16 -80 16 -206q0 -132 -27 -218q-26 -83 -76 -133q-49 -49 -113 -67t-138 -18h-305q-203 0 -293 129q-90 130 -86 363q2 199 -15 280q-18 89 -59 107z" />
<glyph unicode="&#xe53;" horiz-adv-x="1187" d="M84 459q0 108 26 188q26 81 65 128q42 51 90 73t102 22q52 0 87 -17q40 -19 65 -44q29 -29 44 -59q17 -34 23 -64h4q5 33 19 64q13 29 43 59q24 24 67 44q37 17 92 17q47 0 97 -17q52 -18 96 -65q42 -45 71 -132t29 -222q0 -85 -20 -159q-20 -73 -51 -131 q-33 -61 -71 -102q-45 -48 -81 -75l-86 47q66 51 118 149q50 95 50 265q0 101 -14 173q-13 68 -36 109q-22 39 -55 56q-32 16 -72 16q-35 0 -61 -25q-26 -24 -46 -65q-19 -37 -31 -87q-10 -38 -15 -93h-96q-1 35 -12 93q-9 48 -27 87q-18 40 -48 65q-29 25 -73 25 q-26 0 -53 -15q-28 -16 -49 -53q-19 -34 -35 -100q-15 -62 -15 -153q0 -77 14 -152q14 -74 37 -126q24 -54 59 -86q34 -31 75 -31q26 0 46 13q22 14 38 50l43 -47q-11 -39 -42 -69q-30 -29 -100 -29q-61 0 -117 34t-100 98q-42 61 -68 149q-26 89 -26 194z" />
<glyph unicode="&#xe54;" horiz-adv-x="1187" d="M104 420q0 210 128 329q126 117 376 117q107 0 171 4q75 5 128 22q56 18 94 52q41 36 70 94l82 -98q-28 -58 -86 -92q-57 -33 -128 -48q-78 -17 -148 -18q-104 -2 -148 -2q-192 0 -291 -87q-98 -86 -98 -273q0 -149 76 -240q77 -92 213 -110q46 -6 100 -5q76 2 111 3v6 q-105 21 -167 89q-63 69 -63 167q0 47 19 88q18 38 48 64t66 40q37 15 74 15q65 0 103 -23q36 -22 59 -74l-53 -49q-15 40 -38 51q-26 13 -52 13q-40 0 -75 -32q-34 -31 -34 -97q0 -45 20 -84q21 -41 60 -74q38 -32 94 -52q55 -20 123 -18h41q23 0 37 1q19 1 37 3l26 -98 q-86 0 -174 -2q-25 -1 -65 -2.5t-53 -1.5q-17 0 -52.5 -1.5t-53.5 -2.5q-72 -2 -140 -2q-74 0 -152 24q-77 24 -141 77q-64 54 -104 133q-40 80 -40 194z" />
<glyph unicode="&#xe55;" horiz-adv-x="1187" d="M104 410q0 102 31 179q29 73 81 125q49 49 114 80q63 30 129 42q-26 24 -31 43q-6 21 -6 45q0 53 52 92t126 39q72 0 120 -39t48 -92q0 -18 -1 -26q-2 -13 -11 -32q134 12 205 52t110 120l84 -102q-39 -61 -103 -97q-65 -36 -138 -53q-66 -15 -146 -20q-65 -4 -131 -4 q-385 0 -385 -354q0 -141 77 -233q76 -91 212 -109q53 -7 101 -6q62 2 110 3l2 9q-104 18 -168 88t-64 168q0 47 19 88q18 38 48 64t66 40q37 15 74 15q64 0 102 -23q37 -22 60 -74l-49 -47q-15 34 -39 49t-55 15q-41 0 -74 -34q-33 -35 -33 -99q0 -43 20 -83q21 -42 60 -75 q38 -32 94 -52q55 -20 123 -18h41q23 0 37 1q19 1 37 3l26 -96q-86 0 -174 -2q-25 -1 -65 -2.5t-53 -1.5q-17 0 -52.5 -1.5t-53.5 -2.5q-72 -2 -140 -2q-78 0 -154 25t-140 78q-63 53 -103 131q-40 79 -40 186zM502 903q0 -33 26 -52q28 -20 74 -20q43 0 68 20q24 19 24 52 q0 40 -23 62t-71 22t-73 -22t-25 -62z" />
<glyph unicode="&#xe56;" horiz-adv-x="1187" d="M12 897l74 117q57 -48 98 -121q39 -69 45 -141l17 -4q5 13 32 35q26 21 69 42q39 19 109 35q60 14 148 14q101 0 188 -28q88 -28 156 -84t108 -137t40 -187q0 -87 -32 -169q-31 -80 -94 -143q-62 -62 -155 -100t-213 -38q-113 0 -191 26q-80 27 -133 69t-78 94 q-26 54 -26 106q0 46 16 85q15 37 48 70q30 30 75 48t101 18q64 0 107 -27t54 -80l-47 -45q-29 68 -90 68q-62 0 -96 -42q-35 -43 -35 -99q0 -37 18 -75q20 -41 52 -69q35 -31 90 -50q54 -19 131 -19q74 0 139 25q64 25 115 74q49 48 78 119q28 69 28 160q0 70 -23 130 q-24 64 -70 111q-47 48 -112 78q-66 30 -151 30q-58 0 -112 -14t-93 -37q-41 -25 -69 -55q-28 -31 -39 -69h-109q-2 35 -15 77q-13 40 -35 81q-21 39 -51 72t-67 49z" />
<glyph unicode="&#xe57;" horiz-adv-x="1187" d="M66 461q0 111 25 189q25 80 66 129q42 51 90 73t101 22q52 0 87 -17q42 -20 66 -44q29 -29 44 -59q15 -31 22 -64h4q4 30 20 64q14 31 42 59q26 26 65 44q37 17 90 17q55 0 94 -16q40 -16 67 -45q28 -29 42 -65t19 -76l12 2q-2 116 18 198q21 87 68 154l129 -25 q-71 -82 -112 -229q-40 -145 -40 -334q0 -86 -18 -158q-18 -71 -49 -132q-29 -57 -71 -102q-46 -50 -83 -75l-86 47q39 30 66 63q32 38 52 86q22 53 34 115q12 64 12 150q0 103 -14 166q-16 71 -38 110q-24 42 -55 60t-65 18q-35 0 -61 -25q-26 -24 -46 -65q-21 -41 -32 -87 q-13 -51 -17 -93h-96q-1 42 -11 93q-8 44 -28 87q-18 40 -48 65q-29 25 -73 25q-26 0 -53 -15t-48 -53t-36 -99q-14 -57 -14 -154q0 -84 13 -153q13 -72 38 -127q24 -55 58 -87q33 -32 75 -32q25 0 47 15t37 52l43 -47q-10 -38 -41 -69q-29 -29 -98 -29q-61 0 -119 35 q-57 34 -100 97q-44 64 -69 149t-25 192z" />
<glyph unicode="&#xe58;" horiz-adv-x="1187" d="M76 420q0 131 39 218q39 88 99 137q61 50 135 71q71 20 147 20q23 0 48 -1t81 -1q36 -2 54 -2h56q124 -2 205 47t119 127l82 -94q-28 -75 -144 -125q-112 -49 -295 -47h-92q-45 0 -68 1t-42 1q-117 0 -195 -88t-78 -256q0 -71 14 -138q14 -65 39 -113q26 -50 60 -76 q34 -27 78 -27q71 0 114 61q45 63 52 160h100q5 -48 18 -83q16 -44 38 -71q25 -32 57 -49q33 -18 73 -18q61 0 102 40q42 40 42 105q0 67 -39 105q-38 37 -103 32v62q51 15 100 5q45 -9 81 -37q34 -26 54 -70q19 -41 19 -93q0 -107 -68 -171t-188 -64q-54 0 -94 15t-69 41 t-45 57q-17 33 -23 65h-4q-6 -30 -22 -65q-14 -30 -43 -57q-28 -26 -69 -41q-42 -15 -100 -15q-50 0 -106 22q-58 23 -106 74q-47 50 -80 133t-33 203z" />
<glyph unicode="&#xe59;" horiz-adv-x="1187" d="M53 430q0 92 30 174q29 81 85 141q57 61 133 95q77 34 174 34q54 0 119 -22q66 -22 117 -78q0 28 10 55q12 33 28 54q22 29 39 44q22 19 48 27q39 15 78 9q55 -8 74 -9q34 -1 59 14q24 15 34 74l105 -104q-46 -70 -87 -92q-41 -21 -75 -18q-35 3 -66 17q-30 13 -61 7 q-27 -6 -48 -25q-18 -17 -31 -41q-10 -19 -12 -46q-1 -22 7 -42l336 -643l-115 -67l-346 647q-17 30 -32 53q-17 26 -42 46q-25 21 -58 32q-34 12 -83 12q-61 0 -110 -30q-48 -29 -85 -80t-56 -112t-19 -126q0 -63 21 -123q20 -56 59 -105q37 -46 87 -75t109 -29 q56 0 108 11q49 10 109 63l76 -63q-58 -56 -131 -89q-71 -32 -160 -32q-95 0 -173 34t-135 94q-56 59 -88 141t-32 173z" />
<glyph unicode="&#xe5a;" horiz-adv-x="1179" d="M76 621q-4 42 11 88q15 44 48 82q30 34 80 60q45 23 107 23q53 0 96 -13q42 -13 71 -32l-26 -71q-45 18 -90 18t-82 -18q-38 -18 -60 -52t-22 -83q0 -36 16 -62t43 -47q26 -20 60 -31q31 -10 63 -10q54 0 95 17q44 18 76 47q31 28 49 67t18 80v180h131v-864h-131v506 q-43 -52 -111 -92q-62 -37 -156 -37q-54 0 -99 17q-48 18 -88 49q-37 29 -66 77q-27 45 -33 101zM938 0v864h131v-864h-131z" />
<glyph unicode="&#xe5b;" horiz-adv-x="1982" d="M63 389q0 80 31 154q29 70 85 124q53 52 130 82q74 29 166 29q69 0 126 -28t85 -82l-70 -70q0 52 -44 73t-97 21q-54 0 -101 -22q-49 -23 -86 -63q-40 -43 -61 -95q-22 -54 -22 -123q0 -76 24 -133q24 -56 67 -95q44 -39 100 -58q57 -19 126 -19q90 0 152 49 q64 50 98 123q35 75 38 159t-30 156l103 70q25 -22 60 -64q21 -26 73 -94q28 -37 66 -94q28 -42 42 -70q6 8 17 33q6 13 25 60q4 10 13 30.5t13 31.5l16 40l92 57q14 -14 30 -37q6 -9 22 -30.5t24 -33.5q3 -4 19.5 -27.5t24.5 -35.5q22 -33 26 -42q3 3 7 14q6 16 12 28 q11 22 13 28q2 5 4.5 11t2.5 7h440l-24 -127h-351q-5 -12 -19 -37q-16 -29 -35 -58q-5 -7 -12.5 -18.5t-13.5 -21t-11 -17.5q-20 -30 -23 -33q-4 10 -26 54q-21 41 -43 79q-6 9 -15 25t-16.5 28.5l-13.5 22.5q-22 36 -32 43q-5 -15 -30 -61q-9 -16 -54 -95q-30 -52 -56 -94 q-25 -40 -40 -55q-9 19 -35 68q-9 18 -52 91q-10 17 -28 46t-24 40q-18 30 -37 54q-11 -76 -34 -144q-24 -71 -71 -124t-120 -86t-185 -33q-215 0 -338 105t-123 284z" />
<glyph unicode="&#x2000;" horiz-adv-x="814" />
<glyph unicode="&#x2001;" horiz-adv-x="1628" />
<glyph unicode="&#x2002;" horiz-adv-x="814" />
<glyph unicode="&#x2003;" horiz-adv-x="1628" />
<glyph unicode="&#x2004;" horiz-adv-x="542" />
<glyph unicode="&#x2005;" horiz-adv-x="407" />
<glyph unicode="&#x2006;" horiz-adv-x="271" />
<glyph unicode="&#x2007;" horiz-adv-x="271" />
<glyph unicode="&#x2008;" horiz-adv-x="203" />
<glyph unicode="&#x2009;" horiz-adv-x="325" />
<glyph unicode="&#x200a;" horiz-adv-x="90" />
<glyph unicode="&#x200b;" />
<glyph unicode="&#x2010;" horiz-adv-x="790" d="M29 420v110h733v-110h-733z" />
<glyph unicode="&#x2011;" horiz-adv-x="790" d="M29 420v110h733v-110h-733z" />
<glyph unicode="&#x2012;" horiz-adv-x="790" d="M29 420v110h733v-110h-733z" />
<glyph unicode="&#x2013;" horiz-adv-x="1024" d="M27 377v86h968v-86h-968z" />
<glyph unicode="&#x2014;" horiz-adv-x="2048" d="M27 377v86h1992v-86h-1992z" />
<glyph unicode="&#x2018;" horiz-adv-x="409" d="M80 770v170l145 266h64l-109 -258h80v-178h-180z" />
<glyph unicode="&#x2019;" horiz-adv-x="409" d="M98 770l109 258h-80v178h180v-170l-145 -266h-64z" />
<glyph unicode="&#x201c;" horiz-adv-x="673" d="M80 770v170l145 266h64l-109 -258h80v-178h-180zM367 770v170l145 266h63l-108 -258h80v-178h-180z" />
<glyph unicode="&#x201d;" horiz-adv-x="673" d="M98 770l109 258h-80v178h180v-170l-145 -266h-64zM385 770l109 258h-80v178h180v-170l-145 -266h-64z" />
<glyph unicode="&#x2022;" horiz-adv-x="815" d="M74 414q0 72 26 130q27 60 72 105q44 44 106 72q60 27 130 27t130 -27q59 -27 106 -72q46 -44 73 -105q26 -58 26 -130q0 -71 -28 -130q-29 -60 -76 -106q-46 -45 -110 -72q-61 -26 -130 -26t-127 26q-59 27 -103 72q-45 46 -70 106q-25 59 -25 130z" />
<glyph unicode="&#x202f;" horiz-adv-x="325" />
<glyph unicode="&#x205f;" horiz-adv-x="407" />
<glyph unicode="&#x20ac;" horiz-adv-x="1241" d="M45 412v112h162q-2 22 -2 34v34v33q0 10 2 32h-162v113h178q17 87 58 168q39 78 100 136t144 91t190 33q97 0 178 -32q79 -31 139 -87q110 -104 131 -258l-145 -26q-7 52 -33 111q-25 56 -64 95q-41 41 -94 67q-54 26 -118 26q-71 0 -129 -28q-55 -27 -95 -73 q-39 -45 -63 -103q-26 -63 -37 -120h385v-113h-401q-2 -22 -2 -33v-34v-33q0 -11 2 -33h401v-112h-385q15 -66 40 -125q26 -62 64 -104q37 -41 93 -70q52 -27 120 -27q66 0 123 26q59 27 97 68q41 44 66 100q27 61 34 117l141 -28q-12 -88 -49 -157q-39 -74 -96 -122 q-62 -53 -139 -79q-79 -27 -181 -27q-104 0 -182 34q-79 34 -138 95q-58 59 -97 136q-40 79 -58 163h-178z" />
<glyph unicode="&#x2122;" horiz-adv-x="1406" d="M51 1104v76h498v-76h-203v-635h-92v635h-203zM629 469v711h151l199 -568l182 568h148v-711h-92v618l-211 -618h-62l-223 621v-621h-92z" />
<glyph unicode="&#x25cc;" horiz-adv-x="1372" d="M334 588l92 45q0 -4 -1 -12.5t-2 -12.5q-1 -8 -1 -24q0 -14 1 -22l3 -21zM432 336l35 96q27 -38 63 -65zM446 838l93 -33q-37 -22 -66 -62zM639 846l47 92l45 -90q-14 2 -21 2h-22q-16 0 -24 -1q-4 -1 -12.5 -2t-12.5 -1zM643 319q7 -1 23 -3q8 -1 22 -1t20 1q12 2 19 3 l-41 -86zM840 805l100 33l-35 -97q-29 38 -65 64zM842 362q34 24 59 58l25 -84zM952 545q1 7 3 19q1 6 1 20t-1 22q-2 16 -3 23l86 -45z" />
<glyph unicode="&#xe000;" horiz-adv-x="849" d="M0 0v850h850v-850h-850z" />
<glyph unicode="&#xf700;" horiz-adv-x="911" d="M27 676q28 57 72 93q47 37 99 60q54 23 105 32q53 9 96 9q42 0 96 -9q55 -9 107 -36q37 22 45 59q8 38 12 64h119q-6 -38 -32 -86t-82 -80q64 -50 101 -132q36 -81 36 -230q0 -89 -31 -170q-29 -75 -76 -133q-45 -56 -95 -86q-51 -31 -89 -31h-158l-98 358q-10 37 -30 46 q-23 11 -48 12l35 110q44 0 70 -11q31 -13 47 -29q19 -19 28 -37q10 -21 15 -39l88 -324h8q14 0 48 18q32 17 67 58q33 39 58 101q26 64 26 153q0 111 -26 184q-25 71 -65 114q-38 41 -86 58q-45 16 -90 16q-82 0 -140 -29q-59 -30 -103 -108z" />
<glyph unicode="&#xf701;" d="M-850 1047l39 86h475v-86h-514z" />
<glyph unicode="&#xf702;" d="M-850 1047l39 86h344v124h131v-210h-514z" />
<glyph unicode="&#xf703;" d="M-850 1047l39 86h193q-15 67 34 109q50 42 129 42q70 0 108 -38t38 -91q0 -108 -144 -108h-397zM-537 1157q0 -28 22 -42q20 -13 50 -13q31 0 50 13q20 14 20 42q0 57 -70 57q-29 0 -50 -15q-22 -16 -22 -42z" />
<glyph unicode="&#xf704;" d="M-850 1047l39 86h242v127h45q15 0 22 -10t8 -21l7 -58q1 -15 9 -27q7 -11 29 -11q21 0 27 11q7 14 8 27l6 58q1 9 9 21q7 10 22 10h41v-213h-514z" />
<glyph unicode="&#xf705;" d="M-461 1022v268h123v-268h-123z" />
<glyph unicode="&#xf706;" d="M-764 1180l29 82q42 10 79 1q35 -9 55 -33q19 -24 21 -59t-22 -73q40 -2 76 5q46 8 80 23q38 16 73 39q36 23 60 52l16 -107q-75 -55 -190 -75q-120 -21 -248 -5v19q16 12 25 32q9 22 8 40q-1 19 -17 36t-45 23z" />
<glyph unicode="&#xf707;" d="M-809 1133q0 41 27 68q28 28 69 32q30 2 46 -5q18 -8 30 -18q2 -3 10.5 -12.5t12.5 -15.5q6 15 20 26q12 12 31 19q21 7 49 6q22 0 42 -12q19 -12 31 -33q12 -20 13 -47q2 -30 -12 -56q45 17 60 42t15 92l76 -31q-11 -93 -78 -133q-69 -41 -159 -25q26 27 26 66 q0 19 -13 35q-14 17 -40 18q-23 0 -38 -9q-16 -9 -23 -24q-7 14 -24 26q-15 12 -38 7q-28 -4 -36 -23q-7 -17 -7 -30q0 -19 5 -36q3 -11 14 -26h-68q-9 7 -25 29t-16 70z" />
<glyph unicode="&#xf708;" d="M-657 1128v76h112v121h109v-121h112v-76h-112v-120h-109v120h-112z" />
<glyph unicode="&#xf709;" d="M-553 1111q5 36 30 66q25 29 77 49q51 20 141 21v-55q-49 -7 -79 -27q-28 -18 -40 -40t-11 -44q2 -25 7 -41h-123q-6 36 -2 71z" />
<glyph unicode="&#xf70a;" d="M-236 1022v268h123v-268h-123z" />
<glyph unicode="&#xf70b;" d="M-537 1190l29 82q42 10 79 1q35 -9 55 -33q21 -25 22 -58q1 -34 -23 -74q110 6 187 45q75 38 129 92l10 -117q-89 -58 -211 -80t-248 -10v21q17 13 26 33t7 40q-1 18 -17 35t-45 23z" />
<glyph unicode="&#xf70c;" d="M-596 1159q0 46 31 79q30 31 80 36q34 2 53 -8q18 -9 35 -21q10 -11 24 -31q6 12 25 31q15 11 36 21q19 10 54 8q25 -1 50 -17q24 -15 38 -37q13 -21 15 -54q1 -29 -17 -64q58 6 79 50t21 110l90 -31q-1 -59 -27 -100t-67 -64q-42 -23 -92 -29q-53 -6 -104 4q30 33 30 74 q0 23 -15 41q-16 20 -46 21q-48 0 -70 -37q-11 17 -27 28q-20 13 -44 9q-33 -5 -41 -26q-9 -25 -9 -36q0 -41 23 -69h-78q-12 7 -29 31q-18 26 -18 81z" />
<glyph unicode="&#xf70d;" d="M-342 1126v80h111v107h116v-107h113v-80h-113v-106h-116v106h-111z" />
<glyph unicode="&#xf70e;" d="M-240 1111q4 36 30 66q25 29 77 49q51 20 141 21v-55q-49 -7 -79 -27q-28 -18 -40 -40t-11 -44q2 -25 7 -41h-123q-6 36 -2 71z" />
<glyph unicode="&#xf70f;" horiz-adv-x="1306" d="M102 705v55q24 21 58 37q35 17 82 34q45 17 96 27q49 10 104 10q62 0 113 -12q50 -12 89 -40q38 -27 59 -71q22 -46 22 -104v-383q0 -88 43 -143q44 -56 135 -56q81 0 121 57q41 58 41 142v592h131v-580q0 -58 -12 -110t-44 -93t-89 -65q-59 -25 -148 -25q-97 0 -157 24 q-61 24 -93 64q-32 39 -44 93q-11 48 -11 112v342q0 76 -36 125t-136 49q-98 0 -143 -52t-45 -124v-532h98v-78h-230v496q0 66 12 106q13 43 54 86q-1 0 -4.5 1.5t-5.5 2.5t-5.5 2.5t-4.5 1.5q-22 9 -50 9z" />
<glyph unicode="&#xf710;" d="M-651 1137l104 71q18 -34 67 -54q47 -19 113 -19l373 2v-86l-455 -7q-15 0 -55 6q-26 4 -59 16q-30 13 -52 29q-24 18 -36 42z" />
<glyph unicode="&#xf711;" d="M-662 1137q0 32 15 59q14 26 39 46q23 19 55 30q29 10 64 10q65 0 117 -40q53 -41 53 -105q0 -65 -51 -108q-50 -42 -119 -42q-73 0 -122 42q-51 43 -51 108zM-573 1137q0 -33 24 -53q23 -19 60 -19q35 0 58 19t23 53q0 31 -22 50t-59 19t-60 -19q-24 -19 -24 -50z" />
<glyph unicode="&#xf712;" d="M-856 1165q0 60 36 103t95 43h401v-64h-340q-35 0 -58 -20t-23 -62q0 -44 16 -61q17 -19 31 -23l116 64l78 -45q36 -23 64 -13q14 4 29 17q13 12 18 39l78 -31q2 -42 -28 -73t-77 -31q-13 0 -43 5q-26 4 -43 15l-78 49l-80 -49q-21 -9 -25 -11q-14 -7 -30 -7 q-62 0 -100 47q-37 46 -37 108z" />
<glyph unicode="&#xf713;" d="M-467 1358v186h131v-186h-131z" />
<glyph unicode="&#xf714;" d="M-569 1507l28 82q42 10 79 1q36 -9 55 -32q21 -25 22 -59t-23 -74q26 0 76 10q49 10 92 25q45 16 89 38q42 21 69 48v-98q-86 -55 -206 -78q-124 -24 -253 -12v18q17 13 26 33t7 40t-16 36t-45 22z" />
<glyph unicode="&#xf715;" d="M-612 1458q0 43 26 69q28 28 70 32q28 1 46 -6q20 -8 30 -17q14 -17 22 -29q6 15 21 27q11 11 30 18q24 8 50 7q21 0 42 -13q17 -11 30 -33t14 -47q2 -27 -13 -55q46 17 61 42t15 91l76 -31q-11 -93 -78 -133q-68 -41 -160 -24q27 28 27 65q0 19 -13 35q-14 18 -40 19 q-21 0 -38 -10q-18 -11 -24 -23q-7 14 -23 25q-16 12 -38 8q-28 -4 -36 -23q-7 -17 -7 -31q0 -19 5 -36q4 -12 13 -25h-67q-9 7 -25 29t-16 69z" />
<glyph unicode="&#xf716;" d="M-573 1432v75h110v84h121v-84h113v-75h-113v-82h-121v82h-110z" />
<glyph unicode="&#xf717;" d="M-459 1231q0 45 7 80t32 65q24 28 74 45q51 17 133 17v-56q-46 0 -68 -14q-23 -14 -37 -36t-17 -48q-3 -24 -1 -53h-123z" />
<glyph unicode="&#xf718;" d="M-319 -461l26 84h109q35 0 54 -23t19 -63v-164h-112v123q0 43 -41 43h-55z" />
<glyph unicode="&#xf719;" d="M-584 -455l35 80h98q37 0 51 -23q15 -24 15 -63v-57q0 -23 19 -38q20 -15 57 -15q76 0 76 65v131h122v-133q0 -82 -48 -109q-50 -28 -152 -28q-99 0 -139 33q-39 32 -39 67v43q0 47 -41 47h-54z" />
<glyph unicode="&#xf71a;" d="M-254 -457q0 35 22 57q21 21 56 21t56 -21q22 -22 22 -57q0 -34 -22 -56t-56 -22t-56 22t-22 56z" />
<glyph unicode="&#xf71d;" horiz-adv-x="1003" d="M113 209v641h129v-678q0 -41 22 -75t78 -34q26 0 46 14q19 13 31 33q11 18 16 41t5 37v476h121v-478q0 -17 6 -38q5 -18 19 -39q13 -20 32 -32q22 -14 50 -14q50 0 73 30q23 31 23 77v438q0 38 -11 61q-12 25 -27 42q-14 15 -32 25q-21 11 -28 14v14q9 1 29 11 q16 8 33 25q16 16 26 38q10 21 10 53v43h131v-45q0 -54 -40 -88t-83 -49q42 -10 83 -53q40 -41 40 -101v-389q0 -104 -47 -168t-148 -64q-23 0 -55 8q-35 9 -59 24q-29 19 -52 44q-25 28 -32 64q-22 -77 -75 -108q-53 -32 -105 -32q-110 0 -160 64q-49 62 -49 168z" />
<glyph unicode="&#xf881;" horiz-adv-x="1288" d="M102 711v55q23 20 62 37q43 19 92 35q44 14 106 26q53 10 109 10q80 0 144 -19q67 -20 108 -67q45 35 99 59q60 27 134 27q110 0 163 -52q55 -53 55 -113v-973h-132v942q0 64 -31 89q-32 26 -96 26q-47 0 -88 -21t-67 -43q14 -28 14 -82v-913h-127v884q0 76 -46 125 q-47 50 -146 50q-47 0 -87 -15q-43 -16 -69 -38q-29 -24 -45 -55t-16 -69v-538h98v-78h-230v502q0 66 12 106q13 43 54 86q-1 0 -4.5 1.5t-5.5 2.5t-5.5 2.5t-4.5 1.5q-22 9 -50 9z" />
<glyph unicode="&#xf882;" horiz-adv-x="1306" d="M31 0v78h94v424q0 69 11 106q13 43 54 86q-1 0 -4.5 1.5t-5.5 2.5t-5.5 2.5t-4.5 1.5q-22 9 -49 9v55q24 21 61 37q43 19 92 35q43 14 107 26q53 10 108 10q81 0 145 -19q66 -19 107 -67q44 34 100 59q60 27 134 27q110 0 163 -52q54 -53 54 -113v-973h-131v942 q0 63 -32 89t-95 26q-48 0 -88 -21q-43 -23 -68 -43q15 -30 15 -82v-913h-127v884q0 76 -46 125q-47 50 -147 50q-47 0 -87 -15q-43 -16 -69 -38q-29 -24 -45 -55t-16 -69v-616h-225z" />
<glyph horiz-adv-x="1179" d="M76 621q-4 42 11 88q15 44 48 82q30 34 80 60q45 23 107 23q53 0 96 -13q42 -13 71 -32l-26 -71q-45 18 -90 18t-82 -18q-38 -18 -60 -52t-22 -83q0 -36 16 -62t43 -47q26 -20 60 -31q31 -10 63 -10q54 0 95 17q44 18 76 47q31 28 49 67t18 80v180h131v-864h-131v506 q-43 -52 -111 -92q-62 -37 -156 -37q-54 0 -99 17q-48 18 -88 49q-37 29 -66 77q-27 45 -33 101zM938 0v864h131v-864h-131z" />
<glyph d="M-336 1038q0 102 47 158t105 74q7 33 20 59q17 33 38 56q25 26 56 42q34 17 78 17v-105q-66 0 -85 -46q-19 -45 -19 -113q-66 0 -101 -38q-34 -37 -34 -104h-105z" />
<glyph horiz-adv-x="583" d="M-637 1137q0 34 14 59q14 26 39 46q22 18 56 30q29 10 63 10q66 0 118 -40t52 -105q0 -66 -50 -108q-49 -42 -120 -42q-73 0 -122 42q-50 42 -50 108zM-549 1137q0 -33 25 -53q23 -19 59 -19q35 0 58 19q24 20 24 53q0 30 -23 50q-22 19 -59 19q-36 0 -59 -19 q-25 -20 -25 -50zM20 784q42 33 100 60q59 28 136 28q110 0 163 -52q54 -52 54 -113v-707h-131v676q0 63 -32 89t-95 26q-45 0 -87 -22q-31 -16 -58 -34z" />
<glyph horiz-adv-x="583" d="M-637 1137q0 34 14 59q14 26 39 46q22 18 56 30q29 10 63 10q66 0 118 -40t52 -105q0 -66 -50 -108q-49 -42 -120 -42q-73 0 -122 42q-50 42 -50 108zM-549 1137q0 -33 25 -53q23 -19 59 -19q35 0 58 19q24 20 24 53q0 30 -23 50q-22 19 -59 19q-36 0 -59 -19 q-25 -20 -25 -50zM20 784q42 33 100 60q59 28 136 28q110 0 163 -52q54 -52 54 -113v-707h-131v676q0 63 -32 89t-95 26q-45 0 -87 -22q-31 -16 -58 -34z" />
<glyph horiz-adv-x="870" d="M78 614q-4 42 11 88q14 43 47 82q30 36 79 61q45 23 107 23q53 0 96 -13q44 -13 74 -32l-29 -71q-45 18 -88 17q-48 -2 -82 -18q-37 -18 -61 -52q-23 -33 -23 -83q0 -36 17 -61q18 -27 44 -47t60 -31q31 -10 63 -10q54 0 95 17q47 19 75 46q30 28 48 68q18 39 18 80v172 h131v-850h-131v500q-44 -53 -110 -92q-62 -37 -154 -37q-55 0 -100 17q-48 18 -88 49q-37 29 -66 77q-27 45 -33 100z" />
</font>
</defs>
</svg>
